<?xml version="1.0" encoding="utf-8"?>
<!-- Generator: Adobe Illustrator 16.0.0, SVG Export Plug-In . SVG Version: 6.00 Build 0)  -->
<!DOCTYPE svg PUBLIC "-//W3C//DTD SVG 1.1//EN" "http://www.w3.org/Graphics/SVG/1.1/DTD/svg11.dtd">
<svg version="1.1" id="Layer_1" xmlns="http://www.w3.org/2000/svg" xmlns:xlink="http://www.w3.org/1999/xlink" x="0px" y="0px"
	 width="176px" height="28px" viewBox="0 0 176 28" enable-background="new 0 0 176 28" xml:space="preserve">
<g>
	<path d="M27.951,14.646c1.244,0,1.788-0.462,1.955-1.563l1.672,0.177c-0.19,1.777-1.258,2.926-3.627,2.926
		c-2.844,0-3.957-1.908-3.957-4.788c0-2.879,1.113-4.788,3.957-4.788c2.369,0,3.437,1.15,3.627,2.928l-1.672,0.177
		c-0.167-1.102-0.711-1.564-1.955-1.564c-1.895,0-2.263,1.528-2.263,3.247C25.688,13.119,26.056,14.646,27.951,14.646"/>
	<path d="M32.692,12.88c0-2.181,1.184-3.306,3.082-3.306c1.893,0,3.081,1.125,3.081,3.306c0,2.183-1.188,3.307-3.081,3.307
		C33.875,16.187,32.692,15.062,32.692,12.88 M34.353,12.88c0,1.305,0.543,1.803,1.421,1.803c0.875,0,1.419-0.498,1.419-1.803
		c0-1.303-0.544-1.8-1.419-1.8C34.896,11.08,34.353,11.577,34.353,12.88"/>
	<rect x="40.062" y="6.538" width="1.613" height="9.485"/>
	<path d="M47.53,15.357c-0.414,0.509-1.162,0.829-1.898,0.829c-1.457,0-2.488-0.748-2.488-2.252V9.74h1.615v3.958
		c0,0.651,0.438,0.972,1.101,0.972c0.817,0,1.48-0.615,1.576-1.102V9.74h1.601v4.587l0.106,1.695h-1.484L47.53,15.357z"/>
	<path d="M52.35,10.404c0.406-0.533,1.021-0.83,1.648-0.83c0.888,0,1.481,0.344,1.815,0.901c0.45-0.591,1.219-0.901,1.954-0.901
		c1.445,0,2.287,0.843,2.287,2.311v4.138h-1.613v-4.032c0-0.616-0.378-0.911-0.97-0.899c-0.676,0.01-1.102,0.581-1.223,1.104v3.828
		h-1.61v-4.032c0-0.616-0.368-0.911-0.959-0.899c-0.679,0.01-1.102,0.581-1.235,1.104v3.828h-1.598v-4.589L50.739,9.74h1.483
		L52.35,10.404z"/>
	<path d="M63.17,10.297c0.357-0.403,1.055-0.723,1.766-0.723c1.861,0,2.88,1.175,2.88,3.306c0,2.135-1.019,3.307-2.88,3.307
		c-0.734,0-1.541-0.365-1.871-0.853l-0.129,0.688h-1.483l0.105-1.695v-7.79h1.612V10.297z M64.678,11.091
		c-0.83,0-1.389,0.534-1.508,1.055v1.468c0.119,0.522,0.678,1.056,1.508,1.056c0.827,0,1.455-0.581,1.455-1.79
		C66.133,11.672,65.505,11.091,64.678,11.091"/>
	<path d="M70.72,8.707h-1.776V6.932h1.776V8.707z M69.026,9.74h1.612v6.282h-1.612V9.74z"/>
	<path d="M74.207,12.229l1.918-0.271v-0.131c0-0.557-0.391-0.842-1.21-0.842c-0.853-0.011-1.102,0.298-1.183,0.808l-1.648-0.215
		c0.178-1.126,0.769-2.003,2.785-2.003c1.79,0,2.869,0.748,2.869,2.383v2.37l0.105,1.695h-1.481l-0.129-0.665
		c-0.488,0.544-1.209,0.829-2.039,0.829c-1.673,0-2.314-0.817-2.314-1.955C71.879,12.833,72.785,12.43,74.207,12.229 M74.394,14.813
		c0.925,0.035,1.565-0.593,1.73-1.139v-0.509l-1.672,0.271c-0.64,0.107-0.863,0.296-0.863,0.723
		C73.589,14.574,73.886,14.801,74.394,14.813"/>
	<path d="M81.98,16.022V6.778h3.958c1.174,0,2.746,0.426,2.746,2.558c0,0.961-0.411,1.567-0.838,1.836
		c0.649,0.275,1.139,1.033,1.139,2.146c0,2.25-1.425,2.704-2.988,2.704H81.98z M83.638,8.317v2.208h2.181
		c0.711,0,1.162-0.216,1.162-1.128c0-0.887-0.439-1.079-1.162-1.079H83.638z M85.914,14.481c0.545,0,1.376-0.071,1.376-1.185
		c0-1.115-0.724-1.235-1.329-1.235h-2.322v2.42H85.914z"/>
	<path d="M94.458,15.357c-0.412,0.509-1.161,0.829-1.895,0.829c-1.461,0-2.492-0.748-2.492-2.252V9.74h1.613v3.958
		c0,0.651,0.439,0.972,1.104,0.972c0.816,0,1.48-0.615,1.574-1.102V9.74h1.6v4.587l0.107,1.695H94.59L94.458,15.357z"/>
	<path d="M101.131,14.078c-0.014-0.521-0.512-0.498-1.376-0.582c-1.222-0.106-2.571-0.225-2.571-1.85
		c0-1.575,1.492-2.073,2.715-2.073c1.79,0,2.631,0.64,2.795,1.98l-1.635,0.214c-0.07-0.5-0.377-0.818-1.16-0.808
		c-0.499,0.012-0.995,0.141-0.995,0.652c0.01,0.438,0.496,0.438,1.268,0.522c1.255,0.13,2.64,0.167,2.64,1.932
		c0,1.6-1.525,2.12-2.946,2.12c-1.91,0-2.729-0.771-2.872-2.05l1.65-0.213c0.094,0.581,0.426,0.89,1.222,0.877
		C100.561,14.788,101.143,14.622,101.131,14.078"/>
	<path d="M105.836,8.707h-1.777V6.932h1.777V8.707z M104.142,9.74h1.611v6.282h-1.611V9.74z"/>
	<path d="M108.976,10.404c0.416-0.51,1.159-0.83,1.896-0.83c1.457,0,2.487,0.748,2.487,2.252v4.196h-1.61v-3.961
		c0-0.651-0.438-0.97-1.102-0.97c-0.819,0-1.483,0.617-1.576,1.104v3.828h-1.602v-4.589l-0.105-1.693h1.481L108.976,10.404z"/>
	<path d="M116.063,13.497c0.046,0.889,0.63,1.281,1.435,1.281c0.84,0.011,1.16-0.32,1.257-0.747l1.647,0.201
		c-0.168,1.056-0.868,1.955-2.868,1.955c-2.005,0-3.178-1.16-3.178-3.307c0-2.144,1.173-3.306,3.093-3.306
		c1.947,0,2.987,1.175,2.987,3.306v0.617H116.063z M116.074,12.229h2.631c-0.033-0.84-0.447-1.245-1.242-1.245
		C116.681,10.984,116.16,11.363,116.074,12.229"/>
	<path d="M125.356,14.078c-0.014-0.521-0.509-0.498-1.376-0.582c-1.219-0.106-2.572-0.225-2.572-1.85
		c0-1.575,1.491-2.073,2.714-2.073c1.789,0,2.634,0.64,2.797,1.98l-1.636,0.214c-0.067-0.5-0.378-0.818-1.161-0.808
		c-0.497,0.012-0.994,0.141-0.994,0.652c0.013,0.438,0.497,0.438,1.269,0.522c1.258,0.13,2.644,0.167,2.644,1.932
		c0,1.6-1.531,2.12-2.952,2.12c-1.907,0-2.728-0.771-2.869-2.05l1.646-0.213c0.096,0.581,0.427,0.89,1.224,0.877
		C124.785,14.788,125.368,14.622,125.356,14.078"/>
	<path d="M131.814,14.078c-0.011-0.521-0.51-0.498-1.374-0.582c-1.222-0.106-2.574-0.225-2.574-1.85
		c0-1.575,1.494-2.073,2.716-2.073c1.788,0,2.631,0.64,2.795,1.98l-1.637,0.214c-0.067-0.5-0.377-0.818-1.158-0.808
		c-0.5,0.012-0.995,0.141-0.995,0.652c0.012,0.438,0.495,0.438,1.269,0.522c1.254,0.13,2.641,0.167,2.641,1.932
		c0,1.6-1.528,2.12-2.949,2.12c-1.909,0-2.728-0.771-2.869-2.05l1.647-0.213c0.096,0.581,0.425,0.89,1.222,0.877
		C131.243,14.788,131.827,14.622,131.814,14.078"/>
	<path d="M137.302,13.355l1.684-0.179c0.128,1.078,0.791,1.47,2.047,1.47c0.926-0.012,1.97-0.355,1.97-1.375
		c0-0.805-0.485-1.149-2.016-1.292c-1.694-0.142-3.354-0.582-3.369-2.559c-0.012-1.945,1.543-2.81,3.334-2.81
		c2.417,0,3.518,1.069,3.685,2.822l-1.681,0.176c-0.133-1.09-0.747-1.458-2.004-1.458c-0.629,0.013-1.669,0.238-1.669,1.281
		c0.01,0.639,0.364,0.911,1.787,1.054c2.262,0.199,3.566,0.614,3.579,2.785c0.013,2.062-1.777,2.915-3.616,2.915
		C138.533,16.187,137.491,15.192,137.302,13.355"/>
	<path d="M148.691,14.683c0.86,0.013,1.147-0.319,1.256-0.878l1.645,0.214c-0.151,1.196-0.792,2.168-2.892,2.168
		c-1.918,0-3.056-1.172-3.056-3.307c0-2.131,1.138-3.306,3.056-3.306c2.1,0,2.74,0.971,2.892,2.168l-1.645,0.215
		c-0.108-0.559-0.396-0.889-1.256-0.877c-0.877,0.022-1.412,0.581-1.412,1.8C147.279,14.101,147.814,14.658,148.691,14.683"/>
	<path d="M152.565,6.538h1.61v3.784c0.394-0.474,1.128-0.748,1.804-0.748c1.454,0,2.487,0.748,2.487,2.252v4.196h-1.61v-3.961
		c0-0.651-0.44-0.97-1.104-0.97c-0.818,0-1.48,0.617-1.577,1.104v3.828h-1.61V6.538z"/>
	<path d="M159.238,12.88c0-2.181,1.185-3.306,3.082-3.306c1.894,0,3.079,1.125,3.079,3.306c0,2.183-1.186,3.307-3.079,3.307
		C160.422,16.187,159.238,15.062,159.238,12.88 M160.897,12.88c0,1.305,0.545,1.803,1.423,1.803c0.876,0,1.423-0.498,1.423-1.803
		c0-1.303-0.547-1.8-1.423-1.8C161.442,11.08,160.897,11.577,160.897,12.88"/>
	<path d="M166.254,12.88c0-2.181,1.183-3.306,3.079-3.306c1.896,0,3.081,1.125,3.081,3.306c0,2.183-1.186,3.307-3.081,3.307
		C167.437,16.187,166.254,15.062,166.254,12.88 M167.91,12.88c0,1.305,0.548,1.803,1.424,1.803s1.421-0.498,1.421-1.803
		c0-1.303-0.545-1.8-1.421-1.8S167.91,11.577,167.91,12.88"/>
	<rect x="173.386" y="6.538" width="1.613" height="9.485"/>
	<path fill="#0081CC" d="M19.689,12.195l1.56-1.558h-9.344V1.292L1,12.195h9.344v1.555H5.581l-1.558,1.558h6.321v1.559H8.697
		l-1.558,1.559h3.205v3.112l1.561-1.556v-1.557h1.558l1.555-1.559h-3.112v-1.559h4.671l1.557-1.558h-6.228v-1.555H19.689z
		 M4.76,10.637l5.584-5.585v5.585H4.76z"/>
	<path fill="#0081CC" d="M26.19,21.083h1.117l2.353,5.531h-1.262l-0.504-1.231H25.57l-0.503,1.231h-1.233L26.19,21.083z
		 M27.462,24.316l-0.73-1.782l-0.73,1.782H27.462z"/>
	<polygon fill="#0081CC" points="30.918,22.235 29.25,22.235 29.25,21.12 33.8,21.12 33.8,22.235 32.131,22.235 32.131,26.614 
		30.918,26.614 	"/>
	<polygon fill="#0081CC" points="38.046,22.235 36.374,22.235 36.374,21.12 40.923,21.12 40.923,22.235 39.252,22.235 
		39.252,26.614 38.046,26.614 	"/>
	<polygon fill="#0081CC" points="41.694,21.12 42.902,21.12 42.902,23.294 45.13,23.294 45.13,21.12 46.339,21.12 46.339,26.614 
		45.13,26.614 45.13,24.411 42.902,24.411 42.902,26.614 41.694,26.614 	"/>
	<polygon fill="#0081CC" points="47.5,21.12 51.643,21.12 51.643,22.195 48.7,22.195 48.7,23.31 51.291,23.31 51.291,24.387 
		48.7,24.387 48.7,25.54 51.684,25.54 51.684,26.614 47.5,26.614 	"/>
	<polygon fill="#0081CC" points="54.326,21.12 55.661,21.12 57.097,24.991 58.534,21.12 59.835,21.12 57.616,26.655 56.546,26.655 	
		"/>
	<polygon fill="#0081CC" points="60.525,21.12 64.67,21.12 64.67,22.195 61.725,22.195 61.725,23.31 64.317,23.31 64.317,24.387 
		61.725,24.387 61.725,25.54 64.71,25.54 64.71,26.614 60.525,26.614 	"/>
	<path fill="#0081CC" d="M65.625,21.12h2.513c0.698,0,1.242,0.197,1.602,0.559c0.306,0.307,0.471,0.736,0.471,1.256v0.015
		c0,0.889-0.479,1.446-1.18,1.704l1.345,1.961h-1.411l-1.18-1.757h-0.015h-0.934v1.757h-1.211V21.12z M68.058,23.788
		c0.589,0,0.927-0.312,0.927-0.775v-0.016c0-0.519-0.361-0.782-0.95-0.782h-1.199v1.573H68.058z"/>
	<polygon fill="#0081CC" points="72.492,24.451 70.379,21.12 71.793,21.12 73.104,23.327 74.439,21.12 75.813,21.12 73.702,24.427 
		73.702,26.614 72.492,26.614 	"/>
	<path fill="#0081CC" d="M78.36,23.886v-0.02c0-1.561,1.178-2.839,2.865-2.839c1.036,0,1.658,0.345,2.166,0.847l-0.77,0.887
		c-0.422-0.383-0.855-0.619-1.403-0.619c-0.926,0-1.594,0.77-1.594,1.711v0.014c0,0.944,0.653,1.731,1.594,1.731
		c0.629,0,1.012-0.254,1.444-0.646l0.767,0.777c-0.562,0.603-1.189,0.979-2.251,0.979C79.56,26.708,78.36,25.462,78.36,23.886"/>
	<polygon fill="#0081CC" points="84.241,21.12 88.382,21.12 88.382,22.195 85.44,22.195 85.44,23.31 88.03,23.31 88.03,24.387 
		85.44,24.387 85.44,25.54 88.419,25.54 88.419,26.614 84.241,26.614 	"/>
	<polygon fill="#0081CC" points="89.341,21.12 90.454,21.12 93.028,24.504 93.028,21.12 94.221,21.12 94.221,26.614 93.195,26.614 
		90.534,23.122 90.534,26.614 89.341,26.614 	"/>
	<polygon fill="#0081CC" points="96.66,22.235 94.987,22.235 94.987,21.12 99.54,21.12 99.54,22.235 97.869,22.235 97.869,26.614 
		96.66,26.614 	"/>
	<polygon fill="#0081CC" points="100.307,21.12 104.452,21.12 104.452,22.195 101.509,22.195 101.509,23.31 104.1,23.31 
		104.1,24.387 101.509,24.387 101.509,25.54 104.492,25.54 104.492,26.614 100.307,26.614 	"/>
	<path fill="#0081CC" d="M105.408,21.12h2.511c0.7,0,1.24,0.197,1.601,0.559c0.309,0.307,0.474,0.736,0.474,1.256v0.015
		c0,0.889-0.479,1.446-1.18,1.704l1.345,1.961h-1.413l-1.18-1.757h-0.015h-0.936v1.757h-1.207V21.12z M107.843,23.788
		c0.587,0,0.925-0.312,0.925-0.775v-0.016c0-0.519-0.363-0.782-0.948-0.782h-1.205v1.573H107.843z"/>
	<path fill="#0081CC" d="M112.876,23.886v-0.02c0-1.561,1.233-2.839,2.929-2.839c1.694,0,2.914,1.263,2.914,2.825v0.014
		c0,1.564-1.235,2.842-2.93,2.842C114.094,26.708,112.876,25.446,112.876,23.886 M117.456,23.886v-0.02
		c0-0.939-0.692-1.725-1.666-1.725c-0.973,0-1.646,0.77-1.646,1.711v0.014c0,0.944,0.69,1.731,1.662,1.731
		C116.779,25.598,117.456,24.826,117.456,23.886"/>
	<polygon fill="#0081CC" points="119.632,21.12 123.817,21.12 123.817,22.22 120.84,22.22 120.84,23.389 123.461,23.389 
		123.461,24.487 120.84,24.487 120.84,26.614 119.632,26.614 	"/>
	<path fill="#0081CC" d="M126.82,21.12h2.554c0.628,0,1.12,0.174,1.435,0.488c0.251,0.251,0.379,0.559,0.379,0.933v0.017
		c0,0.621-0.332,0.967-0.724,1.186c0.637,0.242,1.029,0.612,1.029,1.347v0.021c0,1.002-0.816,1.504-2.057,1.504h-2.616V21.12z
		 M129.113,23.341c0.533,0,0.873-0.171,0.873-0.58v-0.016c0-0.36-0.286-0.565-0.797-0.565h-1.19v1.161H129.113z M129.436,25.556
		c0.535,0,0.854-0.188,0.854-0.596v-0.015c0-0.37-0.273-0.599-0.895-0.599h-1.397v1.209H129.436z"/>
	<path fill="#0081CC" d="M132.244,24.262V21.12h1.206v3.109c0,0.896,0.447,1.357,1.188,1.357c0.737,0,1.186-0.448,1.186-1.317V21.12
		h1.207v3.102c0,1.665-0.933,2.48-2.408,2.48C133.145,26.702,132.244,25.877,132.244,24.262"/>
	<path fill="#0081CC" d="M137.726,25.814l0.716-0.854c0.494,0.407,1.013,0.666,1.642,0.666c0.492,0,0.792-0.195,0.792-0.516V25.09
		c0-0.303-0.189-0.46-1.108-0.694c-1.105-0.284-1.819-0.589-1.819-1.682v-0.016c0-0.996,0.8-1.654,1.923-1.654
		c0.799,0,1.482,0.25,2.04,0.695l-0.629,0.912c-0.486-0.338-0.961-0.541-1.427-0.541c-0.465,0-0.707,0.214-0.707,0.479v0.016
		c0,0.36,0.234,0.479,1.185,0.723c1.115,0.291,1.742,0.691,1.742,1.648v0.016c0,1.09-0.832,1.702-2.018,1.702
		C139.226,26.693,138.387,26.403,137.726,25.814"/>
	<rect x="143.023" y="21.12" fill="#0081CC" width="1.208" height="5.494"/>
	<polygon fill="#0081CC" points="145.449,21.12 146.56,21.12 149.136,24.504 149.136,21.12 150.332,21.12 150.332,26.614 
		149.301,26.614 146.642,23.122 146.642,26.614 145.449,26.614 	"/>
	<polygon fill="#0081CC" points="151.489,21.12 155.635,21.12 155.635,22.195 152.69,22.195 152.69,23.31 155.282,23.31 
		155.282,24.387 152.69,24.387 152.69,25.54 155.674,25.54 155.674,26.614 151.489,26.614 	"/>
	<path fill="#0081CC" d="M156.215,25.814l0.711-0.854c0.494,0.407,1.013,0.666,1.643,0.666c0.494,0,0.795-0.195,0.795-0.516V25.09
		c0-0.303-0.191-0.46-1.111-0.694c-1.104-0.284-1.819-0.589-1.819-1.682v-0.016c0-0.996,0.799-1.654,1.925-1.654
		c0.798,0,1.481,0.25,2.042,0.695l-0.63,0.912c-0.485-0.338-0.967-0.541-1.429-0.541c-0.46,0-0.709,0.214-0.709,0.479v0.016
		c0,0.36,0.238,0.479,1.188,0.723c1.115,0.291,1.743,0.691,1.743,1.648v0.016c0,1.09-0.834,1.702-2.018,1.702
		C157.715,26.693,156.873,26.403,156.215,25.814"/>
	<path fill="#0081CC" d="M161,25.814l0.714-0.854c0.496,0.407,1.015,0.666,1.639,0.666c0.497,0,0.797-0.195,0.797-0.516V25.09
		c0-0.303-0.19-0.46-1.105-0.694c-1.108-0.284-1.825-0.589-1.825-1.682v-0.016c0-0.996,0.803-1.654,1.926-1.654
		c0.801,0,1.484,0.25,2.041,0.695l-0.628,0.912c-0.489-0.338-0.968-0.541-1.429-0.541c-0.464,0-0.705,0.214-0.705,0.479v0.016
		c0,0.36,0.231,0.479,1.182,0.723c1.114,0.291,1.744,0.691,1.744,1.648v0.016c0,1.09-0.831,1.702-2.019,1.702
		C162.5,26.693,161.659,26.403,161,25.814"/>
	<path fill="#0081CC" d="M166.581,21.136v0.154h-0.292v0.76h-0.183v-0.76h-0.293v-0.154H166.581z M167.567,22.05l-0.035-0.537
		c0-0.07,0-0.158-0.002-0.254h-0.011c-0.022,0.08-0.054,0.188-0.08,0.271l-0.163,0.507h-0.188l-0.167-0.521
		c-0.017-0.069-0.043-0.177-0.062-0.257h-0.01c0,0.083-0.004,0.17-0.006,0.254l-0.035,0.537h-0.175l0.066-0.914h0.271l0.158,0.449
		c0.021,0.07,0.04,0.135,0.063,0.229h0.002c0.023-0.083,0.043-0.159,0.064-0.228l0.155-0.451h0.263l0.072,0.914H167.567z"/>
</g>
</svg>
