<?xml version="1.0" encoding="utf-8"?>
<!-- Generator: Adobe Illustrator 16.0.0, SVG Export Plug-In . SVG Version: 6.00 Build 0)  -->
<!DOCTYPE svg PUBLIC "-//W3C//DTD SVG 1.1//EN" "http://www.w3.org/Graphics/SVG/1.1/DTD/svg11.dtd">
<svg version="1.1" id="Layer_1" xmlns="http://www.w3.org/2000/svg" xmlns:xlink="http://www.w3.org/1999/xlink" x="0px" y="0px"
	 width="128px" height="45px" viewBox="0 0 128 45" enable-background="new 0 0 128 45" xml:space="preserve">
<g>
	<rect x="22.78" y="13.228" fill="#D57E00" width="2.299" height="10.643"/>
	<rect x="10.35" y="13.228" fill="#D57E00" width="2.229" height="10.643"/>
	<rect x="13.346" y="13.228" fill="#D57E00" width="2.376" height="10.643"/>
	<rect x="16.49" y="13.228" fill="#D57E00" width="2.376" height="10.643"/>
	<rect x="19.633" y="13.228" fill="#D57E00" width="2.378" height="10.643"/>
	<polygon fill="#D57E00" points="24.091,12.474 11.289,12.474 17.86,8.549 	"/>
	<polygon fill="#D57E00" points="9.813,12.474 4.328,12.474 4.328,8.51 16.454,8.51 	"/>
	<polygon fill="#D57E00" points="19.217,8.51 31.029,8.51 31.029,12.474 25.511,12.474 	"/>
	<path fill="#D57E00" d="M29.338,7.759H6.021c2.283-4.003,6.647-6.705,11.657-6.705C22.688,1.054,27.053,3.755,29.338,7.759z"/>
	<path fill-rule="evenodd" clip-rule="evenodd" fill="#D57E00" d="M6.124,20.838l-0.199,0.595l0.521-0.369l0.523,0.369l-0.201-0.595
		l0.522-0.369H6.647l-0.201-0.6l-0.198,0.6H5.602L6.124,20.838z M4.327,17.455l0.521,0.369l-0.199,0.595l0.521-0.369l0.522,0.369
		l-0.199-0.595l0.523-0.369H5.37l-0.199-0.596l-0.198,0.596H4.327z M9.584,23.87H8.878l-0.199-0.592L9.2,22.911H8.556l-0.198-0.599
		l-0.201,0.599H7.512l0.522,0.367l-0.2,0.592H4.328l-0.001-6.415l0.001-2.316l0.492-0.346l0.521,0.369l-0.198-0.597l0.521-0.369
		H5.018L4.82,13.602l-0.092,0.269l-0.126,0.325H4.328v-0.969h5.256V23.87z M8.872,23.87H7.839l0.519-0.364L8.872,23.87z
		 M4.328,15.065v-0.618l0.155,0.107L4.371,14.89L4.328,15.065z"/>
	<rect x="4.328" y="24.624" fill-rule="evenodd" clip-rule="evenodd" fill="#D57E00" width="5.256" height="2.824"/>
	<rect x="25.848" y="24.624" fill-rule="evenodd" clip-rule="evenodd" fill="#D57E00" width="5.182" height="2.824"/>
	<path fill-rule="evenodd" clip-rule="evenodd" fill="#D57E00" d="M21.281,26.616l0.521-0.367h-0.645l-0.2-0.597l-0.199,0.597
		h-0.646l0.522,0.367l-0.201,0.597l0.523-0.369l0.522,0.369L21.281,26.616z M17.379,27.012l-0.146,0.437H10.35v-2.824h0.85
		l-0.149,0.439h-0.645l0.523,0.369l-0.201,0.597l0.522-0.368l0.521,0.368l-0.199-0.597l0.523-0.369h-0.646l-0.147-0.439h12.789
		l-0.147,0.439h-0.646l0.522,0.369l-0.198,0.597l0.521-0.368l0.522,0.368l-0.201-0.597l0.523-0.369h-0.645l-0.148-0.439h0.885v2.824
		h-6.91l-0.146-0.437l0.521-0.366H17.9l-0.199-0.598l-0.2,0.598h-0.646L17.379,27.012z M14.02,26.616l-0.2,0.597l0.522-0.369
		l0.521,0.369l-0.197-0.597l0.521-0.367h-0.646l-0.199-0.597l-0.198,0.597h-0.648L14.02,26.616z M17.998,27.448h-0.592l0.295-0.209
		L17.998,27.448z"/>
	<path fill-rule="evenodd" clip-rule="evenodd" fill="#D57E00" d="M29.268,20.838l0.525-0.369h-0.648l-0.198-0.6l-0.199,0.6h-0.646
		l0.522,0.369l-0.2,0.595l0.523-0.369l0.522,0.369L29.268,20.838z M27.558,23.87l-0.198-0.592l0.522-0.367h-0.646l-0.198-0.599
		l-0.2,0.599h-0.645l0.521,0.367l-0.197,0.592l0.521-0.364l0.517,0.364H27.558z M31.029,23.87h-3.472h-1.037h-0.673V13.228h5.182
		v0.969h-0.255l-0.199-0.594l-0.2,0.594h-0.646l0.522,0.369l-0.2,0.597l0.523-0.369l0.454,0.322v2.34h-0.607l-0.201-0.596
		l-0.199,0.596h-0.644l0.521,0.369l-0.2,0.595l0.522-0.369l0.523,0.369l-0.2-0.595l0.485-0.345V23.87z M31.029,14.474v0.487
		l-0.133-0.396L31.029,14.474z"/>
</g>
<g>
	<path fill-rule="evenodd" clip-rule="evenodd" fill="#002E6D" d="M42.873,16.084c1.735,0,2.952-0.443,3.748-1.163
		c1.117-0.93,1.556-2.147,1.677-3.736c0.059-0.756,0.1-4.145,0.1-4.414c0-0.272,0-3.024,0.04-3.215
		c0.059-0.233,0.119-0.777,0.856-0.777h0.818c0.1,0,0.119-0.076,0.119-0.191V2.161c0-0.058-0.02-0.133-0.2-0.133
		c-0.178,0-0.817,0.055-2.193,0.055c-1.335,0-2.254-0.055-2.453-0.055c-0.118,0-0.14,0.036-0.14,0.133v0.466
		c0,0.095,0.021,0.152,0.14,0.152h0.877c0.521,0,0.839,0.348,0.898,0.854c0.061,0.484,0.1,1.607,0.1,3.079v4.144
		c0,1.435-0.259,2.594-1.037,3.411c-0.698,0.694-1.855,1.061-2.992,1.061c-1.155,0-2.433-0.346-3.17-1.393
		c-0.46-0.657-0.619-1.568-0.64-2.458c-0.019-0.621-0.1-3.079-0.1-4.105V6.091c0-0.986,0.02-2.343,0.041-2.516
		c0.04-0.429,0.378-0.795,0.955-0.795h0.999c0.14,0,0.159-0.037,0.159-0.134V2.14c0-0.076-0.02-0.112-0.179-0.112
		c-0.221,0-1.178,0.055-2.733,0.055s-2.532-0.055-2.732-0.055c-0.159,0-0.18,0.036-0.18,0.152v0.426c0,0.136,0.021,0.173,0.14,0.173
		h0.938c0.617,0,0.757,0.312,0.757,0.989v4.61c0,2.534,0.081,3.833,0.32,4.702c0.319,1.223,1.018,2.073,2.375,2.597
		C40.838,15.947,41.834,16.084,42.873,16.084z"/>
	<path fill-rule="evenodd" clip-rule="evenodd" fill="#002E6D" d="M58.823,9.405c0-0.861-0.044-2.188,0.064-3.152
		c0.043-0.296,0.151-0.443,0.693-0.443h0.217c0.086,0,0.13-0.065,0.13-0.149V5.222c0-0.128-0.044-0.167-0.151-0.167
		c-0.151,0-0.911,0.06-1.366,0.06c-0.691,0-1.624-0.06-1.776-0.06c-0.108,0-0.151,0.039-0.151,0.104v0.502
		c0,0.108,0.043,0.149,0.151,0.149h0.367c0.369,0,0.693,0.125,0.802,0.377c0.11,0.252,0.173,1.474,0.173,1.979
		c0.045,0.673,0.067,1.325,0.067,2.523v1.39h-0.088c-0.261-0.274-2.275-2.735-2.664-3.178c-0.456-0.523-2.948-3.576-3.014-3.66
		c-0.086-0.128-0.216-0.17-0.521-0.17c-0.26,0-0.715,0.042-1.062,0.042c-0.237,0-0.585-0.021-0.865-0.042
		c-0.282,0-0.521-0.019-0.563-0.019c-0.088,0-0.131,0.06-0.131,0.125v0.505c0,0.084,0.043,0.125,0.131,0.125h0.194
		c0.607,0,1.148,0.359,1.148,1.115v2.209c0,2.377-0.044,3.867-0.065,4.121c-0.064,0.485-0.41,0.637-0.629,0.637h-0.497
		c-0.064,0-0.086,0.016-0.086,0.06V14.5c0,0.105,0.021,0.146,0.064,0.146c0.172,0,1.147-0.065,1.45-0.065
		c0.629,0,1.496,0.065,1.647,0.065c0.108,0,0.108-0.041,0.108-0.125v-0.505c0-0.084,0-0.123-0.108-0.123h-0.455
		c-0.217,0-0.454-0.235-0.52-0.718c-0.044-0.191-0.13-2.296-0.13-3.558V6.734h0.043c0.346,0.38,2.102,2.652,2.622,3.242
		c0.238,0.272,1.169,1.345,2.167,2.502c0.889,1.029,1.625,1.896,1.775,2.042c0.089,0.06,0.304,0.209,0.5,0.209
		c0.26,0,0.326-0.209,0.326-0.401V9.405z"/>
	<path fill-rule="evenodd" clip-rule="evenodd" fill="#002E6D" d="M63.542,9.196c0-0.147,0.021-2.652,0.021-2.862
		c0.021-0.439,0.216-0.523,0.801-0.523h0.369c0.107,0,0.13-0.065,0.13-0.149V5.159c0-0.065-0.042-0.104-0.13-0.104
		c-0.173,0-1.278,0.06-1.906,0.06c-1.02,0.021-2.362-0.06-2.493-0.06c-0.086,0-0.129,0.039-0.129,0.125v0.481
		c0,0.084,0.021,0.149,0.129,0.149h0.392c0.91,0,1.104,0.212,1.104,0.443c0,0.291,0.043,2.395,0.043,2.733v0.927
		c0,0.715-0.021,3.388-0.043,3.576c-0.043,0.377-0.389,0.403-0.932,0.403h-0.478c-0.087,0-0.13,0.06-0.13,0.123v0.46
		c0,0.105,0.043,0.17,0.13,0.17c0.13,0,1.387-0.065,2.125-0.065c0.975,0,2.103,0.065,2.275,0.065c0.107,0,0.129-0.065,0.129-0.146
		v-0.508c0-0.06-0.021-0.099-0.129-0.099h-0.326c-0.629,0-0.889-0.298-0.932-0.783c-0.021-0.313-0.021-2.733-0.021-2.861V9.196z"/>
	<path fill-rule="evenodd" clip-rule="evenodd" fill="#002E6D" d="M85.193,9.788c-0.023,1.283,0,2.523-0.023,3.552
		c0,0.464-0.259,0.553-0.779,0.553h-0.26c-0.086,0-0.13,0.039-0.13,0.099v0.484c0,0.105,0.044,0.17,0.13,0.17
		c0.152,0,1.258-0.065,1.8-0.065c0.714,0,1.884,0.065,2.037,0.065c0.129,0,0.173-0.041,0.173-0.146v-0.508
		c0-0.06-0.044-0.099-0.13-0.099h-0.564c-0.433,0-0.562-0.235-0.606-0.531v-2.271v-0.502c0.15-0.047,0.347-0.047,0.563-0.047
		c0.91,0,1.235,0.464,2.017,1.77c0.192,0.314,1.147,2.019,1.561,2.317c0.367-0.023,0.886-0.047,1.386-0.047
		c0.216,0,0.478,0.024,0.672,0.024c0.216,0.023,0.39,0.041,0.433,0.041c0.086,0,0.13-0.065,0.13-0.146v-0.421
		c0-0.126-0.022-0.186-0.106-0.186c-0.394,0-0.672-0.026-0.976-0.235c-0.411-0.296-0.909-0.927-1.216-1.346
		c-0.887-1.22-1.321-1.872-1.819-1.977V10.29c1.711-0.586,2.559-1.429,2.559-2.88c0-0.484-0.281-1.094-0.76-1.537
		c-0.542-0.463-1.517-0.819-2.815-0.819c-0.283,0-2.168,0.06-2.429,0.06c-0.391,0-1.732-0.06-1.843-0.06
		c-0.085,0-0.129,0.039-0.129,0.104v0.502c0,0.084,0.022,0.149,0.087,0.149h0.217c0.607,0,0.8,0.23,0.823,0.652v2.021V9.788z
		 M86.84,6.188c0-0.377,0.325-0.464,0.649-0.464c0.867,0,1.475,0.194,2.061,0.551c0.389,0.251,0.713,0.816,0.713,1.45
		c0,0.547-0.368,2.188-2.773,2.188c-0.281,0-0.499-0.023-0.649-0.044V6.188z"/>
	<path fill-rule="evenodd" clip-rule="evenodd" fill="#002E6D" d="M97.017,14.835c1.971,0,3.012-1.346,3.012-2.922
		c0-1.055-0.26-1.579-0.694-2.023c-0.541-0.544-1.342-0.775-2.34-1.134c-0.411-0.146-1.191-0.464-1.517-0.864
		c-0.24-0.27-0.347-0.715-0.347-1.031c0-0.38,0.347-1.283,1.538-1.283c0.628,0,1.105,0.211,1.431,0.57
		c0.454,0.502,0.627,1.238,0.758,1.492c0.022,0.063,0.065,0.104,0.13,0.084l0.391-0.084c0.064-0.018,0.084-0.063,0.084-0.126
		c-0.02-0.298-0.215-1.665-0.215-2.356c0-0.104-0.021-0.188-0.194-0.188s-0.24,0-0.281,0.062L98.684,5.18
		c-0.042,0.105-0.152,0.084-0.368-0.044c-0.258-0.126-0.716-0.273-1.539-0.273c-0.778,0-1.472,0.191-2.036,0.631
		c-0.476,0.4-0.932,1.05-0.932,1.769c0,1.029,0.26,1.705,0.757,2.163c0.65,0.571,1.69,0.951,2.125,1.097
		c1.149,0.424,1.993,0.945,1.993,2.147c0,0.903-1.04,1.429-1.733,1.429c-0.803,0-1.517-0.421-1.842-1.049
		c-0.391-0.697-0.391-1.137-0.391-1.433c0-0.086-0.086-0.128-0.173-0.149l-0.39-0.039c-0.087,0-0.131,0.06-0.152,0.146
		c-0.021,0.337-0.173,2.019-0.237,2.607c-0.021,0.107,0.043,0.191,0.172,0.233c0.174,0.042,0.282,0,0.327-0.105l0.063-0.167
		c0.045-0.172,0.173-0.152,0.323-0.044C95.152,14.476,95.91,14.835,97.017,14.835z"/>
	<path fill-rule="evenodd" clip-rule="evenodd" fill="#002E6D" d="M103.698,9.196c0-0.147,0.022-2.652,0.022-2.862
		c0.021-0.439,0.217-0.523,0.802-0.523h0.367c0.108,0,0.131-0.065,0.131-0.149V5.159c0-0.065-0.043-0.104-0.131-0.104
		c-0.173,0-1.278,0.06-1.907,0.06c-1.018,0.021-2.362-0.06-2.491-0.06c-0.087,0-0.13,0.039-0.13,0.125v0.481
		c0,0.084,0.021,0.149,0.13,0.149h0.391c0.908,0,1.104,0.212,1.104,0.443c0,0.291,0.044,2.395,0.044,2.733v0.927
		c0,0.715-0.021,3.388-0.044,3.576c-0.044,0.377-0.391,0.403-0.932,0.403h-0.477c-0.087,0-0.13,0.06-0.13,0.123v0.46
		c0,0.105,0.043,0.17,0.13,0.17c0.129,0,1.387-0.065,2.124-0.065c0.975,0,2.102,0.065,2.275,0.065c0.107,0,0.129-0.065,0.129-0.146
		v-0.508c0-0.06-0.021-0.099-0.129-0.099h-0.325c-0.628,0-0.89-0.298-0.932-0.783c-0.022-0.313-0.022-2.733-0.022-2.861V9.196z"/>
	<path fill-rule="evenodd" clip-rule="evenodd" fill="#002E6D" d="M46.596,21.327c1.989,0,3.183-2.652,3.183-4.112
		c0-0.909-0.549-1.561-1.469-1.561c-1.822,0-3.125,2.275-3.125,3.956C45.185,20.621,45.843,21.327,46.596,21.327z M46.392,20.689
		c-0.331,0-0.631-0.251-0.631-0.681c0-0.625,0.33-1.437,0.795-2.157c0.685-1.078,1.412-1.583,1.987-1.583
		c0.452,0,0.7,0.335,0.687,0.746C49.229,17.893,47.816,20.689,46.392,20.689z"/>
	<g>
		<path fill-rule="evenodd" clip-rule="evenodd" fill="#002E6D" d="M68.763,21.665c0-0.146,0.021-2.652,0.021-2.861
			c0.021-0.442,0.214-0.529,0.8-0.529h0.369c0.108,0,0.13-0.061,0.13-0.146v-0.502c0-0.063-0.044-0.108-0.13-0.108
			c-0.173,0-1.277,0.066-1.906,0.066c-1.021,0.021-2.362-0.066-2.493-0.066c-0.086,0-0.129,0.045-0.129,0.126v0.484
			c0,0.086,0.021,0.146,0.129,0.146h0.392c0.909,0,1.105,0.212,1.105,0.445c0,0.292,0.041,2.396,0.041,2.733v0.93
			c0,0.712-0.02,3.385-0.041,3.575c-0.044,0.378-0.392,0.398-0.934,0.398h-0.476c-0.088,0-0.13,0.061-0.13,0.126v0.464
			c0,0.107,0.042,0.168,0.13,0.168c0.13,0,1.384-0.061,2.122-0.061c0.976,0,2.102,0.061,2.275,0.061
			c0.111,0,0.131-0.061,0.131-0.147v-0.505c0-0.062-0.02-0.105-0.131-0.105h-0.324c-0.627,0-0.89-0.293-0.931-0.777
			c-0.021-0.316-0.021-2.738-0.021-2.861V21.665z"/>
		<path fill-rule="evenodd" clip-rule="evenodd" fill="#002E6D" d="M72.051,22.257c-0.022,1.283,0,2.521-0.022,3.553
			c0,0.461-0.261,0.547-0.779,0.547h-0.261c-0.087,0-0.131,0.043-0.131,0.105v0.484c0,0.107,0.044,0.168,0.131,0.168
			c0.152,0,1.257-0.061,1.8-0.061c0.713,0,1.883,0.061,2.036,0.061c0.131,0,0.175-0.043,0.175-0.147v-0.505
			c0-0.062-0.044-0.105-0.132-0.105h-0.564c-0.432,0-0.562-0.232-0.605-0.523v-2.275v-0.505c0.151-0.042,0.348-0.042,0.563-0.042
			c0.911,0,1.235,0.467,2.016,1.768c0.193,0.316,1.147,2.019,1.561,2.314c0.367-0.021,0.889-0.039,1.387-0.039
			c0.216,0,0.477,0.018,0.669,0.018c0.219,0.021,0.393,0.043,0.436,0.043c0.088,0,0.131-0.061,0.131-0.147v-0.422
			c0-0.128-0.021-0.188-0.109-0.188c-0.391,0-0.671-0.021-0.974-0.232c-0.413-0.291-0.911-0.922-1.215-1.346
			c-0.889-1.221-1.322-1.871-1.82-1.977V22.76c1.713-0.592,2.558-1.433,2.558-2.885c0-0.482-0.281-1.094-0.759-1.534
			c-0.542-0.464-1.516-0.823-2.816-0.823c-0.283,0-2.168,0.066-2.428,0.066c-0.389,0-1.733-0.066-1.843-0.066
			c-0.085,0-0.128,0.045-0.128,0.108v0.502c0,0.086,0.021,0.146,0.086,0.146h0.217c0.604,0,0.801,0.233,0.823,0.655v2.021V22.257z
			 M73.821,18.655c0-0.38,0.325-0.461,0.65-0.461c0.867,0,1.475,0.189,2.06,0.544c0.39,0.254,0.714,0.823,0.714,1.453
			c0,0.547-0.368,2.191-2.773,2.191c-0.28,0-0.499-0.024-0.65-0.045V18.655z"/>
		<path fill-rule="evenodd" clip-rule="evenodd" fill="#002E6D" d="M88.317,24.189c0-0.358,0.412-0.44,0.627-0.44h0.37
			c0.065,0,0.109-0.064,0.109-0.128v-0.503c0-0.065-0.044-0.107-0.132-0.107c-0.087,0-1.061,0.042-1.862,0.042
			c-1.171,0-2.232-0.042-2.361-0.042c-0.089,0-0.108,0.042-0.108,0.107v0.503c0,0.063,0.02,0.106,0.108,0.106h0.519
			c0.565,0,1.062,0.147,1.062,0.632v0.777c0,0.419-0.044,0.696-0.325,0.903c-0.348,0.275-1.039,0.463-1.8,0.463
			c-0.606,0-1.471-0.313-2.078-0.947c-0.846-0.861-1.323-2.061-1.323-3.681c0-0.945,0.478-2.061,1.128-2.757
			c0.803-0.843,1.646-1.071,2.317-1.071c0.997,0,1.604,0.419,2.19,1.011c0.519,0.503,0.886,1.154,1.039,1.49
			c0.065,0.17,0.108,0.191,0.171,0.17l0.413-0.125c0.064-0.021,0.087-0.063,0.087-0.168c-0.042-0.379-0.323-2.335-0.323-2.443
			c0-0.144-0.045-0.23-0.239-0.23c-0.173,0-0.24,0.06-0.281,0.149l-0.109,0.188c-0.043,0.063-0.13,0.063-0.303-0.086
			c-0.411-0.293-1.431-0.673-2.471-0.673c-1.537,0-2.86,0.442-3.879,1.285c-1.041,0.882-1.603,2.165-1.603,3.451
			c0,1.639,0.433,2.778,1.299,3.702c1.02,1.095,2.752,1.537,3.88,1.537c1.387,0,2.557-0.296,3.706-0.843
			c0.15-0.062,0.236-0.126,0.236-0.231c0-0.106-0.064-0.232-0.064-0.421V24.189z"/>
		<path fill-rule="evenodd" clip-rule="evenodd" fill="#002E6D" d="M92.547,21.665c0-0.146,0.02-2.652,0.02-2.861
			c0.023-0.442,0.218-0.529,0.804-0.529h0.367c0.109,0,0.13-0.061,0.13-0.146v-0.502c0-0.063-0.043-0.108-0.13-0.108
			c-0.173,0-1.279,0.066-1.907,0.066c-1.017,0.021-2.361-0.066-2.491-0.066c-0.086,0-0.131,0.045-0.131,0.126v0.484
			c0,0.086,0.022,0.146,0.131,0.146h0.392c0.91,0,1.104,0.212,1.104,0.445c0,0.292,0.043,2.396,0.043,2.733v0.93
			c0,0.712-0.021,3.385-0.043,3.575c-0.042,0.378-0.39,0.398-0.931,0.398h-0.478c-0.087,0-0.132,0.061-0.132,0.126v0.464
			c0,0.107,0.045,0.168,0.132,0.168c0.132,0,1.388-0.061,2.123-0.061c0.977,0,2.103,0.061,2.275,0.061
			c0.109,0,0.131-0.061,0.131-0.147v-0.505c0-0.062-0.021-0.105-0.131-0.105h-0.323c-0.63,0-0.89-0.293-0.935-0.777
			c-0.02-0.316-0.02-2.738-0.02-2.861V21.665z"/>
		<path fill-rule="evenodd" clip-rule="evenodd" fill="#002E6D" d="M104.214,21.875c0-0.864-0.044-2.187,0.064-3.155
			c0.044-0.299,0.149-0.445,0.692-0.445h0.22c0.085,0,0.128-0.061,0.128-0.146v-0.44c0-0.125-0.043-0.17-0.153-0.17
			c-0.15,0-0.909,0.066-1.364,0.066c-0.693,0-1.625-0.066-1.776-0.066c-0.108,0-0.151,0.045-0.151,0.108v0.502
			c0,0.11,0.043,0.146,0.151,0.146h0.369c0.366,0,0.692,0.128,0.8,0.38c0.109,0.253,0.175,1.474,0.175,1.976
			c0.044,0.676,0.064,1.328,0.064,2.526v1.389h-0.087c-0.26-0.271-2.274-2.734-2.666-3.176c-0.454-0.526-2.947-3.577-3.011-3.66
			c-0.088-0.125-0.217-0.17-0.521-0.17c-0.26,0-0.716,0.045-1.06,0.045c-0.242,0-0.588-0.021-0.869-0.045
			c-0.281,0-0.52-0.021-0.563-0.021c-0.087,0-0.13,0.066-0.13,0.126v0.508c0,0.086,0.043,0.123,0.13,0.123h0.196
			c0.607,0,1.147,0.359,1.147,1.118v2.21c0,2.377-0.043,3.872-0.064,4.123c-0.066,0.484-0.413,0.631-0.628,0.631h-0.499
			c-0.065,0-0.088,0.021-0.088,0.061v0.55c0,0.104,0.022,0.147,0.066,0.147c0.173,0,1.148-0.061,1.453-0.061
			c0.627,0,1.492,0.061,1.644,0.061c0.111,0,0.111-0.043,0.111-0.129v-0.503c0-0.083,0-0.126-0.111-0.126h-0.455
			c-0.215,0-0.455-0.232-0.519-0.717c-0.043-0.187-0.131-2.293-0.131-3.553v-2.882h0.044c0.347,0.377,2.104,2.649,2.622,3.238
			c0.239,0.275,1.171,1.345,2.167,2.503c0.888,1.033,1.627,1.895,1.776,2.039c0.088,0.068,0.304,0.215,0.499,0.215
			c0.26,0,0.326-0.215,0.326-0.403V21.875z"/>
	</g>
	<path fill="#002E6D" d="M51.309,16.374h-1.221c-0.068,0-0.102-0.065-0.074-0.159l0.055-0.225c0.027-0.094,0.122-0.309,0.231-0.309
		h1.192c0.412-1.144,0.812-2.076,1.537-2.861c0.385-0.424,1.139-0.903,2.031-0.903c0.795,0,1.233,0.463,1.233,0.785
		c0,0.411-0.274,0.61-0.548,0.61c-0.439,0-0.563-0.238-0.604-0.531c-0.013-0.133-0.152-0.385-0.563-0.385
		c-1.275,0-1.55,1.759-2.003,3.249c0,0,1.906,0.05,3.462,0.05c1.677,0,2.572-0.061,2.751-0.061c0.182,0,0.201,0.061,0.201,0.139
		v0.442c0,0.1-0.02,0.175-0.159,0.175h-0.958c-0.56,0-0.839,0.173-0.839,0.505c0,0.152,0.021,0.385,0.081,0.657
		c0.119,0.697,0.856,3,1.216,4.087c0.238,0.735,1.397,4.065,1.855,5.246c0.458-0.908,2.015-4.898,2.174-5.344
		c0.201-0.521,0.958-2.751,1.258-3.6c0.158-0.487,0.277-0.835,0.277-1.104c0-0.233-0.14-0.448-0.638-0.448H62.74
		c-0.081,0-0.101-0.058-0.101-0.175v-0.442c0-0.1,0.02-0.139,0.12-0.139c0.179,0,1.097,0.061,2.353,0.061
		c1.456,0,1.956-0.061,2.135-0.061c0.12,0,0.141,0.04,0.141,0.139v0.484c0,0.076-0.021,0.134-0.141,0.134h-0.539
		c-0.657,0-1.037,0.312-1.416,0.756c-0.518,0.621-2.113,4.59-2.452,5.401c-0.241,0.641-2.814,6.799-2.913,6.993
		c-0.081,0.154-0.18,0.252-0.278,0.252c-0.16,0-0.241-0.197-0.339-0.445c-0.638-1.783-2.254-6.197-2.514-6.893l-0.2-0.66
		c-0.478-1.375-1.416-4.182-1.676-4.765c-0.199-0.442-0.397-0.639-0.817-0.639l-1.854-0.016c-0.357,1.079-0.986,3.357-1.672,5.061
		c-0.838,2.076-1.811,3.555-3.277,3.555c-0.55,0-0.989-0.358-0.989-0.788c0-0.304,0.234-0.57,0.591-0.57
		c0.398,0,0.604,0.371,0.643,0.6c0.029,0.133,0.125,0.225,0.236,0.225c0.658,0,1.397-1.118,2.138-3.581L51.309,16.374z"/>
	<path fill="#002E6D" d="M105.524,5.022c0.026-0.021,0.019-0.021,0.084-0.013c0.339,0.037,1.567,0.149,3.947,0.149h0.868
		c0.709,0,1.472-0.029,2.296-0.063c0.417-0.01,2.961,0.019,3.481,0.019c0.477,0,1.95-0.06,2.102-0.06
		c0.086,0,0.153,0.039,0.153,0.146v0.46c0,0.084-0.023,0.149-0.153,0.149h-0.325c-0.391,0-0.41,0.23-0.325,0.359
		c0.129,0.188,1.929,2.984,2.275,3.487c0.325-0.521,2.123-3.068,2.211-3.235c0.174-0.338,0.193-0.61-0.282-0.61h-0.347
		c-0.107,0-0.151-0.065-0.151-0.149v-0.46c0-0.086,0.044-0.146,0.151-0.146c0.13,0,1.215,0.06,1.862,0.06
		c0.393,0,1.151-0.06,1.281-0.06c0.106,0,0.151,0.039,0.151,0.167v0.439c0,0.108-0.045,0.149-0.131,0.149h-0.217
		c-0.347,0-0.586,0.062-0.781,0.165c-0.324,0.173-2.838,3.602-3.336,4.338v1.767c0.021,0.526,0,1.094,0.042,1.346
		c0.045,0.439,0.392,0.466,0.781,0.466h0.282c0.108,0,0.15,0.039,0.15,0.099V14.5c0,0.081-0.042,0.146-0.172,0.146
		c-0.132,0-1.345-0.065-2.058-0.065c-0.478,0-1.734,0.065-1.865,0.065c-0.107,0-0.149-0.041-0.149-0.17v-0.46
		c0-0.063,0.042-0.123,0.129-0.123h0.324c0.693,0,0.822-0.128,0.845-0.424c0.022-0.188,0.022-0.95,0.022-2.188v-0.757
		c-0.196-0.379-2.838-4.144-3.186-4.461c-0.184-0.175-0.492-0.236-0.687-0.249c0.128,0.573,0.303,1.319,0.374,1.681
		c0.021,0.083-0.024,0.128-0.108,0.167l-0.368,0.105c-0.131,0.042-0.196,0.021-0.239-0.084c-0.262-0.526-0.629-1.22-1.083-1.621
		c-0.542-0.189-2.127-0.212-2.518-0.212v3.537c0,2.21,0,3.788,0.021,3.953c0.044,0.338,0.149,0.553,0.498,0.553h0.824
		c0.108,0,0.151,0.06,0.151,0.186v0.442c0,0.06-0.043,0.125-0.151,0.125c-0.153,0-1.495-0.065-2.211-0.065
		c-0.606,0-2.017,0.065-2.189,0.065c-0.13,0-0.171-0.065-0.171-0.188v-0.422c0-0.104,0.041-0.144,0.128-0.144h0.866
		c0.327,0,0.477-0.173,0.499-0.341c0.065-0.798,0.065-1.913,0.065-3.175V5.85c-0.411,0-1.629-0.021-2.432,0.191
		c-0.54,0.398-0.996,1.073-1.277,1.62c-0.043,0.084-0.108,0.147-0.196,0.105l-0.388-0.144c-0.109-0.045-0.109-0.128-0.09-0.212
		c0.127-0.382,0.503-1.683,0.68-2.32C105.493,5.059,105.498,5.038,105.524,5.022z"/>
	<path fill="#002E6D" d="M113.522,22.739h2.948c-0.087-0.296-1.104-3.451-1.149-3.621c-0.042-0.126-0.065-0.21-0.13-0.21
		c-0.067,0-0.108,0.063-0.173,0.231C114.952,19.306,113.633,22.527,113.522,22.739z M109.025,21.665v1.053
		c0,0.123,0,2.545,0.021,2.861c0.044,0.484,0.304,0.777,0.932,0.777h0.249c0.37,0,0.716-0.209,0.891-0.441
		c0.151-0.168,1.257-2.694,1.776-3.747c0.152-0.293,1.43-3.155,1.56-3.513c0.043-0.126,0.174-0.359,0.021-0.417
		c-0.043-0.044-0.108-0.149-0.086-0.214c-0.022-0.042,0.021-0.105,0.217-0.147c0.412-0.065,1.019-0.445,1.214-0.61
		c0.043-0.086,0.13-0.147,0.259-0.147c0.13,0,0.174,0.087,0.218,0.233c0.303,0.84,1.408,3.849,1.691,4.692
		c0.323,1.049,1.256,3.534,1.407,3.741c0.281,0.38,0.649,0.57,1.018,0.57h0.413c0.087,0,0.106,0.061,0.106,0.126v0.445
		c0,0.058-0.02,0.187-0.151,0.187c-0.258,0-1.407-0.061-1.907-0.061c-0.411,0-1.689,0.061-1.971,0.061
		c-0.15,0-0.173-0.105-0.173-0.187v-0.445c0-0.065,0.022-0.126,0.107-0.126h0.347c0.261,0,0.348-0.19,0.348-0.358
		c-0.087-0.419-0.673-2.104-0.846-2.587h-3.49c-0.085,0.252-0.778,1.998-0.865,2.25c-0.13,0.424-0.066,0.695,0.39,0.695h0.542
		c0.13,0,0.151,0.061,0.151,0.146v0.464c0,0.087-0.021,0.147-0.131,0.147c-0.172,0-1.321-0.061-1.667-0.061c-0.27,0-2.927,0-3.587,0
		c-0.737,0-1.993,0.061-2.124,0.061c-0.088,0-0.131-0.061-0.131-0.168v-0.464c0-0.065,0.043-0.126,0.131-0.126h0.477
		c0.541,0,0.889-0.021,0.932-0.398c0.021-0.19,0.043-2.863,0.043-3.575v-0.93c0-0.337-0.043-2.44-0.043-2.733
		c0-0.233-0.194-0.445-1.104-0.445h-0.392c-0.106,0-0.13-0.061-0.13-0.146v-0.484c0-0.081,0.044-0.126,0.13-0.126
		c0.13,0,1.475,0.086,2.49,0.066c0.631,0,1.736-0.066,1.909-0.066c0.088,0,0.129,0.045,0.129,0.108v0.502
		c0,0.086-0.02,0.146-0.129,0.146h-0.368c-0.585,0-0.78,0.086-0.802,0.529C109.047,19.013,109.025,21.519,109.025,21.665z"/>
	<path fill="#002E6D" d="M69.39,5.201v0.484c0,0.084-0.065,0.125-0.153,0.125h-0.499c-0.279,0-0.606,0.04-0.606,0.314
		c0,0.484,0.368,1.303,0.954,3.071c0.173,0.529,0.977,2.968,1.106,3.304h0.062c0.132-0.439,1.192-3.047,1.302-3.364
		C72.379,6.8,72.66,6.229,72.66,6.022c0-0.104-0.087-0.212-0.456-0.212h-0.236c-0.086,0-0.132-0.042-0.132-0.149V5.18
		c0-0.065,0.046-0.125,0.132-0.125c0.129,0,1.256,0.06,1.755,0.06c0.36,0,2.996,0,3.312,0l4.853-0.021
		c0.217,0,0.499-0.039,0.586-0.039c0.043,0,0.087,0.039,0.13,0.293c0.043,0.19,0.65,1.997,0.693,2.146
		c0.021,0.083,0.021,0.128-0.021,0.146L82.93,7.787c-0.044,0.021-0.131,0.021-0.196-0.083c-0.044-0.063-1.083-1.241-1.453-1.579
		c-0.259-0.23-0.605-0.314-0.821-0.314l-2.298-0.042v3.576c0.13,0,1.409-0.063,1.583-0.105c0.562-0.146,0.78-0.442,0.78-1.095
		c0-0.086,0.021-0.104,0.105-0.104l0.478,0.019c0.087,0,0.153,0.044,0.13,0.128c-0.043,0.191-0.043,1.304-0.043,1.492
		c0,0.464,0.066,1.113,0.086,1.391c0,0.084-0.043,0.107-0.105,0.107l-0.456,0.039c-0.066,0-0.108,0-0.131-0.086
		c-0.107-0.524-0.238-0.859-0.801-0.987c-0.65-0.146-1.409-0.146-1.626-0.146v0.714c0,0.738,0.043,1.958,0.043,2.231
		c0,0.989,0.63,1.049,1.562,1.049c0.953,0,1.561-0.021,2.297-0.586c0.173-0.125,0.932-1.073,1.148-1.411
		c0.107-0.146,0.215-0.167,0.282-0.125l0.347,0.191c0.043,0.021,0.084,0.081,0.064,0.146l-0.78,2.228
		c-0.043,0.107-0.152,0.211-0.238,0.211c-0.152,0-1.301-0.065-5.851-0.065c-0.39,0-1.582,0.065-1.842,0.065
		c-0.108,0-0.13-0.065-0.13-0.146v-0.484c0-0.084,0.043-0.123,0.151-0.123h0.192c1.021,0,1.085-0.089,1.085-0.385v-3.173V9.031
		c0-1.118-0.021-2.487-0.041-2.697c-0.066-0.439-0.196-0.523-1.064-0.523h-0.17h-0.045h-0.301c-0.413,0-0.716,0.125-0.911,0.314
		c-0.41,0.401-1.581,3.157-1.797,3.704c-0.195,0.442-1.972,4.566-2.146,4.838c-0.064,0.108-0.173,0.168-0.348,0.168
		c-0.173,0-0.28-0.146-0.346-0.314c-0.478-1.241-1.626-4.292-1.8-4.757l-0.151-0.463c-0.368-0.966-1.019-2.88-1.169-3.092
		c-0.175-0.233-0.349-0.398-0.63-0.398h-0.218c-0.085,0-0.106-0.065-0.106-0.125V5.159c0-0.065,0.042-0.104,0.13-0.104
		c0.106,0,1.299,0.06,1.863,0.06c0.52,0,1.842-0.06,1.973-0.06C69.346,5.054,69.39,5.093,69.39,5.201z"/>
</g>
<g>
	<path fill="#002E6D" d="M4.543,36.533c0-0.233-0.038-1.513-0.057-1.647c-0.019-0.215-0.149-0.251-0.333-0.251H3.652
		c-0.036,0-0.073-0.016-0.073-0.06v-0.244c0-0.039,0.037-0.055,0.082-0.055c0.268,0,0.75,0.028,1.397,0.028
		c0.464,0,0.928-0.028,1.39-0.028c1.24,0,2.241,0.117,3.092,0.82c0.611,0.483,1.038,1.237,1.038,2.279
		c0,1.025-0.297,1.709-0.908,2.359c-0.907,0.949-2.352,0.961-2.981,0.961c-0.35,0-1.295-0.027-1.757-0.027
		c-0.816,0-1.187,0.027-1.315,0.027c-0.037,0-0.055-0.021-0.055-0.082V40.39c0-0.034,0.018-0.059,0.072-0.059h0.537
		c0.185,0,0.277-0.068,0.307-0.22c0.027-0.183,0.065-2.212,0.065-2.896V36.533z M5.709,37.415c0,0.107,0.017,1.635,0.017,2.194
		c0,0.178,0.037,0.319,0.167,0.502c0.111,0.171,0.462,0.244,0.815,0.244c0.724,0,1.464-0.316,1.926-0.911
		c0.39-0.487,0.668-1.223,0.668-2.045c0-0.723-0.315-1.498-0.742-1.963c-0.498-0.521-1.315-0.846-2.073-0.846
		c-0.204,0-0.445,0-0.594,0.091c-0.13,0.071-0.167,0.212-0.167,0.396c-0.017,0.376-0.017,1.544-0.017,1.688V37.415z"/>
	<path fill="#002E6D" d="M11.855,38.653c-0.058,0.168-0.431,1.217-0.466,1.412c-0.015,0.06-0.015,0.117-0.015,0.159
		c0,0.091,0.119,0.173,0.271,0.173h0.317c0.06,0,0.074,0.013,0.074,0.034v0.186c0,0.045-0.015,0.073-0.062,0.073
		c-0.104,0-0.421-0.021-0.947-0.021c-0.56,0-0.726,0.021-0.829,0.021c-0.048,0-0.048-0.045-0.048-0.095v-0.138
		c0-0.048,0.015-0.061,0.048-0.061h0.224c0.212,0,0.348-0.103,0.484-0.332c0.075-0.129,0.616-1.445,0.843-2.061
		c0.054-0.15,0.665-1.731,0.74-1.92c0.014-0.075,0.062-0.207,0.014-0.248c-0.021-0.023-0.044-0.068-0.044-0.09
		c0-0.031,0.016-0.057,0.076-0.072c0.241-0.061,0.656-0.281,0.746-0.367c0.046-0.044,0.075-0.073,0.112-0.073
		c0.045,0,0.078,0.089,0.091,0.134c0.136,0.453,0.725,2.092,0.86,2.561c0.181,0.57,0.664,1.935,0.769,2.131
		c0.136,0.248,0.334,0.338,0.483,0.338h0.24c0.046,0,0.062,0.013,0.062,0.049v0.158c0,0.041-0.016,0.086-0.075,0.086
		c-0.136,0-0.288-0.021-1.116-0.021c-0.636,0-0.892,0.021-1.056,0.021c-0.062,0-0.075-0.045-0.075-0.086v-0.146
		c0-0.048,0.014-0.061,0.06-0.061h0.195c0.212,0,0.271-0.076,0.228-0.272c-0.061-0.262-0.363-1.199-0.453-1.472H11.855z
		 M13.531,38.36c-0.076-0.213-0.589-1.883-0.635-2.026c-0.028-0.089-0.044-0.131-0.075-0.131c-0.044,0-0.073,0.026-0.097,0.095
		c-0.031,0.091-0.709,1.893-0.762,2.062H13.531z"/>
	<path fill="#002E6D" d="M17.483,38.751c0,0.437,0.016,1.259,0.029,1.369c0.023,0.146,0.076,0.277,0.197,0.277h0.377
		c0.045,0,0.061,0.021,0.061,0.049v0.179c0,0.05-0.023,0.065-0.085,0.065c-0.096,0-0.247-0.021-1.031-0.021
		c-0.739,0-0.92,0.021-0.997,0.021c-0.043,0-0.06-0.021-0.06-0.065v-0.167c0-0.04,0.017-0.061,0.044-0.061h0.258
		c0.166,0,0.285-0.042,0.285-0.244c0.018-0.729,0.018-1.416,0.018-2.107v-1.927c0-0.248-0.108-0.366-0.243-0.366h-0.294
		c-0.037,0-0.051-0.014-0.051-0.042v-0.199c0-0.034,0.014-0.05,0.051-0.05c0.051,0,0.294,0.021,1.033,0.021
		c0.424,0,1.116-0.021,1.343-0.021c0.604,0,1.071,0.194,1.373,0.464c0.271,0.233,0.407,0.539,0.407,0.817
		c0,0.921-0.572,1.303-1.403,1.437v0.026c0.212,0.076,0.348,0.207,0.454,0.338c0.089,0.117,0.557,0.804,0.618,0.893
		c0.044,0.076,0.526,0.732,0.642,0.838c0.143,0.123,0.353,0.136,0.533,0.136c0.045,0,0.062,0.021,0.062,0.053v0.154
		c0,0.052-0.018,0.073-0.062,0.073c-0.059,0-0.256-0.021-0.738-0.021c-0.209,0-0.498,0.014-0.665,0.021
		c-0.088-0.065-0.233-0.265-0.33-0.416c-0.137-0.209-0.43-0.736-0.497-0.851c-0.077-0.132-0.287-0.469-0.409-0.632
		c-0.187-0.254-0.361-0.455-0.678-0.455c-0.029,0-0.159,0.008-0.241,0.016V38.751z M17.499,38.088
		c0.104,0.017,0.196,0.034,0.285,0.034c1.177,0,1.418-0.926,1.418-1.262c0-0.338-0.142-0.652-0.332-0.816
		c-0.271-0.236-0.618-0.32-0.996-0.32c-0.119,0-0.21,0.008-0.271,0.045c-0.06,0.039-0.09,0.123-0.09,0.212L17.499,38.088z"/>
	<path fill="#002E6D" d="M22.143,37.3c0-0.19-0.031-1.229-0.046-1.342c-0.015-0.174-0.121-0.205-0.273-0.205h-0.405
		c-0.029,0-0.062-0.014-0.062-0.05v-0.198c0-0.027,0.032-0.043,0.068-0.043c0.22,0,0.612,0.021,1.139,0.021
		c0.378,0,0.757-0.021,1.132-0.021c1.011,0,1.826,0.098,2.52,0.663c0.498,0.397,0.844,1.016,0.844,1.861
		c0,0.835-0.24,1.396-0.739,1.921c-0.737,0.775-1.915,0.783-2.427,0.783c-0.287,0-1.056-0.021-1.434-0.021
		c-0.664,0-0.966,0.021-1.07,0.021c-0.032,0-0.046-0.016-0.046-0.065v-0.184c0-0.031,0.014-0.044,0.06-0.044h0.438
		c0.15,0,0.226-0.058,0.249-0.184c0.021-0.148,0.053-1.801,0.053-2.359V37.3z M23.093,38.018c0,0.087,0.014,1.33,0.014,1.785
		c0,0.147,0.031,0.263,0.138,0.411c0.089,0.142,0.376,0.196,0.664,0.196c0.589,0,1.189-0.257,1.566-0.738
		c0.318-0.396,0.544-0.997,0.544-1.667c0-0.587-0.256-1.218-0.604-1.598c-0.406-0.427-1.069-0.691-1.688-0.691
		c-0.165,0-0.364,0-0.481,0.076c-0.106,0.058-0.138,0.176-0.138,0.32c-0.014,0.306-0.014,1.258-0.014,1.376V38.018z"/>
	<path fill="#002E6D" d="M29.062,38.544c0.008,0.395,0.021,1.112,0.021,1.243c0,0.382,0.136,0.528,0.303,0.573
		c0.12,0.029,0.302,0.058,0.589,0.058c0.136,0,0.482-0.015,0.633-0.028c0.137-0.016,0.423-0.086,0.618-0.249
		c0.137-0.118,0.559-0.603,0.701-0.774c0.03-0.04,0.054-0.045,0.083-0.032l0.122,0.073c0.021,0.017,0.031,0.037,0.015,0.076
		l-0.362,1.094c-0.022,0.068-0.075,0.113-0.166,0.113c-0.076,0-0.664-0.021-3.182-0.021c-0.561,0-0.83,0.021-0.966,0.021
		c-0.047,0-0.062-0.016-0.062-0.058v-0.175c0-0.048,0.015-0.061,0.074-0.061h0.257c0.35,0,0.38-0.042,0.38-0.316v-1.744V37.62
		c0-0.598-0.018-1.508-0.03-1.61c-0.031-0.196-0.107-0.257-0.331-0.257h-0.288c-0.03,0-0.047-0.014-0.047-0.05v-0.191
		c0-0.034,0.008-0.05,0.047-0.05c0.164,0,0.438,0.026,1.055,0.021h0.212c0.332,0,2.065-0.016,2.397-0.016
		c0.12,0,0.264-0.006,0.303-0.006c0.038,0,0.054,0.016,0.06,0.043c0.031,0.096,0.318,1.094,0.348,1.167
		c0.016,0.039,0.007,0.063-0.023,0.075l-0.134,0.061c-0.022,0.008-0.047,0-0.069-0.033c-0.031-0.048-0.647-0.721-0.829-0.822
		c-0.16-0.09-0.362-0.184-0.573-0.191l-1.146-0.029l-0.016,2.115c0.226,0,0.769-0.016,0.86-0.033
		c0.166-0.031,0.256-0.092,0.348-0.265c0.044-0.095,0.12-0.278,0.12-0.408c0-0.047,0.029-0.061,0.06-0.061l0.196,0.014
		c0.03,0,0.053,0.016,0.045,0.06c-0.015,0.117-0.015,0.602-0.015,0.791c0,0.29,0.029,0.645,0.046,0.807
		c0,0.036-0.017,0.041-0.061,0.05l-0.167,0.028c-0.029,0.008-0.045-0.008-0.06-0.05c-0.03-0.118-0.084-0.28-0.121-0.366
		c-0.068-0.147-0.212-0.249-0.377-0.266c-0.271-0.025-0.634-0.043-0.875-0.043L29.062,38.544z"/>
	<path fill="#002E6D" d="M33.409,37.354c0,1.246,0.061,2.275,0.076,2.5c0.017,0.37,0.104,0.543,0.378,0.543h0.195
		c0.061,0,0.061,0.028,0.061,0.065v0.17c0,0.042,0,0.058-0.061,0.058c-0.076,0-0.529-0.021-0.814-0.021
		c-0.196,0-0.71,0.021-0.784,0.021c-0.029,0-0.047-0.016-0.047-0.065v-0.184c0-0.016,0.018-0.044,0.047-0.044h0.256
		c0.196,0,0.302-0.16,0.34-0.61c0.007-0.131,0.053-1.155,0.053-2.327v-0.927c0-0.442-0.258-0.78-0.59-0.78h-0.239
		c-0.031-0.006-0.046-0.021-0.046-0.05v-0.198c0-0.027,0.015-0.043,0.046-0.043c0.037,0,0.098,0.006,0.233,0.016
		c0.134,0.006,0.338,0.006,0.669,0.006c0.129,0,0.243-0.006,0.333-0.016c0.099,0,0.166-0.006,0.213-0.006
		c0.089,0,0.136,0.021,0.179,0.065c0.076,0.073,1.555,1.875,1.708,2.079c0.103,0.115,1.279,1.539,1.4,1.686h0.03V38.53
		c0-0.644,0-1.01-0.015-1.377c-0.016-0.279-0.046-0.994-0.083-1.121c-0.054-0.177-0.22-0.279-0.4-0.279h-0.241
		c-0.045,0-0.045-0.029-0.045-0.062v-0.17c0-0.043,0-0.059,0.061-0.059c0.09,0,0.332,0.021,0.846,0.021
		c0.45,0,0.631-0.021,0.724-0.021c0.059,0,0.074,0.026,0.074,0.05v0.171c0,0.041-0.016,0.07-0.045,0.07h-0.211
		c-0.152,0-0.227,0.118-0.247,0.391c-0.04,0.494-0.116,1.725-0.116,2.477v1.929c0,0.104,0,0.207-0.09,0.207
		c-0.104,0-0.197-0.06-0.257-0.115c-0.058-0.076-0.467-0.529-0.936-1.073c-0.526-0.629-1.115-1.314-1.208-1.432
		c-0.102-0.103-1.311-1.568-1.401-1.671h-0.045V37.354z"/>
	<path fill="#002E6D" d="M41.234,38.661c0.037,0,0.056,0.02,0.056,0.076c0.019,0.285,0.093,0.629,0.353,1.023
		c0.276,0.43,0.757,0.646,1.221,0.646c0.501,0,1.203-0.306,1.203-1.052c0-0.827-0.389-1.097-1.37-1.456
		c-0.297-0.107-0.906-0.359-1.349-0.756c-0.317-0.288-0.466-0.736-0.466-1.286c0-0.503,0.204-0.913,0.648-1.257
		c0.371-0.309,0.778-0.432,1.314-0.432c0.612,0,0.981,0.145,1.168,0.215c0.091,0.034,0.148,0.019,0.193-0.026l0.121-0.118
		c0.037-0.036,0.073-0.053,0.13-0.053c0.055,0,0.075,0.053,0.075,0.145c0,0.145,0.147,1.4,0.147,1.492
		c0,0.034-0.019,0.053-0.058,0.061l-0.147,0.045c-0.037,0.013-0.074,0-0.092-0.053c-0.093-0.251-0.242-0.609-0.574-0.95
		c-0.241-0.255-0.537-0.38-0.964-0.38c-0.74,0-1.036,0.573-1.036,0.908c0,0.304,0.037,0.576,0.259,0.807
		c0.241,0.236,0.759,0.45,1.13,0.561c0.536,0.162,0.98,0.34,1.335,0.701c0.295,0.304,0.462,0.684,0.462,1.283
		c0,1.097-0.742,1.994-1.964,1.994c-0.759,0-1.203-0.159-1.574-0.428c-0.108-0.071-0.166-0.109-0.222-0.109
		s-0.093,0.068-0.148,0.163c-0.056,0.089-0.092,0.107-0.167,0.107c-0.074,0-0.109-0.056-0.109-0.144
		c0.018-0.107,0.147-1.566,0.165-1.673c0.01-0.056,0.02-0.068,0.056-0.068L41.234,38.661z"/>
	<path fill="#002E6D" d="M50.604,39.476c0.022,0.021,0.029,0.045,0.014,0.07c-0.451,0.631-1.176,1.23-2.247,1.23
		c-0.966,0-1.507-0.277-1.976-0.686c-0.558-0.484-0.814-1.335-0.814-1.979c0-0.714,0.241-1.405,0.768-1.964
		c0.409-0.424,1.057-0.774,1.962-0.774c0.693,0,1.252,0.207,1.523,0.351c0.105,0.061,0.138,0.061,0.151,0l0.06-0.188
		c0.015-0.048,0.03-0.048,0.122-0.048c0.089,0,0.105,0.017,0.105,0.118c0,0.133,0.151,1.307,0.183,1.523
		c0.006,0.045,0,0.066-0.031,0.073l-0.143,0.042c-0.039,0.019-0.062-0.011-0.084-0.07c-0.092-0.262-0.271-0.629-0.589-0.953
		c-0.331-0.307-0.724-0.539-1.312-0.539c-1.208,0-1.706,1.053-1.706,2.109c0,0.451,0.136,1.317,0.693,1.901
		c0.498,0.51,0.936,0.573,1.299,0.573c0.83,0,1.486-0.403,1.803-0.852c0.038-0.049,0.069-0.072,0.091-0.049L50.604,39.476z"/>
	<path fill="#002E6D" d="M52.636,38.122c-0.081,0-0.105,0.025-0.105,0.092v0.316c0,0.262,0.016,1.113,0.028,1.619
		c0.008,0.172,0.093,0.248,0.258,0.248h0.271c0.061,0,0.075,0.013,0.075,0.049v0.171c0,0.045-0.015,0.073-0.075,0.073
		c-0.136,0-0.392-0.021-1.011-0.021c-0.739,0-0.965,0.021-1.116,0.021c-0.062,0-0.074-0.028-0.074-0.065v-0.167
		c0-0.048,0.013-0.061,0.074-0.061h0.394c0.18,0,0.21-0.173,0.21-0.346c0-0.352,0.016-1.186,0.016-1.652V37.46
		c0-0.221-0.016-1.126-0.016-1.238c0-0.366-0.045-0.469-0.287-0.469h-0.331c-0.06,0-0.075-0.029-0.075-0.062v-0.154
		c0-0.031,0.016-0.074,0.075-0.074c0.137,0,0.376,0.021,1.117,0.021c0.676,0,0.949-0.021,1.085-0.021
		c0.062,0,0.075,0.026,0.075,0.065v0.155c0,0.041-0.014,0.07-0.075,0.07h-0.272c-0.271,0-0.302,0.118-0.31,0.406
		c-0.008,0.102-0.036,1.065-0.036,1.259v0.293c0,0.071,0.024,0.103,0.091,0.103h2.489c0.12,0,0.149-0.021,0.149-0.103v-0.223
		c0-0.264-0.029-1.285-0.037-1.369c-0.007-0.233-0.038-0.366-0.203-0.366h-0.348c-0.052,0-0.061-0.021-0.061-0.062v-0.17
		c0-0.037,0.009-0.059,0.061-0.059c0.136,0,0.468,0.021,1.071,0.021c0.573,0,0.875-0.021,0.995-0.021
		c0.076,0,0.092,0.026,0.092,0.065v0.155c0,0.041-0.016,0.07-0.092,0.07h-0.272c-0.226,0-0.239,0.118-0.239,0.372
		c0,0.104-0.017,1.1-0.017,1.335v0.793c0,0.322,0.017,1.361,0.017,1.78c0,0.262,0.074,0.364,0.301,0.364h0.303
		c0.044,0,0.059,0.021,0.059,0.049v0.171c0,0.045-0.015,0.073-0.074,0.073c-0.122,0-0.378-0.021-1.026-0.021
		c-0.707,0-0.95,0.021-1.161,0.021c-0.046,0-0.062-0.037-0.062-0.065v-0.167c0-0.04,0.008-0.061,0.062-0.061h0.406
		c0.183,0,0.189-0.131,0.197-0.332c0.016-0.352,0.029-1.521,0.029-1.652v-0.207c0-0.065-0.062-0.084-0.163-0.084H52.636z"/>
	<path fill="#002E6D" d="M61.831,35.958c0.566,0.449,1.025,1.172,1.025,2.17c0,0.541-0.151,1.112-0.557,1.612
		c-0.485,0.581-1.132,1.036-2.265,1.036c-0.453,0-1.1-0.131-1.704-0.481c-0.536-0.313-1.103-1.115-1.103-2.167
		c0-0.44,0.13-1.137,0.696-1.817c0.664-0.79,1.478-0.938,2.126-0.938C60.609,35.373,61.213,35.478,61.831,35.958z M58.936,36.106
		c-0.461,0.432-0.68,1.186-0.68,1.772c0,1.903,1.206,2.579,1.841,2.579c1.521,0,1.765-1.645,1.765-2.258
		c0-1.597-1.118-2.505-1.842-2.505C59.884,35.695,59.447,35.622,58.936,36.106z"/>
	<path fill="#002E6D" d="M68.045,35.958c0.566,0.449,1.026,1.172,1.026,2.17c0,0.541-0.151,1.112-0.558,1.612
		c-0.481,0.581-1.132,1.036-2.264,1.036c-0.452,0-1.101-0.131-1.703-0.481c-0.537-0.313-1.104-1.115-1.104-2.167
		c0-0.44,0.13-1.137,0.694-1.817c0.664-0.79,1.479-0.938,2.129-0.938C66.824,35.373,67.428,35.478,68.045,35.958z M65.149,36.106
		c-0.46,0.432-0.68,1.186-0.68,1.772c0,1.903,1.209,2.579,1.84,2.579c1.523,0,1.767-1.645,1.767-2.258
		c0-1.597-1.116-2.505-1.842-2.505C66.1,35.695,65.663,35.622,65.149,36.106z"/>
	<path fill="#002E6D" d="M74.036,39.159c0.015,0.016,0.015,0.028,0.015,0.072c-0.03,0.045-0.333,1.26-0.379,1.459
		c-0.196-0.008-2.368-0.021-3.137-0.021c-0.679,0-0.95,0.021-1.042,0.021c-0.058,0-0.058-0.016-0.058-0.065v-0.167
		c0-0.048,0-0.061,0.044-0.061h0.301c0.271,0,0.318-0.103,0.318-0.196c0-0.136,0.027-1.967,0.027-2.403v-0.412
		c0-0.465-0.016-1.242-0.027-1.371c-0.018-0.188-0.047-0.262-0.242-0.262h-0.317c-0.046,0-0.06-0.042-0.06-0.062v-0.17
		c0-0.043,0.014-0.059,0.06-0.059c0.076,0,0.35,0.021,1.041,0.021c0.814,0,1.132-0.021,1.191-0.021c0.061,0,0.076,0.026,0.076,0.065
		v0.168c0,0.028-0.016,0.058-0.076,0.058h-0.405c-0.228,0-0.257,0.073-0.257,0.275c0,0.097-0.031,1.196-0.031,1.709v0.633
		c0,0.129,0,1.711,0.031,2.027h0.42c0.425,0,0.967,0,1.269-0.037c0.422-0.057,0.905-0.937,1.012-1.215
		c0.029-0.028,0.044-0.047,0.09-0.028L74.036,39.159z"/>
	<path fill="#002E6D" d="M80.229,36.119c0.546,0.433,0.99,1.131,0.99,2.093c0,0.528-0.146,1.078-0.541,1.557
		c-0.464,0.562-1.092,1.006-2.184,1.006c-0.436,0-1.062-0.129-1.645-0.469c-0.52-0.304-1.063-1.074-1.063-2.094
		c0-0.42,0.124-1.096,0.669-1.752c0.64-0.763,1.429-0.903,2.053-0.903C79.049,35.557,79.633,35.653,80.229,36.119z M77.433,36.261
		c-0.446,0.419-0.654,1.149-0.654,1.713c0,1.837,1.165,2.489,1.776,2.489c1.47,0,1.702-1.581,1.702-2.176
		c0-1.544-1.077-2.421-1.773-2.421C78.35,35.866,77.928,35.798,77.433,36.261z"/>
	<path fill="#002E6D" d="M83.147,38.175c0.205,0,0.665-0.008,0.78-0.037c0.146-0.013,0.262-0.1,0.388-0.277
		c0.057-0.092,0.103-0.23,0.13-0.361c0.008-0.029,0.029-0.055,0.061-0.055l0.143,0.01c0.03,0,0.044,0.016,0.044,0.045
		c-0.014,0.131-0.014,0.707-0.014,0.809c0,0.255,0.029,0.595,0.043,0.733c0.01,0.05-0.014,0.068-0.043,0.073l-0.161,0.026
		c-0.027,0-0.051-0.013-0.059-0.058c-0.006-0.047-0.072-0.27-0.108-0.332c-0.089-0.157-0.22-0.26-0.364-0.289
		c-0.276-0.044-0.619-0.044-0.839-0.044v1.762c0,0.199,0.06,0.228,0.235,0.228h0.39c0.046,0,0.062,0.011,0.062,0.053v0.173
		c0,0.042-0.016,0.056-0.062,0.056c-0.07,0-0.359-0.02-1.075-0.02c-0.655,0-0.934,0.02-1.035,0.02c-0.025,0-0.043-0.014-0.043-0.048
		v-0.19c0-0.032,0.018-0.043,0.043-0.043h0.293c0.175,0,0.233-0.028,0.24-0.151c0.007-0.139,0.022-1.028,0.022-2.247v-0.494
		c0-0.314-0.016-1.314-0.016-1.396c0-0.123-0.102-0.193-0.291-0.193h-0.364c-0.028,0-0.059-0.017-0.059-0.036v-0.205
		c0-0.031,0.03-0.044,0.059-0.044c0.072,0,0.349,0.022,1.18,0.022c0.102,0,2.023-0.018,2.491-0.018c0.132,0,0.245-0.026,0.276-0.026
		c0.03,0.013,0.044,0.044,0.044,0.101c0.029,0.111,0.263,1.088,0.291,1.175c0.007,0.026,0,0.047-0.022,0.055l-0.139,0.056
		c-0.028,0.015-0.042,0-0.087-0.056c-0.071-0.126-0.261-0.369-0.524-0.651c-0.114-0.154-0.307-0.283-0.496-0.324
		c-0.188-0.032-1.136-0.064-1.413-0.064V38.175z"/>
	<path fill="#002E6D" d="M88.213,36.747c0-0.322-0.019-1.418-0.028-1.572c-0.027-0.521-0.176-0.54-0.528-0.54h-0.297
		c-0.054,0-0.071-0.016-0.071-0.07v-0.207c0-0.053,0.018-0.081,0.071-0.081c0.13,0,0.574,0.037,1.354,0.028
		c0.293,0,0.851-0.028,1.351-0.028c0.701,0,1.297,0.062,1.629,0.243c0.52,0.271,0.703,0.684,0.703,1.224
		c0,0.717-0.389,1.151-1.259,1.46v0.047c1.056,0.272,1.667,0.81,1.667,1.765c0,0.487-0.279,1.135-0.719,1.367
		c-0.393,0.214-0.983,0.314-2.021,0.314c-0.373,0-0.984-0.027-1.351-0.027c-0.726,0-1.112,0.027-1.307,0.027
		c-0.037,0-0.067-0.027-0.067-0.074v-0.225c0-0.042,0.03-0.066,0.067-0.066h0.396c0.277,0,0.345-0.104,0.373-0.387
		c0.018-0.209,0.036-1.4,0.036-2.134V36.747z M89.341,37.128c0.147,0.01,0.279,0.01,0.428,0.01c0.406,0,0.775-0.1,0.981-0.264
		c0.353-0.271,0.479-0.666,0.479-1.061c0-0.343-0.109-0.699-0.406-0.92c-0.334-0.232-0.777-0.311-1.055-0.311
		c-0.096,0-0.204,0-0.28,0.018c-0.055,0.019-0.11,0.07-0.118,0.145c-0.012,0.17-0.029,0.945-0.029,1.699V37.128z M89.341,39.212
		c0,0.842,0.205,1.195,0.796,1.195c0.724,0,1.388-0.332,1.388-1.432c0-0.732-0.369-1.201-0.887-1.4
		c-0.352-0.142-0.74-0.16-1.055-0.16h-0.242v0.556V39.212z"/>
	<path fill="#002E6D" d="M93.811,36.279c0-0.241-0.059-0.354-0.247-0.354h-0.336c-0.042,0-0.058-0.017-0.058-0.065v-0.163
		c0-0.044,0.016-0.057,0.072-0.057c0.073,0,0.423,0.022,1.122,0.022c0.613,0,0.962-0.022,1.048-0.022
		c0.044,0,0.062,0.013,0.062,0.05v0.176c0,0.043-0.018,0.06-0.062,0.06h-0.305c-0.218,0-0.35,0.126-0.357,0.274
		c-0.007,0.084-0.021,0.511-0.021,0.916v0.88c0,0.352,0.006,0.854,0.021,1.079c0.021,0.324,0.083,0.654,0.254,0.877
		c0.247,0.327,0.641,0.439,0.992,0.439c0.334,0,0.742-0.125,0.973-0.34c0.277-0.268,0.427-0.678,0.427-1.197v-1.27
		c0-0.565-0.061-1.19-0.082-1.351c-0.022-0.183-0.138-0.309-0.297-0.309h-0.263c-0.046,0-0.059-0.026-0.059-0.052v-0.177
		c0-0.044,0.013-0.057,0.059-0.057c0.071,0,0.407,0.022,0.887,0.022c0.451,0,0.684-0.022,0.743-0.022
		c0.064,0,0.073,0.022,0.073,0.057v0.163c0,0.039-0.009,0.065-0.043,0.065H98.15c-0.264,0-0.291,0.193-0.305,0.274
		c-0.014,0.084-0.014,1.074-0.014,1.166c0,0.099-0.016,1.33-0.043,1.615c-0.046,0.576-0.221,1.016-0.613,1.35
		c-0.307,0.273-0.771,0.443-1.325,0.443c-0.351,0-0.773-0.056-1.05-0.17c-0.422-0.171-0.714-0.496-0.859-0.948
		c-0.103-0.312-0.131-0.774-0.131-1.701V36.279z"/>
	<path fill="#002E6D" d="M99.069,39.091c0.028,0,0.044,0.019,0.044,0.057c0.014,0.227,0.071,0.496,0.275,0.805
		c0.219,0.34,0.596,0.511,0.963,0.511c0.393,0,0.946-0.238,0.946-0.827c0-0.649-0.308-0.864-1.079-1.145
		c-0.234-0.086-0.713-0.285-1.062-0.594c-0.249-0.229-0.363-0.579-0.363-1.016c0-0.393,0.157-0.718,0.509-0.987
		c0.29-0.241,0.611-0.338,1.034-0.338c0.479,0,0.771,0.115,0.918,0.167c0.074,0.029,0.116,0.016,0.153-0.021l0.093-0.092
		c0.029-0.028,0.061-0.042,0.103-0.042c0.043,0,0.059,0.042,0.059,0.115c0,0.113,0.115,1.103,0.115,1.173
		c0,0.024-0.015,0.042-0.043,0.05l-0.116,0.034c-0.03,0.008-0.057,0-0.072-0.042c-0.073-0.198-0.188-0.481-0.452-0.752
		c-0.188-0.195-0.421-0.295-0.757-0.295c-0.583,0-0.817,0.455-0.817,0.715c0,0.24,0.033,0.452,0.205,0.633
		c0.189,0.186,0.599,0.356,0.89,0.442c0.422,0.126,0.772,0.268,1.048,0.548c0.234,0.243,0.365,0.539,0.365,1.014
		c0,0.861-0.585,1.57-1.545,1.57c-0.598,0-0.947-0.129-1.237-0.341c-0.088-0.055-0.131-0.084-0.175-0.084s-0.074,0.058-0.119,0.128
		c-0.043,0.068-0.07,0.084-0.13,0.084c-0.057,0-0.087-0.041-0.087-0.111c0.016-0.087,0.116-1.234,0.132-1.317
		c0.008-0.042,0.015-0.058,0.042-0.058L99.069,39.091z"/>
	<path fill="#002E6D" d="M104.029,38.379c0,0.067,0.014,1.694,0.014,1.772c0,0.228,0.116,0.256,0.291,0.256h0.305
		c0.029,0,0.061,0.011,0.061,0.053v0.173c0,0.042-0.031,0.056-0.074,0.056c-0.087,0-0.379-0.02-1.063-0.02
		c-0.729,0-1.048,0.02-1.122,0.02c-0.044,0-0.059-0.014-0.059-0.048v-0.19c0-0.032,0.015-0.043,0.059-0.043h0.292
		c0.146,0,0.303-0.016,0.335-0.206c0.016-0.1,0.029-1.626,0.029-2.011v-0.492c0-0.168-0.014-1.443-0.022-1.534
		c-0.021-0.168-0.094-0.238-0.299-0.238h-0.379c-0.043,0-0.058-0.017-0.058-0.052V35.69c0-0.037,0.015-0.05,0.043-0.05
		c0.088,0,0.467,0.022,1.181,0.022c0.697,0,0.933-0.022,1.032-0.022c0.045,0,0.061,0.031,0.061,0.062v0.163
		c0,0.043-0.029,0.06-0.061,0.06h-0.274c-0.16,0-0.276,0.052-0.276,0.188c0,0.07-0.014,1.626-0.014,1.709V38.379z"/>
	<path fill="#002E6D" d="M106.192,37.47c0,1.202,0.06,2.194,0.073,2.414c0.014,0.354,0.103,0.523,0.365,0.523h0.188
		c0.058,0,0.058,0.026,0.058,0.063v0.162c0,0.042,0,0.056-0.058,0.056c-0.073,0-0.508-0.02-0.786-0.02
		c-0.19,0-0.683,0.02-0.757,0.02c-0.029,0-0.043-0.014-0.043-0.061V40.45c0-0.017,0.014-0.043,0.043-0.043h0.247
		c0.189,0,0.291-0.156,0.329-0.586c0.007-0.128,0.05-1.121,0.05-2.252v-0.895c0-0.425-0.247-0.749-0.567-0.749h-0.233
		c-0.029-0.009-0.044-0.026-0.044-0.052v-0.189c0-0.031,0.015-0.044,0.044-0.044c0.035,0,0.094,0.005,0.226,0.013
		c0.132,0.01,0.328,0.01,0.647,0.01c0.123,0,0.234-0.01,0.32-0.018c0.094,0,0.158-0.005,0.204-0.005
		c0.086,0,0.133,0.022,0.175,0.062c0.072,0.073,1.502,1.812,1.645,2.011c0.103,0.109,1.238,1.481,1.356,1.623h0.029v-0.736
		c0-0.619,0-0.971-0.014-1.326c-0.016-0.27-0.045-0.961-0.081-1.082c-0.053-0.17-0.211-0.267-0.387-0.267h-0.232
		c-0.045,0-0.045-0.031-0.045-0.065v-0.163c0-0.044,0-0.057,0.062-0.057c0.085,0,0.318,0.022,0.813,0.022
		c0.437,0,0.611-0.022,0.701-0.022c0.056,0,0.069,0.031,0.069,0.05v0.162c0,0.042-0.014,0.073-0.043,0.073h-0.203
		c-0.146,0-0.218,0.112-0.243,0.372c-0.034,0.483-0.108,1.67-0.108,2.39v1.867c0,0.099,0,0.198-0.086,0.198
		c-0.102,0-0.189-0.057-0.248-0.112c-0.057-0.073-0.451-0.507-0.9-1.031c-0.513-0.61-1.08-1.275-1.167-1.388
		c-0.102-0.097-1.268-1.511-1.354-1.613h-0.045V37.47z"/>
	<path fill="#002E6D" d="M112.646,38.62c0.009,0.379,0.021,1.073,0.021,1.201c0,0.366,0.13,0.505,0.294,0.551
		c0.115,0.027,0.292,0.054,0.566,0.054c0.131,0,0.467-0.016,0.612-0.026c0.132-0.016,0.409-0.086,0.598-0.24
		c0.131-0.112,0.539-0.579,0.678-0.749c0.027-0.036,0.051-0.042,0.08-0.028l0.116,0.07c0.022,0.016,0.029,0.033,0.017,0.074
		l-0.352,1.057c-0.022,0.062-0.073,0.105-0.162,0.105c-0.072,0-0.641-0.02-3.071-0.02c-0.54,0-0.801,0.02-0.933,0.02
		c-0.045,0-0.058-0.014-0.058-0.056v-0.17c0-0.045,0.013-0.056,0.072-0.056h0.247c0.334,0,0.363-0.044,0.363-0.306v-1.684v-0.694
		c0-0.576-0.014-1.455-0.029-1.552c-0.027-0.194-0.102-0.246-0.319-0.246h-0.276c-0.029,0-0.045-0.017-0.045-0.052V35.69
		c0-0.037,0.006-0.05,0.045-0.05c0.16,0,0.423,0.031,1.021,0.022h0.204c0.319,0,1.993-0.018,2.314-0.018
		c0.116,0,0.255-0.005,0.292-0.005c0.035,0,0.049,0.013,0.058,0.044c0.029,0.092,0.306,1.051,0.335,1.123
		c0.017,0.042,0.008,0.063-0.021,0.074l-0.133,0.06c-0.02,0.008-0.042,0-0.065-0.034c-0.027-0.044-0.625-0.693-0.8-0.793
		c-0.155-0.084-0.35-0.173-0.553-0.184l-1.107-0.031l-0.016,2.045c0.219,0,0.744-0.014,0.831-0.034
		c0.161-0.026,0.247-0.087,0.334-0.251c0.045-0.095,0.116-0.273,0.116-0.398c0-0.042,0.031-0.061,0.061-0.061l0.188,0.019
		c0.027,0,0.051,0.011,0.042,0.056c-0.015,0.111-0.015,0.578-0.015,0.764c0,0.28,0.031,0.621,0.046,0.775
		c0,0.037-0.015,0.041-0.06,0.053l-0.16,0.025c-0.028,0.011-0.042-0.005-0.058-0.05c-0.029-0.112-0.08-0.267-0.116-0.351
		c-0.064-0.144-0.204-0.241-0.363-0.257c-0.264-0.028-0.613-0.044-0.847-0.044L112.646,38.62z"/>
	<path fill="#002E6D" d="M116.392,39.091c0.031,0,0.043,0.019,0.043,0.057c0.015,0.227,0.075,0.496,0.28,0.805
		c0.218,0.34,0.593,0.511,0.959,0.511c0.395,0,0.948-0.238,0.948-0.827c0-0.649-0.306-0.864-1.08-1.145
		c-0.234-0.086-0.712-0.285-1.063-0.594c-0.246-0.229-0.363-0.579-0.363-1.016c0-0.393,0.16-0.718,0.511-0.987
		c0.289-0.241,0.61-0.338,1.034-0.338c0.48,0,0.772,0.115,0.915,0.167c0.073,0.029,0.116,0.016,0.153-0.021l0.096-0.092
		c0.028-0.028,0.058-0.042,0.104-0.042c0.041,0,0.059,0.042,0.059,0.115c0,0.113,0.114,1.103,0.114,1.173
		c0,0.024-0.014,0.042-0.042,0.05l-0.117,0.034c-0.027,0.008-0.06,0-0.073-0.042c-0.072-0.198-0.19-0.481-0.451-0.752
		c-0.19-0.195-0.421-0.295-0.757-0.295c-0.584,0-0.818,0.455-0.818,0.715c0,0.24,0.032,0.452,0.205,0.633
		c0.189,0.186,0.597,0.356,0.889,0.442c0.424,0.126,0.771,0.268,1.051,0.548c0.232,0.243,0.361,0.539,0.361,1.014
		c0,0.861-0.581,1.57-1.543,1.57c-0.597,0-0.947-0.129-1.237-0.341c-0.089-0.055-0.133-0.084-0.176-0.084s-0.072,0.058-0.116,0.128
		c-0.043,0.068-0.071,0.084-0.131,0.084c-0.057,0-0.088-0.041-0.088-0.111c0.016-0.087,0.115-1.234,0.131-1.317
		c0.007-0.042,0.017-0.058,0.045-0.058L116.392,39.091z"/>
	<path fill="#002E6D" d="M120.317,39.091c0.031,0,0.043,0.019,0.043,0.057c0.014,0.227,0.075,0.496,0.279,0.805
		c0.218,0.34,0.594,0.511,0.959,0.511c0.396,0,0.949-0.238,0.949-0.827c0-0.649-0.307-0.864-1.081-1.145
		c-0.233-0.086-0.711-0.285-1.062-0.594c-0.246-0.229-0.364-0.579-0.364-1.016c0-0.393,0.161-0.718,0.511-0.987
		c0.289-0.241,0.611-0.338,1.034-0.338c0.481,0,0.772,0.115,0.917,0.167c0.071,0.029,0.116,0.016,0.153-0.021l0.095-0.092
		c0.029-0.028,0.058-0.042,0.103-0.042c0.041,0,0.059,0.042,0.059,0.115c0,0.113,0.115,1.103,0.115,1.173
		c0,0.024-0.015,0.042-0.042,0.05l-0.118,0.034c-0.027,0.008-0.059,0-0.072-0.042c-0.073-0.198-0.191-0.481-0.45-0.752
		c-0.19-0.195-0.423-0.295-0.759-0.295c-0.583,0-0.816,0.455-0.816,0.715c0,0.24,0.03,0.452,0.204,0.633
		c0.189,0.186,0.597,0.356,0.89,0.442c0.422,0.126,0.771,0.268,1.049,0.548c0.232,0.243,0.362,0.539,0.362,1.014
		c0,0.861-0.582,1.57-1.543,1.57c-0.597,0-0.946-0.129-1.238-0.341c-0.088-0.055-0.132-0.084-0.175-0.084s-0.073,0.058-0.116,0.128
		c-0.043,0.068-0.07,0.084-0.132,0.084c-0.055,0-0.086-0.041-0.086-0.111c0.016-0.087,0.113-1.234,0.129-1.317
		c0.008-0.042,0.019-0.058,0.046-0.058L120.317,39.091z"/>
</g>
<line fill="none" stroke="#D57E00" stroke-width="0.7731" x1="1" y1="32.012" x2="127" y2="32.012"/>
<line fill="none" stroke="#D57E00" stroke-width="0.7731" x1="1" y1="43.56" x2="127" y2="43.56"/>
</svg>
