<?xml version="1.0" encoding="utf-8"?>
<!-- Generator: Adobe Illustrator 16.0.0, SVG Export Plug-In . SVG Version: 6.00 Build 0)  -->
<!DOCTYPE svg PUBLIC "-//W3C//DTD SVG 1.1//EN" "http://www.w3.org/Graphics/SVG/1.1/DTD/svg11.dtd">
<svg version="1.1" id="Layer_1" xmlns="http://www.w3.org/2000/svg" xmlns:xlink="http://www.w3.org/1999/xlink" x="0px" y="0px"
	 width="237px" height="71px" viewBox="0 0 237 71" enable-background="new 0 0 237 71" xml:space="preserve">
<polygon fill="#231F20" points="71.94,18.354 75.402,18.354 75.402,23.334 80.557,23.334 80.557,18.354 84.02,18.354 84.02,32.204 
	80.557,32.204 80.557,26.368 75.402,26.368 75.402,32.204 71.94,32.204 "/>
<path fill="#231F20" d="M93.004,18.355h3.579l5.232,13.848H98.1l-0.698-2.178h-5.117l-0.701,2.178h-3.695L93.004,18.355z
	 M96.563,27.458l-1.712-5.719h-0.038l-1.713,5.719H96.563z"/>
<path fill="#231F20" d="M105.686,18.354h6.924c3.112,0,5.019,1.44,5.019,4.551c0,1.79-1.127,3.229-2.858,3.736l3.17,5.562h-3.869
	l-2.724-4.979h-2.198v4.979h-3.463V18.354z M109.148,24.658h3.17c1.109-0.021,1.848-0.584,1.848-1.868
	c0-1.283-0.738-1.848-1.848-1.865h-3.17V24.658z"/>
<polygon fill="#231F20" points="120.973,18.354 124.647,18.354 127.468,28.235 127.508,28.235 130.425,18.354 134.063,18.354 
	129.277,32.204 125.602,32.204 "/>
<path fill="#231F20" d="M141.005,18.355h3.579l5.233,13.848h-3.715l-0.701-2.178h-5.115l-0.702,2.178h-3.694L141.005,18.355z
	 M144.563,27.458l-1.712-5.719h-0.037l-1.713,5.719H144.563z"/>
<path fill="#231F20" d="M153.686,18.354h6.924c3.113,0,5.019,1.44,5.019,4.551c0,1.79-1.127,3.229-2.858,3.736l3.171,5.562h-3.87
	l-2.725-4.979h-2.197v4.979h-3.463V18.354z M157.148,24.658h3.171c1.108-0.021,1.846-0.584,1.846-1.868
	c0-1.283-0.737-1.848-1.846-1.865h-3.171V24.658z"/>
<path fill="#231F20" d="M170.1,18.354h5.37c4.221,0,7.06,2.004,7.06,6.925s-2.839,6.924-7.06,6.924h-5.37V18.354z M173.562,29.287
	h1.984c2.586,0,3.521-1.771,3.521-4.007c0-2.238-0.935-4.008-3.539-4.008h-1.966V29.287z"/>
<rect x="58.7" y="0.939" fill="#B7133F" width="1.534" height="48.178"/>
<path fill="#231F20" d="M71.992,38.947h4.87c2.016,0,3.374,0.7,3.374,2.562c0,1.274-0.729,1.946-2.086,2.253v0.03
	c1.357,0.098,2.449,0.812,2.449,2.28c0,2.057-1.538,2.842-4.072,2.842h-4.535V38.947z M74.371,42.867h2.07
	c0.8,0,1.302-0.31,1.302-1.037c0-0.839-0.474-1.035-1.302-1.035h-2.07V42.867z M74.398,47.066h2.029c1.315,0,1.681-0.52,1.681-1.162
	c0-0.826-0.309-1.191-1.23-1.191h-2.479V47.066z"/>
<path fill="#231F20" d="M92.664,45.441c0,2.73-2.312,3.752-4.229,3.752c-1.903,0-4.213-1.021-4.213-3.752v-6.494h2.493v6.286
	c0,1.118,0.432,1.944,1.72,1.944c1.303,0,1.735-0.826,1.735-1.944v-6.286h2.493V45.441z"/>
<path fill="#231F20" d="M97.685,45.932c0.868,0.783,1.692,1.246,2.884,1.246c0.657,0,1.86-0.279,1.86-1.148
	c0-0.502-0.377-0.756-1.119-0.882l-2.071-0.337c-1.849-0.293-2.854-1.273-2.854-2.742c0-2.408,1.943-3.4,4.07-3.4
	c1.654,0,3.277,0.67,4.397,1.916l-1.892,1.358c-0.656-0.798-1.621-1.258-2.671-1.258c-0.576,0-1.414,0.361-1.414,1.005
	c0,0.533,0.434,0.799,1.385,0.955l0.952,0.152c1.986,0.321,3.625,0.938,3.625,2.841c0,2.997-2.7,3.556-4.563,3.556
	c-1.691,0-3.136-0.544-4.494-2.029L97.685,45.932z"/>
<rect x="108.432" y="38.946" fill="#231F20" width="2.491" height="9.968"/>
<polygon fill="#231F20" points="115.038,38.947 117.558,38.947 121.184,45.316 121.21,45.316 121.21,38.947 123.479,38.947 
	123.479,48.914 120.987,48.914 117.333,42.645 117.306,42.645 117.306,48.914 115.038,48.914 "/>
<polygon fill="#231F20" points="127.533,48.914 127.533,38.946 134.867,38.946 134.867,40.878 130.025,40.878 130.025,42.698 
	134.547,42.698 134.547,44.63 130.025,44.63 130.025,46.982 135.29,46.982 135.29,48.914 "/>
<path fill="#231F20" d="M139.695,45.932c0.869,0.783,1.693,1.246,2.884,1.246c0.658,0,1.861-0.279,1.861-1.148
	c0-0.502-0.38-0.756-1.12-0.882l-2.072-0.337c-1.846-0.293-2.854-1.273-2.854-2.742c0-2.408,1.944-3.4,4.072-3.4
	c1.652,0,3.274,0.67,4.396,1.916l-1.89,1.358c-0.658-0.798-1.623-1.258-2.676-1.258c-0.571,0-1.411,0.361-1.411,1.005
	c0,0.533,0.432,0.799,1.384,0.955l0.953,0.152c1.988,0.321,3.624,0.938,3.624,2.841c0,2.997-2.7,3.556-4.562,3.556
	c-1.694,0-3.135-0.544-4.492-2.029L139.695,45.932z"/>
<path fill="#231F20" d="M151.408,45.932c0.869,0.783,1.693,1.246,2.883,1.246c0.659,0,1.862-0.279,1.862-1.148
	c0-0.502-0.377-0.756-1.12-0.882l-2.07-0.337c-1.849-0.293-2.855-1.273-2.855-2.742c0-2.408,1.945-3.4,4.07-3.4
	c1.653,0,3.279,0.67,4.398,1.916l-1.892,1.358c-0.658-0.798-1.621-1.258-2.673-1.258c-0.573,0-1.413,0.361-1.413,1.005
	c0,0.533,0.435,0.799,1.384,0.955l0.952,0.152c1.989,0.321,3.626,0.938,3.626,2.841c0,2.997-2.7,3.556-4.562,3.556
	c-1.693,0-3.136-0.544-4.494-2.029L151.408,45.932z"/>
<path fill="#231F20" d="M167.686,45.932c0.865,0.783,1.692,1.246,2.882,1.246c0.658,0,1.862-0.279,1.862-1.148
	c0-0.502-0.379-0.756-1.121-0.882l-2.071-0.337c-1.847-0.293-2.854-1.273-2.854-2.742c0-2.408,1.944-3.4,4.071-3.4
	c1.652,0,3.275,0.67,4.396,1.916l-1.89,1.358c-0.656-0.798-1.624-1.258-2.673-1.258c-0.574,0-1.415,0.361-1.415,1.005
	c0,0.533,0.435,0.799,1.386,0.955l0.951,0.152c1.988,0.321,3.627,0.938,3.627,2.841c0,2.997-2.702,3.556-4.562,3.556
	c-1.695,0-3.135-0.544-4.494-2.029L167.686,45.932z"/>
<path fill="#231F20" d="M185.025,42.264c-0.351-0.924-1.204-1.496-2.072-1.496c-1.371,0-2.464,0.922-2.464,3.163
	c0,1.456,0.588,3.164,2.547,3.164c0.673,0,1.653-0.505,2.043-1.401l1.977,0.951c-0.854,1.555-2.338,2.549-4.02,2.549
	c-3.176,0-5.038-2.463-5.038-5.263s1.735-5.263,4.842-5.263c1.96,0,3.247,0.951,4.173,2.603L185.025,42.264z"/>
<polygon fill="#231F20" points="190.467,38.947 192.958,38.947 192.958,42.53 196.668,42.53 196.668,38.947 199.159,38.947 
	199.159,48.914 196.668,48.914 196.668,44.713 192.958,44.713 192.958,48.914 190.467,48.914 "/>
<path fill="#231F20" d="M207.82,49.193c-3.179,0-5.038-2.463-5.038-5.264c0-2.799,1.859-5.262,5.038-5.262
	c3.178,0,5.038,2.463,5.038,5.262C212.858,46.73,210.998,49.193,207.82,49.193 M207.82,40.768c-1.455,0-2.548,0.922-2.548,3.162
	c0,1.457,0.587,3.164,2.548,3.164c1.849,0,2.548-1.625,2.548-3.164C210.368,42.363,209.669,40.768,207.82,40.768"/>
<path fill="#231F20" d="M221.086,49.193c-3.177,0-5.038-2.463-5.038-5.264c0-2.799,1.861-5.262,5.038-5.262s5.039,2.463,5.039,5.262
	C226.125,46.73,224.263,49.193,221.086,49.193 M221.086,40.768c-1.454,0-2.548,0.922-2.548,3.162c0,1.457,0.589,3.164,2.548,3.164
	c1.85,0,2.55-1.625,2.55-3.164C223.636,42.363,222.936,40.768,221.086,40.768"/>
<polygon fill="#231F20" points="229.749,38.947 232.24,38.947 232.24,46.815 236.131,46.815 236.131,48.914 229.749,48.914 "/>
<path fill="#FFFFFF" d="M46.25,30.009c0,17.056-9.178,30.311-22.062,38.512C11.307,60.32,2.131,47.065,2.131,30.009H46.25z"/>
<path fill="none" stroke="#000000" stroke-width="2.435" stroke-linecap="square" d="M32.901,30.009H46.25
	c0,17.324-9.178,30.407-22.061,38.608C11.307,60.416,2.131,47.333,2.131,30.009h13.005"/>
<path d="M46.25,29.716c0,0.464-0.029,0.098-0.031,0.293c-0.32-0.162-0.709,0-1.092,0c-1.439,0-2.37,1.257-2.37,2.565
	c0,0.271,0.049,0.719,0.129,0.955c-0.299-0.139-0.632-0.226-0.98-0.226c-1.31,0-2.37,1.062-2.37,2.37
	c0,0.443,0.124,0.853,0.335,1.205c-0.36-0.221-0.781-0.353-1.233-0.353c-1.504,0-2.371,1.198-2.371,2.638
	c0,0.428,0.033,0.502,0.232,0.85c-0.363-0.225-0.723-0.316-1.18-0.316c-1.312,0-2.37,1.329-2.37,2.639
	c0,0.39,0.045,0.525,0.211,0.848c-0.319-0.162-0.631-0.167-1.015-0.167c-1.309,0-2.37,1.185-2.37,2.492c0,1.31,1.062,2.37,2.37,2.37
	c0.367,0,0.712-0.087,1.022-0.235c-0.168,0.326-0.195,0.571-0.195,0.964c0,1.309,1.061,2.37,2.37,2.37
	c0.412,0,0.717,0.02,1.055-0.166c-0.273,0.381-0.18,0.733-0.18,1.163c0,1.311,1.256,2.176,2.564,2.176
	c0.177,0,0.34-0.129,0.505-0.165c-1.895,2.854-4.306,5.764-6.78,8.136c0.483-0.443,1.1-1.105,1.1-1.812
	c0-1.338-1.085-2.424-2.422-2.424c-0.645,0-1.066,0.026-1.501,0.437c0.338-0.409,0.538-0.942,0.538-1.516
	c0-1.309-1.062-2.368-2.37-2.368c-0.573,0-1.099,0.195-1.508,0.536c0.259-0.38,0.411-0.845,0.411-1.339
	c0-1.226-0.489-2.383-2.565-2.383c-1.198,0-2.124,1.132-2.124,2.358c0,0.494,0.151,0.959,0.41,1.339
	c-0.41-0.339-0.933-0.536-1.506-0.536c-1.31,0-2.37,1.06-2.37,2.368c0,0.574,0.197,1.105,0.537,1.519
	c-0.434-0.413-1.025-0.658-1.671-0.658c-1.338,0-2.423,1.085-2.423,2.422c0,0.707,0.348,1.614,0.831,2.058
	c-2.474-2.372-4.69-4.988-6.583-7.842c0.164,0.036,0.475,0.09,0.648,0.09c1.31,0,2.37-1.059,2.37-2.369
	c0-0.432-0.125-0.84-0.326-1.188c0.338,0.186,0.717,0.289,1.129,0.289c1.31,0,2.37-1.062,2.37-2.371c0-0.392-0.101-0.76-0.27-1.086
	c0.312,0.148,0.655,0.235,1.022,0.235c1.309,0,2.37-1.061,2.37-2.37c0-1.308-1.062-2.371-2.37-2.371
	c-0.383,0-0.744,0.104-1.063,0.265c0.166-0.321,0.261-0.677,0.261-1.066c0-1.31-1.062-2.371-2.371-2.371
	c-0.457,0-0.889,0.141-1.252,0.365c0.199-0.348,0.305-0.738,0.305-1.166c0-1.309-1.061-2.371-2.37-2.371
	c-0.453,0-0.873,0.133-1.232,0.355c0.209-0.355,0.334-0.764,0.334-1.205c0-1.309-1.062-2.372-2.371-2.372
	c-0.404,0-0.79,0.118-1.125,0.296c0.178-0.331,0.274-0.694,0.274-1.098c0-1.308-1.062-2.76-2.371-2.76c-0.383,0-0.771-0.162-1.092,0
	c-0.008-0.617-0.029,0.453-0.029-0.293h13.584c-0.334,0.677-0.581,0.975-0.581,1.542c0,1.31,1.062,2.37,2.37,2.37
	c0.49,0,0.938-0.148,1.315-0.402c-0.226,0.362-0.367,0.794-0.367,1.254c0,1.31,1.061,2.371,2.37,2.371
	c0.517,0,0.995-0.166,1.385-0.449c-0.243,0.373-0.387,0.82-0.387,1.299c0,1.31,1.062,2.372,2.368,2.372
	c1.312,0,2.371-1.062,2.371-2.372c0-0.479-0.132-0.903-0.376-1.276c0.346,0.193,0.754,0.329,1.179,0.329
	c1.311,0,2.37-1.062,2.37-2.372c0-0.357-0.067-0.701-0.208-1.004c0.377,0.255,0.642,0.251,1.132,0.251
	c1.309,0,2.248-1.06,2.248-2.37c0-0.567-0.297-0.865-0.629-1.542H46.25z"/>
<path fill="#FFFFFF" d="M22.748,43.88c0.121-0.192,0.24-0.416,0.321-0.695c0.081-0.276,0.053-0.368-0.214-0.368h-0.451
	c-0.184,0-0.203,0.186-0.129,0.396c0.074,0.212,0.185,0.414,0.221,0.59c0.037,0.173,0.083,0.258,0.229,0.08"/>
<path fill="#FFFFFF" d="M25.521,43.88c-0.113-0.192-0.227-0.416-0.303-0.695c-0.077-0.276-0.051-0.368,0.201-0.368h0.426
	c0.172,0,0.19,0.186,0.121,0.396c-0.07,0.212-0.174,0.414-0.209,0.59c-0.035,0.173-0.079,0.258-0.216,0.08"/>
<path fill="#FFFFFF" d="M24.189,48.375c0.245,0,0.374-0.037,0.494-0.102c0.122-0.064,0.282-0.094,0.104-0.542
	c-0.177-0.452-0.291-0.923-0.291-1.289c0-0.368-0.004-0.425,0.01-0.562c0.029-0.285,0.252-0.339,0.281-0.01
	c0.028,0.342,0.205,1.17,0.43,1.61c0.226,0.442,0.571,0.239,0.654,0.175c0.084-0.062,0.347-0.312,0.43-0.469
	c0.085-0.156,0.127-0.291-0.083-0.496c-0.291-0.285-0.674-0.82-0.859-1.195c-0.189-0.38-0.033-0.562,0.233-0.178
	c0.261,0.378,0.589,0.745,0.887,0.977c0.153,0.117,0.234,0.167,0.364-0.009c0.131-0.175,0.365-0.561,0.3-0.956
	c-0.065-0.396-0.262-0.479-0.421-0.489c-0.26-0.017-0.715-0.001-1.035-0.294c-0.44-0.404-0.676-0.812-0.882-1.886
	c-0.102-0.546-0.346-0.692-0.616-0.692s-0.514,0.146-0.616,0.692c-0.204,1.074-0.588,1.589-1.028,1.997
	c-0.319,0.293-0.768,0.302-0.926,0.294c-0.158-0.01-0.316-0.019-0.383,0.378c-0.066,0.396,0.168,0.781,0.299,0.956
	c0.131,0.176,0.213,0.126,0.363,0.009c0.301-0.231,0.628-0.599,0.889-0.977c0.269-0.384,0.421-0.202,0.234,0.178
	c-0.188,0.375-0.57,0.91-0.859,1.195c-0.211,0.205-0.169,0.34-0.084,0.496c0.084,0.156,0.346,0.406,0.43,0.469
	c0.083,0.064,0.429,0.268,0.655-0.175c0.223-0.44,0.4-1.269,0.43-1.61c0.027-0.329,0.252-0.275,0.279,0.01
	c0.014,0.137,0.01,0.193,0.01,0.562c0,0.366-0.112,0.837-0.289,1.289c-0.178,0.448-0.02,0.478,0.102,0.542
	C23.816,48.338,23.946,48.375,24.189,48.375"/>
<path fill="#FFFFFF" d="M13.622,35.193c0.119-0.193,0.24-0.417,0.32-0.695c0.082-0.277,0.053-0.37-0.213-0.37h-0.451
	c-0.185,0-0.203,0.185-0.129,0.396c0.073,0.213,0.185,0.414,0.223,0.59c0.035,0.175,0.082,0.258,0.229,0.081"/>
<path fill="#FFFFFF" d="M16.395,35.193c-0.113-0.193-0.227-0.417-0.303-0.695c-0.075-0.277-0.051-0.37,0.201-0.37h0.426
	c0.172,0,0.189,0.185,0.121,0.396c-0.07,0.213-0.174,0.414-0.209,0.59c-0.035,0.175-0.077,0.258-0.217,0.081"/>
<path fill="#FFFFFF" d="M15.063,39.688c0.242,0,0.373-0.035,0.495-0.103c0.122-0.062,0.281-0.091,0.104-0.543
	c-0.179-0.448-0.29-0.919-0.29-1.287c0-0.369-0.006-0.422,0.009-0.562c0.028-0.284,0.254-0.338,0.281-0.008
	c0.028,0.341,0.206,1.168,0.43,1.608c0.225,0.443,0.57,0.238,0.654,0.177c0.084-0.065,0.346-0.313,0.43-0.47s0.127-0.29-0.084-0.497
	c-0.288-0.285-0.672-0.818-0.859-1.197c-0.187-0.377-0.034-0.559,0.233-0.174c0.261,0.375,0.589,0.744,0.888,0.976
	c0.15,0.115,0.232,0.165,0.364-0.01c0.13-0.175,0.365-0.562,0.301-0.958c-0.067-0.395-0.263-0.475-0.422-0.486
	c-0.261-0.018-0.717-0.002-1.036-0.294c-0.438-0.405-0.676-0.812-0.88-1.888c-0.103-0.543-0.348-0.691-0.617-0.691
	c-0.271,0-0.514,0.148-0.617,0.691c-0.203,1.076-0.589,1.594-1.028,1.996c-0.318,0.293-0.768,0.305-0.926,0.295
	c-0.159-0.009-0.318-0.018-0.384,0.377c-0.063,0.396,0.17,0.783,0.3,0.958c0.131,0.175,0.215,0.125,0.364,0.01
	c0.299-0.231,0.627-0.601,0.889-0.976c0.268-0.385,0.42-0.203,0.234,0.174c-0.188,0.379-0.57,0.912-0.86,1.197
	c-0.211,0.207-0.169,0.341-0.085,0.497c0.085,0.156,0.347,0.404,0.431,0.47c0.085,0.062,0.43,0.267,0.654-0.177
	c0.224-0.44,0.401-1.268,0.43-1.608c0.026-0.33,0.253-0.276,0.279,0.008c0.015,0.14,0.011,0.192,0.011,0.562
	c0,0.368-0.111,0.839-0.29,1.287c-0.177,0.452-0.019,0.481,0.103,0.543C14.689,39.652,14.819,39.688,15.063,39.688"/>
<path fill="#FFFFFF" d="M31.775,35.047c0.121-0.193,0.24-0.417,0.323-0.694c0.079-0.276,0.052-0.37-0.214-0.37h-0.451
	c-0.186,0-0.203,0.184-0.129,0.397c0.073,0.211,0.185,0.413,0.221,0.587c0.037,0.177,0.084,0.259,0.229,0.083"/>
<path fill="#FFFFFF" d="M34.548,35.047c-0.111-0.193-0.226-0.417-0.301-0.694c-0.076-0.276-0.05-0.37,0.201-0.37h0.425
	c0.174,0,0.189,0.184,0.12,0.397c-0.067,0.211-0.172,0.413-0.208,0.587c-0.033,0.177-0.077,0.259-0.217,0.083"/>
<path fill="#FFFFFF" d="M33.22,39.541c0.242,0,0.372-0.037,0.494-0.102c0.121-0.064,0.282-0.092,0.104-0.542
	c-0.178-0.452-0.29-0.921-0.29-1.289s-0.005-0.423,0.009-0.562c0.027-0.285,0.253-0.339,0.281-0.01
	c0.027,0.34,0.205,1.17,0.43,1.609c0.225,0.443,0.568,0.24,0.652,0.178c0.085-0.064,0.349-0.314,0.433-0.47
	c0.084-0.156,0.127-0.29-0.084-0.498c-0.29-0.285-0.673-0.819-0.862-1.194c-0.187-0.377-0.033-0.56,0.234-0.176
	c0.262,0.377,0.589,0.744,0.89,0.975c0.151,0.116,0.232,0.166,0.363-0.009s0.365-0.561,0.299-0.957
	c-0.064-0.396-0.261-0.477-0.42-0.487c-0.26-0.018-0.717-0.002-1.036-0.295c-0.439-0.404-0.676-0.812-0.881-1.886
	c-0.102-0.543-0.346-0.69-0.615-0.69c-0.271,0-0.516,0.147-0.618,0.69c-0.205,1.075-0.588,1.592-1.027,1.998
	c-0.32,0.293-0.768,0.302-0.926,0.293c-0.159-0.008-0.317-0.018-0.383,0.378c-0.066,0.396,0.166,0.782,0.301,0.957
	c0.129,0.175,0.211,0.125,0.361,0.009c0.301-0.23,0.627-0.598,0.889-0.975c0.266-0.384,0.418-0.201,0.232,0.176
	c-0.186,0.375-0.569,0.909-0.858,1.194c-0.21,0.208-0.168,0.342-0.084,0.498c0.084,0.155,0.345,0.405,0.431,0.47
	c0.082,0.062,0.428,0.266,0.654-0.178c0.224-0.439,0.402-1.27,0.43-1.609c0.028-0.329,0.252-0.275,0.28,0.01
	c0.014,0.139,0.008,0.193,0.008,0.562s-0.111,0.837-0.288,1.289c-0.178,0.45-0.02,0.478,0.103,0.542
	C32.845,39.504,32.976,39.541,33.22,39.541"/>
<path fill="#FFFFFF" d="M13.915,53.057c0.12-0.193,0.239-0.418,0.32-0.697c0.081-0.275,0.053-0.367-0.213-0.367h-0.451
	c-0.184,0-0.202,0.184-0.129,0.396c0.072,0.214,0.185,0.414,0.221,0.589c0.037,0.176,0.084,0.258,0.23,0.082"/>
<path fill="#FFFFFF" d="M16.686,53.057c-0.111-0.193-0.224-0.418-0.301-0.697c-0.076-0.275-0.049-0.367,0.202-0.367h0.424
	c0.173,0,0.19,0.184,0.122,0.396c-0.07,0.214-0.174,0.414-0.209,0.589c-0.035,0.176-0.078,0.258-0.216,0.082"/>
<path fill="#FFFFFF" d="M15.356,57.549c0.243,0,0.374-0.036,0.495-0.1c0.121-0.064,0.281-0.093,0.104-0.543
	c-0.178-0.451-0.291-0.92-0.291-1.289c0-0.367-0.003-0.422,0.01-0.562c0.027-0.284,0.254-0.34,0.281-0.009
	c0.027,0.341,0.205,1.168,0.43,1.611c0.224,0.441,0.57,0.238,0.653,0.174c0.085-0.064,0.347-0.314,0.431-0.469
	c0.084-0.156,0.127-0.29-0.084-0.498c-0.289-0.285-0.673-0.818-0.86-1.196c-0.187-0.378-0.032-0.558,0.234-0.175
	c0.261,0.378,0.588,0.746,0.888,0.978c0.15,0.115,0.233,0.165,0.365-0.012c0.13-0.173,0.364-0.561,0.298-0.956
	c-0.065-0.396-0.26-0.477-0.419-0.487c-0.262-0.019-0.718,0-1.036-0.295c-0.438-0.404-0.677-0.81-0.882-1.886
	c-0.102-0.543-0.345-0.69-0.616-0.69s-0.516,0.147-0.617,0.69c-0.204,1.076-0.588,1.592-1.027,1.997
	c-0.318,0.292-0.769,0.304-0.927,0.294c-0.158-0.011-0.316-0.02-0.383,0.377c-0.065,0.396,0.168,0.783,0.299,0.956
	c0.131,0.177,0.213,0.127,0.363,0.012c0.302-0.231,0.627-0.6,0.89-0.978c0.268-0.383,0.42-0.203,0.234,0.175
	c-0.188,0.378-0.572,0.911-0.86,1.196c-0.21,0.208-0.168,0.342-0.083,0.498c0.083,0.154,0.344,0.404,0.428,0.469
	s0.432,0.268,0.656-0.174c0.223-0.443,0.401-1.271,0.43-1.611c0.026-0.331,0.251-0.275,0.279,0.009
	c0.013,0.14,0.01,0.194,0.01,0.562c0,0.369-0.112,0.838-0.289,1.289c-0.178,0.45-0.02,0.479,0.102,0.543
	C14.981,57.513,15.112,57.549,15.356,57.549"/>
<path fill="#FFFFFF" d="M31.631,52.908c0.119-0.191,0.238-0.415,0.321-0.693c0.079-0.277,0.054-0.369-0.214-0.369h-0.451
	c-0.186,0-0.202,0.184-0.13,0.396c0.075,0.211,0.185,0.412,0.222,0.588c0.037,0.175,0.082,0.258,0.231,0.084"/>
<path fill="#FFFFFF" d="M34.403,52.908c-0.113-0.191-0.227-0.415-0.303-0.693c-0.076-0.277-0.05-0.369,0.201-0.369h0.424
	c0.174,0,0.191,0.184,0.121,0.396c-0.068,0.211-0.172,0.412-0.208,0.588c-0.033,0.175-0.077,0.258-0.216,0.084"/>
<path fill="#FFFFFF" d="M33.073,57.403c0.242,0,0.373-0.036,0.494-0.102c0.121-0.062,0.281-0.09,0.103-0.542
	c-0.175-0.449-0.288-0.919-0.288-1.288c0-0.368-0.006-0.422,0.008-0.562c0.027-0.285,0.253-0.34,0.28-0.011
	c0.028,0.343,0.206,1.17,0.431,1.611c0.225,0.442,0.57,0.239,0.653,0.175c0.085-0.064,0.348-0.312,0.432-0.47
	s0.126-0.289-0.084-0.495c-0.29-0.286-0.673-0.821-0.86-1.197c-0.188-0.377-0.034-0.561,0.232-0.176
	c0.264,0.378,0.589,0.746,0.89,0.977c0.15,0.115,0.232,0.166,0.363-0.008c0.131-0.177,0.366-0.563,0.299-0.959
	c-0.064-0.396-0.262-0.477-0.418-0.486c-0.263-0.02-0.719-0.002-1.038-0.296c-0.439-0.403-0.676-0.81-0.881-1.886
	c-0.102-0.543-0.346-0.69-0.615-0.69c-0.272,0-0.516,0.147-0.618,0.69c-0.204,1.076-0.588,1.593-1.027,1.996
	c-0.319,0.294-0.768,0.305-0.926,0.296c-0.158-0.01-0.318-0.021-0.384,0.376c-0.065,0.396,0.169,0.782,0.3,0.959
	c0.131,0.174,0.214,0.123,0.365,0.008c0.298-0.23,0.625-0.599,0.887-0.977c0.266-0.385,0.421-0.201,0.233,0.176
	c-0.188,0.376-0.569,0.911-0.859,1.197c-0.21,0.206-0.169,0.338-0.084,0.495c0.084,0.157,0.347,0.405,0.431,0.47
	c0.083,0.064,0.428,0.268,0.653-0.175c0.224-0.441,0.401-1.269,0.43-1.611c0.028-0.329,0.254-0.274,0.281,0.011
	c0.014,0.14,0.01,0.193,0.01,0.562c0,0.369-0.114,0.839-0.291,1.288c-0.179,0.452-0.019,0.479,0.103,0.542
	C32.698,57.367,32.829,57.403,33.073,57.403"/>
<rect x="2.131" y="16.201" fill="#B7133F" width="44.12" height="13.762"/>
<rect x="2.131" y="16.201" fill="none" stroke="#000000" stroke-width="2.522" width="44.12" height="13.762"/>
<path fill="#FFFFFF" d="M10.487,20.241c0-0.812,0.659-1.471,1.471-1.471h3.64v1.42h0.59c0.263,0,0.476,0.213,0.476,0.475
	c0,0.263-0.213,0.476-0.476,0.476h-0.59v3.285h0.59c0.263,0,0.476,0.214,0.476,0.477c0,0.262-0.213,0.475-0.476,0.475h-0.59v1.537
	h-4.415c-0.124,0.258-0.389,0.438-0.695,0.438c-0.309,0-0.572-0.18-0.697-0.438H5.378v-1.537H4.787
	c-0.265,0-0.476-0.213-0.476-0.475c0-0.263,0.211-0.477,0.476-0.477h0.591v-3.285H4.787c-0.265,0-0.476-0.213-0.476-0.476
	c0-0.262,0.211-0.475,0.476-0.475h0.591v-1.42h3.639C9.829,18.77,10.487,19.429,10.487,20.241"/>
<path fill="none" stroke="#000000" stroke-width="0.336" d="M10.487,20.241v5.566 M10.487,20.241c0-0.812,0.659-1.471,1.471-1.471
	h3.64v1.42h0.59c0.263,0,0.476,0.213,0.476,0.475c0,0.263-0.213,0.476-0.476,0.476h-0.59v3.285h0.59
	c0.263,0,0.476,0.214,0.476,0.477c0,0.262-0.213,0.475-0.476,0.475h-0.59v1.537h-4.415c-0.124,0.258-0.389,0.438-0.695,0.438
	c-0.309,0-0.572-0.18-0.697-0.438H5.378v-1.537H4.787c-0.265,0-0.476-0.213-0.476-0.475c0-0.263,0.211-0.477,0.476-0.477h0.591
	v-3.285H4.787c-0.265,0-0.476-0.213-0.476-0.476c0-0.262,0.211-0.475,0.476-0.475h0.591v-1.42h3.639
	C9.829,18.77,10.487,19.429,10.487,20.241z"/>
<path d="M12.066,21.905c0.009,0.145,0.055,0.172,0.199,0.172s0.182,0,0.243-0.109c0.063-0.108,0.299-0.379,0.299,0v0.505
	c0,0.379-0.269,0.136-0.316,0c-0.044-0.118-0.081-0.131-0.226-0.131s-0.208,0.014-0.217,0.158c-0.027,0.502-0.027,0.958,0,1.211
	c0.01,0.099,0.053,0.144,0.172,0.144h0.288c0.442,0,0.532-0.261,0.604-0.55c0.109-0.436,0.29-0.372,0.29-0.01v0.668
	c0,0.216-0.207,0.117-0.315,0.112l-1.379,0.001c-0.133,0-0.184,0.002-0.316,0.011c-0.132,0.009-0.154-0.099-0.072-0.171
	c0.083-0.072,0.111-0.08,0.113-0.361v-2.509c-0.002-0.281-0.03-0.29-0.113-0.362c-0.082-0.072-0.06-0.181,0.072-0.172
	c0.133,0.009,0.184,0.009,0.316,0.009h1.287c0.109-0.006,0.317-0.104,0.317,0.112V21.3c0,0.208-0.218,0.28-0.291-0.008
	c-0.071-0.29-0.071-0.587-0.514-0.587h-0.288c-0.119,0-0.148,0.045-0.154,0.144C12.039,21.292,12.054,21.67,12.066,21.905"/>
<path fill="none" stroke="#000000" stroke-width="0.336" d="M14.802,26.281l-0.82-0.731 M10.604,25.812
	c0.073-0.145,0.317-0.262,0.696-0.262h2.681v-6.727h0.207l0.613,0.633v6.825h-3.593 M10.37,25.812
	c-0.072-0.145-0.316-0.262-0.695-0.262H6.994v-6.727H6.785l-0.613,0.633v6.825h3.593 M11.184,26.915
	c0.049-0.102,0.076-0.215,0.076-0.335c0-0.426-0.345-0.772-0.772-0.772s-0.773,0.346-0.773,0.772c0,0.12,0.027,0.233,0.076,0.335
	 M6.172,26.281l0.822-0.731"/>
<path d="M8.894,23.799c-0.06,0.228-0.145,0.377-0.293,0.377s-0.189-0.158-0.25-0.387l-0.632-2.743
	c-0.061-0.281-0.094-0.29-0.191-0.362c-0.099-0.072-0.102-0.182,0.035-0.171c0.139,0.008,0.19,0.008,0.326,0.008
	c0.133,0,0.188,0,0.32-0.008c0.134-0.011,0.179,0.099,0.11,0.171s-0.097,0.081-0.038,0.362l0.366,1.735
	c0.059,0.294,0.197,0.222,0.26,0.002l0.533-1.737c0.044-0.281-0.049-0.29-0.102-0.362s-0.02-0.182,0.083-0.171
	c0.104,0.008,0.144,0.008,0.247,0.008c0.105,0,0.146,0,0.252-0.008c0.105-0.011,0.107,0.121,0.031,0.193s-0.102,0.064-0.214,0.339
	L8.894,23.799z"/>
<path fill="#FFFFFF" d="M23.848,27.352c0.308,0,0.57-0.18,0.694-0.438h3.945v-1.537h0.59c0.265,0,0.477-0.213,0.477-0.475
	c0-0.263-0.212-0.477-0.477-0.477h-0.59v-3.284h0.59c0.265,0,0.477-0.214,0.477-0.477c0-0.262-0.212-0.475-0.477-0.475h-0.59v-1.421
	h-3.169c-0.814,0-1.471,0.66-1.471,1.472c0-0.812-0.659-1.472-1.471-1.472h-3.64v1.421h-0.59c-0.265,0-0.477,0.213-0.477,0.475
	c0,0.263,0.212,0.477,0.477,0.477h0.59v3.284h-0.59c-0.265,0-0.477,0.214-0.477,0.477c0,0.262,0.212,0.475,0.477,0.475h0.59v1.537
	h4.415C23.276,27.172,23.54,27.352,23.848,27.352"/>
<path fill="none" stroke="#000000" stroke-width="0.336" d="M27.693,26.281l-0.821-0.73 M23.966,25.812
	c0.07-0.145,0.314-0.261,0.693-0.261h2.213v-6.728h0.206l0.615,0.633v6.825h-3.124 M23.848,20.241v5.566 M19.531,26.281l0.821-0.73
	 M23.729,25.812c-0.072-0.145-0.314-0.261-0.693-0.261h-2.684v-6.728h-0.207l-0.614,0.633v6.825h3.595 M24.544,26.915
	c0.048-0.102,0.076-0.215,0.076-0.335c0-0.426-0.348-0.772-0.772-0.772c-0.427,0-0.773,0.346-0.773,0.772
	c0,0.12,0.028,0.233,0.078,0.335 M23.848,27.352c0.308,0,0.57-0.18,0.694-0.438h3.945v-1.537h0.59c0.265,0,0.477-0.213,0.477-0.475
	c0-0.263-0.212-0.477-0.477-0.477h-0.59v-3.284h0.59c0.265,0,0.477-0.214,0.477-0.477c0-0.262-0.212-0.475-0.477-0.475h-0.59v-1.421
	h-3.169c-0.814,0-1.471,0.66-1.471,1.472c0-0.812-0.659-1.472-1.471-1.472h-3.64v1.421h-0.59c-0.265,0-0.477,0.213-0.477,0.475
	c0,0.263,0.212,0.477,0.477,0.477h0.59v3.284h-0.59c-0.265,0-0.477,0.214-0.477,0.477c0,0.262,0.212,0.475,0.477,0.475h0.59v1.537
	h4.415C23.276,27.172,23.54,27.352,23.848,27.352z"/>
<path d="M21.383,24.105c-0.117,0-0.253,0-0.37,0.008c-0.117,0.01-0.136-0.098-0.063-0.171c0.072-0.072,0.154-0.082,0.154-0.361
	v-2.628c0-0.117-0.01-0.18-0.109-0.262c-0.099-0.08,0.027-0.18,0.172-0.18c0.144,0,0.56,0.008,0.794,0.008
	c0.939,0,1.246,0.317,1.246,0.867c0,0.415-0.257,0.676-0.56,0.805c-0.086,0.036-0.113,0.094-0.113,0.139s0.008,0.068,0.049,0.137
	c0.041,0.066,0.61,1.189,0.688,1.295c0.077,0.104,0.122,0.148,0.176,0.188c0.033,0.026,0.032,0.158-0.157,0.158h-0.497
	c0,0-0.033,0.009-0.091-0.089c-0.059-0.099-0.735-1.54-0.799-1.644l-0.194-0.022l-0.004,1.229c0,0.279,0.078,0.271,0.16,0.342
	c0.082,0.072,0.059,0.2-0.076,0.189C21.652,24.105,21.516,24.105,21.383,24.105 M21.711,21.424l0.006,0.533
	c0,0.09,0.062,0.171,0.252,0.171s0.605-0.109,0.605-0.695c0-0.587-0.298-0.677-0.479-0.705c-0.18-0.027-0.385-0.019-0.385,0.28
	V21.424z"/>
<path d="M25.843,23.609c0.003,0.28,0.032,0.289,0.112,0.361c0.082,0.072,0.062,0.181-0.072,0.171
	c-0.133-0.008-0.184-0.008-0.317-0.008c-0.132,0-0.183,0-0.318,0.008c-0.133,0.009-0.152-0.099-0.07-0.171
	c0.082-0.072,0.112-0.081,0.114-0.361V21.1c-0.002-0.281-0.032-0.289-0.114-0.361c-0.082-0.073-0.062-0.181,0.07-0.173
	c0.136,0.011,0.187,0.011,0.318,0.011c0.134,0,0.185,0,0.317-0.011c0.135-0.008,0.154,0.1,0.072,0.173
	c-0.08,0.072-0.109,0.081-0.112,0.361V23.609z"/>
<path fill="#FFFFFF" d="M37.25,19.848c0.166-0.626,0.74-1.078,1.423-1.078h4.288v1.419h0.589c0.266,0,0.479,0.214,0.479,0.477
	c0,0.262-0.213,0.476-0.479,0.476h-0.589v3.284h0.589c0.266,0,0.479,0.214,0.479,0.476c0,0.263-0.213,0.477-0.479,0.477h-0.589
	v1.536h-5.063c-0.123,0.259-0.388,0.438-0.696,0.438c-0.307,0-0.57-0.179-0.695-0.438h-4.848v-1.536h-0.592
	c-0.262,0-0.475-0.213-0.475-0.477c0-0.262,0.213-0.476,0.475-0.476h0.592v-3.284h-0.592c-0.262,0-0.475-0.214-0.475-0.476
	c0-0.263,0.213-0.477,0.475-0.477h0.592V18.77h4.073c0.681,0,1.255,0.452,1.422,1.078H37.25z"/>
<path fill="none" stroke="#000000" stroke-width="0.336" d="M42.168,26.281l-0.822-0.731 M37.318,25.812
	c0.072-0.145,0.316-0.262,0.696-0.262h3.331v-6.727h0.208l0.614,0.633v6.825h-4.243 M37.084,25.812
	c-0.072-0.145-0.316-0.262-0.693-0.262h-3.116v-6.727h-0.207l-0.614,0.633v6.825h4.025 M37.899,26.914
	c0.049-0.102,0.074-0.215,0.074-0.335c0-0.427-0.346-0.773-0.772-0.773s-0.771,0.347-0.771,0.773c0,0.12,0.025,0.233,0.076,0.335
	 M32.453,26.281l0.821-0.731 M37.25,19.848c0.166-0.626,0.74-1.078,1.423-1.078h4.288v1.419h0.589c0.266,0,0.479,0.214,0.479,0.477
	c0,0.262-0.213,0.476-0.479,0.476h-0.589v3.284h0.589c0.266,0,0.479,0.214,0.479,0.476c0,0.263-0.213,0.477-0.479,0.477h-0.589
	v1.536h-5.063c-0.123,0.259-0.388,0.438-0.696,0.438c-0.307,0-0.57-0.179-0.695-0.438h-4.848v-1.536h-0.592
	c-0.262,0-0.475-0.213-0.475-0.477c0-0.262,0.213-0.476,0.475-0.476h0.592v-3.284h-0.592c-0.262,0-0.475-0.214-0.475-0.476
	c0-0.263,0.213-0.477,0.475-0.477h0.592V18.77h4.073c0.681,0,1.255,0.452,1.422,1.078H37.25z"/>
<path d="M37.542,23.088l0.115,0.473c0.057,0.279,0.029,0.288-0.039,0.361c-0.067,0.072-0.023,0.18,0.11,0.171
	c0.134-0.009,0.222-0.009,0.357-0.009c0.135,0,0.151,0,0.288,0.009c0.137,0.008,0.113-0.165,0.049-0.212
	c-0.1-0.072-0.101-0.134-0.169-0.32l-0.777-2.746c-0.06-0.228-0.146-0.38-0.199-0.368c-0.169,0.039-0.37,0.084-0.359,0.197
	l0.014,0.296l-0.786,2.621c-0.113,0.272-0.139,0.265-0.215,0.337c-0.075,0.072-0.073,0.203,0.032,0.195
	c0.105-0.009,0.146-0.009,0.25-0.009s0.143,0,0.248,0.009c0.102,0.008,0.137-0.1,0.082-0.171c-0.051-0.073-0.145-0.082-0.1-0.361
	l0.162-0.509c0.039-0.113,0.303-0.073,0.438-0.073C37.179,22.979,37.486,22.927,37.542,23.088 M36.939,21.795
	c0.122-0.426,0.202-0.442,0.295,0.029l0.176,0.721c0.062,0.181,0.045,0.217-0.295,0.217c-0.437,0-0.464-0.029-0.385-0.211
	L36.939,21.795z"/>
<path d="M34.907,20.542c0.183,0,0.4-0.009,0.712-0.028c0.436-0.027,0.445,0,0.445,0.127c0,0.084,0.01,0.452,0.01,0.551
	s-0.01,0.261-0.105,0.261c-0.094,0-0.133-0.108-0.189-0.261c-0.16-0.434-0.322-0.497-0.436-0.497s-0.146,0.09-0.146,0.326v2.509
	c0.003,0.279,0.032,0.289,0.118,0.362c0.086,0.071,0.064,0.198-0.076,0.188c-0.139-0.009-0.193-0.009-0.333-0.009
	s-0.193,0-0.334,0.009c-0.137,0.009-0.16-0.117-0.074-0.188c0.088-0.073,0.118-0.083,0.119-0.362v-2.509
	c0-0.236-0.031-0.326-0.146-0.326c-0.112,0-0.274,0.062-0.436,0.497c-0.057,0.153-0.092,0.261-0.188,0.261s-0.105-0.162-0.105-0.261
	s0.01-0.467,0.01-0.551c0-0.127,0.01-0.154,0.445-0.127C34.51,20.533,34.728,20.542,34.907,20.542"/>
<path d="M38.817,23.224c0-0.33,0.211-0.285,0.324,0.045c0.109,0.307,0.264,0.695,0.678,0.695c0.417,0,0.506-0.478,0.506-0.712
	c0-0.372-0.151-0.497-0.723-0.921c-0.567-0.425-0.694-0.696-0.694-1.03c0-0.333,0.324-0.858,0.848-0.858
	c0.258,0,0.387,0.022,0.52,0.123c0.02,0.015,0.195,0.026,0.23-0.022c0.055-0.073,0.162,0.019,0.162,0.116c0,0.1,0,0.534,0.01,0.687
	c0.009,0.154-0.178,0.264-0.27-0.009c-0.109-0.315-0.182-0.74-0.579-0.74c-0.34,0-0.424,0.403-0.424,0.561
	c0,0.433,0.433,0.577,0.901,0.93c0.471,0.353,0.593,0.505,0.593,0.993c0,0.533-0.505,1.083-1.07,1.083
	c-0.244,0-0.444-0.14-0.642-0.14c-0.196,0-0.186,0.073-0.257,0.073c-0.072,0-0.148-0.06-0.131-0.185
	C38.817,23.783,38.817,23.417,38.817,23.224"/>
</svg>
