<?xml version="1.0" encoding="utf-8"?>
<!-- Generator: Adobe Illustrator 16.0.0, SVG Export Plug-In . SVG Version: 6.00 Build 0)  -->
<!DOCTYPE svg PUBLIC "-//W3C//DTD SVG 1.1//EN" "http://www.w3.org/Graphics/SVG/1.1/DTD/svg11.dtd">
<svg version="1.1" id="Layer_1" xmlns="http://www.w3.org/2000/svg" xmlns:xlink="http://www.w3.org/1999/xlink" x="0px" y="0px"
	 width="173px" height="93px" viewBox="0 0 173 93" enable-background="new 0 0 173 93" xml:space="preserve">
<g id="layer1" transform="translate(-101.41113,-78.368043)">
	<path id="path114" fill="#006E4F" d="M102.411,141.328h1.554v-3.212h2.608v9.452h-1.657v1.574h5.196v-1.574h-1.656v-9.452h2.607
		v3.212h1.554v-4.784h-10.206V141.328z M121.878,142.779c0-1.967-1.039-2.652-2.407-2.652c-0.951,0-1.818,0.368-2.917,1.264v-4.847
		h-3.323v1.52h1.578v9.56h-1.598v1.52h4.849v-1.52h-1.506v-4.805c0.985-0.741,1.873-1.152,2.506-1.152
		c0.813,0,1.078,0.633,1.078,1.486v5.99h3.25v-1.52h-1.51V142.779z M131.903,146.45c-0.652,0.928-1.711,1.438-2.844,1.438
		c-1.632,0-2.745-0.99-3.005-2.696h7.373c0-3.212-2.245-5.064-4.682-5.064c-2.279,0-4.604,1.804-4.604,4.643
		c0,2.706,2.045,4.638,4.883,4.638c1.873,0,3.446-0.823,4.402-2.284L131.903,146.45z M128.785,141.518
		c1.373,0,2.599,1.016,2.878,2.408h-5.55C126.368,142.466,127.412,141.518,128.785,141.518 M146.585,142.466
		c0.98-0.486,1.56-1.451,1.56-2.677c0-1.633-1.06-3.245-3.863-3.245h-5.104v1.572h1.534v9.452h-1.534v1.574h4.937
		c3.844,0,4.657-2.134,4.657-3.578C148.771,144.084,147.978,142.946,146.585,142.466 M142.609,138.116h1.187
		c1.672,0,2.417,0.56,2.417,1.804c0,0.986-0.485,1.873-2.187,1.873h-1.417V138.116L142.609,138.116z M144.09,147.568h-1.48v-4.201
		h1.524c2.152,0,2.691,1.024,2.691,2.069C146.825,146.808,146.065,147.568,144.09,147.568 M158.331,140.387h-3.245v1.52h1.5v4.756
		c-0.779,0.687-1.784,1.107-2.505,1.107c-0.672,0-1.034-0.392-1.034-1.28v-6.103h-2.991v1.52h1.24v4.678
		c0,1.833,0.834,2.709,2.437,2.709c0.902,0,1.868-0.392,2.854-1.15v1h3.245v-1.52h-1.5V140.387z M162.321,148.662
		c0.633,0.432,1.354,0.631,2.3,0.631c2.01,0,3.362-1.078,3.362-2.676c0-0.612-0.226-1.295-0.74-1.814
		c-1.451-1.445-4.828-0.592-4.828-2.062c0-0.646,0.612-1.074,1.534-1.074c0.892,0,1.549,0.329,2.049,1.074v0.543h1.52v-2.896h-1.52
		v0.348c-0.583-0.314-1.333-0.494-2.138-0.494c-1.784,0-3.083,1.068-3.083,2.578c0,0.647,0.279,1.266,0.687,1.671
		c1.671,1.667,4.755,0.628,4.755,2.261c0,0.671-0.706,1.093-1.799,1.093c-1.157,0-1.951-0.534-2.099-1.406v-0.294h-1.544v3h1.544
		V148.662L162.321,148.662z M172.229,137.4c0-0.572-0.465-1.043-1.034-1.043c-0.578,0-1.039,0.471-1.039,1.043
		c0,0.568,0.461,1.035,1.039,1.035C171.764,138.435,172.229,137.969,172.229,137.4 M168.964,147.623v1.52h4.53v-1.52h-1.393v-7.236
		h-3.138v1.52h1.393v5.717H168.964z M184.519,149.142v-1.52h-1.505v-4.902c0-1.722-1.059-2.48-2.304-2.48
		c-0.927,0-1.819,0.347-2.99,1.206v-1.06h-3.285v1.52h1.545v5.717h-1.501v1.52h4.751v-1.52h-1.51v-4.696
		c0.896-0.702,1.818-1.114,2.524-1.114c0.711,0,1.024,0.486,1.024,1.599v5.731H184.519L184.519,149.142z M194.52,147.123L193,146.45
		c-0.652,0.928-1.711,1.438-2.839,1.438c-1.638,0-2.75-0.99-3.01-2.696h7.368c0-3.212-2.245-5.064-4.677-5.064
		c-2.279,0-4.604,1.804-4.604,4.643c0,2.706,2.044,4.638,4.883,4.638C192,149.407,193.573,148.584,194.52,147.123 M189.877,141.518
		c1.378,0,2.599,1.016,2.878,2.408h-5.55C187.47,142.466,188.504,141.518,189.877,141.518 M195.971,146.142v3h1.539v-0.48
		c0.627,0.432,1.357,0.631,2.304,0.631c2,0,3.354-1.078,3.354-2.676c0-0.612-0.226-1.295-0.74-1.814
		c-1.446-1.445-4.829-0.592-4.829-2.062c0-0.646,0.613-1.074,1.54-1.074c0.892,0,1.544,0.329,2.049,1.074v0.543h1.52v-2.896h-1.52
		v0.348c-0.578-0.314-1.339-0.494-2.143-0.494c-1.774,0-3.073,1.068-3.073,2.578c0,0.647,0.274,1.266,0.686,1.671
		c1.672,1.667,4.746,0.628,4.746,2.261c0,0.671-0.701,1.093-1.799,1.093c-1.147,0-1.941-0.534-2.094-1.406v-0.294H195.971
		L195.971,146.142z M204.471,146.142v3h1.534v-0.48c0.633,0.432,1.358,0.631,2.3,0.631c2.01,0,3.362-1.078,3.362-2.676
		c0-0.612-0.226-1.295-0.74-1.814c-1.445-1.445-4.828-0.592-4.828-2.062c0-0.646,0.612-1.074,1.539-1.074
		c0.893,0,1.544,0.329,2.044,1.074v0.543h1.521v-2.896h-1.521v0.348c-0.573-0.314-1.333-0.494-2.137-0.494
		c-1.779,0-3.074,1.068-3.074,2.578c0,0.647,0.274,1.266,0.687,1.671c1.672,1.667,4.745,0.628,4.745,2.261
		c0,0.671-0.706,1.093-1.794,1.093c-1.152,0-1.956-0.534-2.104-1.406v-0.294H204.471L204.471,146.142z M226.124,145.642
		c0-1.029-0.407-2.045-1.073-2.716c-1.471-1.461-4.49-1.294-5.477-2.284c-0.26-0.256-0.431-0.647-0.431-1.069
		c0-0.971,0.838-1.618,2.122-1.618c1.152,0,1.985,0.461,2.672,1.471v0.867h1.555v-3.805h-1.555v0.834
		c-0.853-0.65-1.813-0.98-2.828-0.98c-1.883,0-3.667,1.107-3.667,3.447c0,1.062,0.353,1.805,0.833,2.288
		c1.966,1.967,5.917,1.108,5.917,3.579c0,1.206-0.941,2.113-2.221,2.113c-1.211,0-2.142-0.725-2.937-2.078v-1.107h-1.554v4.559
		h1.554v-1.035c0.907,0.833,1.956,1.241,3.099,1.241C224.423,149.349,226.124,147.769,226.124,145.642 M235.948,146.769
		l-1.437-0.666c-0.52,1.117-1.461,1.719-2.633,1.719c-1.573,0-2.671-1.273-2.671-3.146c0-1.766,1.039-2.975,2.603-2.975
		c0.623,0,1.162,0.186,1.555,0.523c0.406,0.349,0.671,0.85,0.765,1.467h1.554v-3.305h-1.554v0.593
		c-0.652-0.56-1.521-0.853-2.471-0.853c-2.397,0-4.31,2.045-4.31,4.564c0,2.226,1.437,4.716,4.476,4.716
		C233.737,149.407,235.179,148.5,235.948,146.769 M246.914,149.142v-1.52h-1.505v-4.844c0-1.967-1.034-2.652-2.416-2.652
		c-0.941,0-1.819,0.368-2.912,1.264v-4.847h-3.319v1.52h1.574v9.56h-1.594v1.52h4.844v-1.52h-1.505v-4.805
		c0.99-0.741,1.877-1.152,2.51-1.152c0.813,0,1.078,0.633,1.078,1.486v5.99H246.914L246.914,149.142z M252.331,140.127
		c-2.651,0-4.617,1.986-4.617,4.643c0,2.651,1.966,4.638,4.603,4.638c2.633,0,4.618-1.986,4.618-4.638
		C256.935,142.113,254.969,140.127,252.331,140.127 M252.316,147.73c-1.563,0-2.745-1.261-2.745-2.961
		c0-1.695,1.182-2.977,2.745-2.977c1.574,0,2.761,1.281,2.761,2.977C255.077,146.47,253.891,147.73,252.316,147.73 M262.965,140.127
		c-2.652,0-4.618,1.986-4.618,4.643c0,2.651,1.966,4.638,4.599,4.638c2.642,0,4.622-1.986,4.622-4.638
		C267.567,142.113,265.602,140.127,262.965,140.127 M262.945,147.73c-1.555,0-2.746-1.261-2.746-2.961
		c0-1.695,1.191-2.977,2.746-2.977c1.583,0,2.765,1.281,2.765,2.977C265.71,146.47,264.528,147.73,262.945,147.73 M272.059,147.623
		v-11.079h-3.305v1.52h1.559v9.56h-1.593v1.52h4.691v-1.52H272.059z M135.967,163.118h1.48v-1.521h-1.48v-1.748
		c0-0.589,0.235-0.947,0.667-0.947c0.392,0,0.612,0.284,0.667,0.853l1.52-0.239c-0.201-1.3-1.015-2.02-2.26-2.02
		s-2.339,0.774-2.339,2.523v1.578h-1.284v1.521h1.284v5.712h-1.245v1.529h4.677v-1.529h-1.687V163.118L135.967,163.118z
		 M143.075,161.34c-2.657,0-4.623,1.98-4.623,4.637c0,2.657,1.966,4.642,4.599,4.642c2.643,0,4.623-1.984,4.623-4.642
		C147.674,163.32,145.708,161.34,143.075,161.34 M143.051,168.947c-1.559,0-2.74-1.265-2.74-2.971c0-1.691,1.182-2.967,2.74-2.967
		c1.578,0,2.77,1.275,2.77,2.967C145.82,167.682,144.629,168.947,143.051,168.947 M151.958,163.564h-0.029v-1.967h-3.138v1.521h1.76
		v5.712h-1.73v1.529h5.368v-1.529h-1.893v-2.5c0-2,0.613-3.138,2.633-3.138h0.932v-1.745h-1.133
		C153.64,161.447,152.521,162.103,151.958,163.564 M164.189,158.662l-1.74,1.579v1.356h-1.133v1.521h1.133v5.31
		c0,1.52,0.853,2.083,2.078,2.083c0.402,0,0.873-0.118,1.279-0.245v-1.562c-0.848,0.297-1.617,0.337-1.617-0.517v-5.068h1.617
		v-1.521h-1.617V158.662L164.189,158.662z M175.405,163.99c0-1.965-1.044-2.65-2.417-2.65c-0.94,0-1.818,0.372-2.916,1.258v-4.847
		h-3.319v1.529h1.579v9.55h-1.599v1.529h4.849v-1.529h-1.51v-4.805c0.985-0.74,1.882-1.146,2.515-1.146
		c0.813,0,1.068,0.627,1.068,1.484v5.996h3.25v-1.529h-1.5V163.99L175.405,163.99z M182.269,161.34
		c-2.279,0-4.604,1.798-4.604,4.637c0,2.706,2.04,4.642,4.883,4.642c1.878,0,3.451-0.817,4.402-2.284l-1.529-0.667
		c-0.647,0.928-1.701,1.428-2.834,1.428c-1.637,0-2.745-0.98-3.005-2.696h7.368C186.95,163.192,184.7,161.34,182.269,161.34
		 M179.631,165.143c0.266-1.467,1.3-2.418,2.682-2.418c1.373,0,2.589,1.025,2.873,2.418H179.631z M209.506,157.751h-4.623v1.579
		h1.505l-2.318,8.245h-0.035l-2.304-8.245h1.485v-1.579h-5.789v1.579h1.505l-2.27,8.245h-0.035l-2.362-8.245h1.51v-1.579h-4.824
		v1.579h1.521l3.211,11.156h1.745l2.799-9.971h0.039l2.819,9.971h1.799l3.138-11.156h1.485V157.751L209.506,157.751z
		 M213.506,161.34c-2.652,0-4.618,1.98-4.618,4.637c0,2.657,1.966,4.642,4.604,4.642c2.632,0,4.618-1.984,4.618-4.642
		C218.109,163.32,216.144,161.34,213.506,161.34 M213.491,168.947c-1.56,0-2.745-1.265-2.745-2.971c0-1.691,1.186-2.967,2.745-2.967
		c1.578,0,2.76,1.275,2.76,2.967C216.251,167.682,215.069,168.947,213.491,168.947 M222.398,163.564h-0.034v-1.967h-3.138v1.521
		h1.765v5.712h-1.73v1.529h5.363v-1.529h-1.888v-2.5c0-2,0.608-3.138,2.628-3.138h0.932v-1.745h-1.132
		C224.066,161.447,222.952,162.103,222.398,163.564 M230.341,157.751h-3.305v1.529h1.559v9.55h-1.593v1.529h4.691v-1.529h-1.354
		L230.341,157.751L230.341,157.751z M241.938,157.751h-3.412v1.529h1.667v3.465c-0.867-0.931-1.893-1.405-3.073-1.405
		c-2.471,0-4.349,2.02-4.349,4.67c0,3.138,2.324,4.501,4.31,4.501c1.22,0,2.206-0.475,3.112-1.455v1.304h3.339v-1.529h-1.594
		V157.751z M237.395,168.986c-1.633,0-2.765-1.225-2.765-3.029c0-1.745,1.186-3.045,2.745-3.045c1.672,0,2.818,1.206,2.818,2.971
		C240.193,167.667,239.021,168.986,237.395,168.986 M201.779,94.551h-0.896c-0.147,0.823-0.319,3.123-1.726,4.535
		c-1.271,1.26-2.314,1.377-3.961,1.377h-4.584v-9.829h2.049c2.78,0,3.162,1.985,3.604,4.138h0.794v-8.893h-0.794
		c-0.451,2.221-0.735,3.868-4,3.868h-1.652v-9.069h4.451c4.221,0,4.652,2.961,5.157,4.804h0.888v-5.785h-17.207v0.98h3.245v19.786
		h-3.245v0.976h17.878V94.551L201.779,94.551z M164.557,100.463c1.201,0,2.074,1.549,6.006,1.549c2.112,0,4.083-0.765,5.603-2.26
		c1.305-1.289,2.094-3.02,2.094-4.853c0-7.957-12.722-5.618-12.722-11.202c0-2.461,2.201-3.647,4.314-3.647
		c3.284,0,4.902,2.647,5.466,5.471h0.897v-5.824h-0.849c-0.107,0.672-0.328,0.843-0.622,0.843c-0.711,0-2.201-1.422-4.893-1.422
		c-3.422,0-6.446,2.324-6.446,6.221c0,6.103,7.662,5.667,10.804,8.407c0.814,0.716,1.25,1.672,1.25,2.755
		c0,1.113-0.323,2.029-1.024,2.892c-0.976,1.187-2.401,1.687-3.872,1.687c-4.329,0-5.81-2.647-6.667-6.53h-0.98v6.888h0.848
		C163.896,100.58,164.336,100.463,164.557,100.463 M184.832,117.772c1.814,1.809,2.227,4.584,2.446,5.917h1.162
		c0.216-1.333,0.638-4.108,2.441-5.917c1.951-1.941,4.226-2.088,6.094-2.088h56.194v-1.201h-56.238c-3.03,0-4.893,0.382-6.938,2.426
		c-1.695,1.701-2.044,3.731-2.132,4.333c-0.089-0.603-0.437-2.632-2.133-4.333c-2.054-2.044-3.917-2.426-6.937-2.426h-56.602v1.201
		h56.553C180.616,115.684,182.892,115.831,184.832,117.772 M144.728,100.463h-3.196V82.27l12.314,19.344h1.068V80.677h3.196v-0.98
		h-7.466v0.98h3.201v14.584l-9.917-15.565h-6.668v0.98h3.201v19.786h-3.201v0.976h7.467V100.463z M132.104,100.463h-3.206V80.677
		h3.206v-0.98h-9.913v0.98h3.24v19.786h-3.24v0.976h9.913V100.463z M241.438,101.571c3.687,0,6.432-0.52,9.113-3.196
		c1.75-1.755,3.157-4.314,3.157-7.647c0-3.451-1.363-6.628-4.039-8.628c-2.495-1.863-5.241-2.491-8.368-2.491
		c-1.814,0-3.652,0.088-5.466,0.088h-3.422v0.98h3.201v19.786h-3.201v0.976h2.976C238.61,101.438,240.164,101.571,241.438,101.571
		 M239.081,80.628c0.357-0.015,1.333-0.04,2.221-0.04c2.417,0,4.951,0.799,6.539,2.888c1.466,1.927,1.995,4.824,1.995,7.383
		c0,3.667-1.23,6.427-2.706,7.912c-1.52,1.52-3.432,1.868-5.735,1.868c-0.838,0-2.313-0.132-2.313-0.132V80.628L239.081,80.628z
		 M213.162,100.463h-3.024l2.354-6.579h7.113l2.401,6.579h-3.02v0.976h9.422v-0.976h-2.622l-7.873-21.168h-1.108l-7.824,21.168
		h-2.617v0.976h6.799V100.463z M216.05,84.231l3.206,8.672h-6.412L216.05,84.231z M247.086,161.025v-0.02
		c0.544-0.068,0.883-0.402,0.883-0.908c0-0.461-0.289-0.901-1.034-0.901h-1.594v3.231h0.662v-1.324h0.122
		c0.265,0,0.363,0.004,0.524,0.171c0.245,0.251,0.432,0.604,0.701,1.153h0.81C247.532,161.359,247.449,161.142,247.086,161.025
		 M246.586,160.588h-0.583v-0.886h0.593c0.456,0,0.677,0.167,0.677,0.44C247.272,160.486,246.959,160.588,246.586,160.588
		 M246.719,157.751c-1.687,0-3.045,1.362-3.045,3.049s1.358,3.044,3.045,3.044c1.686,0,3.049-1.357,3.049-3.044
		S248.404,157.751,246.719,157.751 M246.719,163.241c-1.354,0-2.441-1.098-2.441-2.451c0-1.349,1.088-2.431,2.441-2.431
		c1.353,0,2.446,1.082,2.446,2.431C249.165,162.143,248.071,163.241,246.719,163.241"/>
</g>
</svg>
