<?xml version="1.0" encoding="utf-8"?>
<!-- Generator: Adobe Illustrator 16.0.0, SVG Export Plug-In . SVG Version: 6.00 Build 0)  -->
<!DOCTYPE svg PUBLIC "-//W3C//DTD SVG 1.1//EN" "http://www.w3.org/Graphics/SVG/1.1/DTD/svg11.dtd">
<svg version="1.1" id="Layer_1" xmlns="http://www.w3.org/2000/svg" xmlns:xlink="http://www.w3.org/1999/xlink" x="0px" y="0px"
	 width="147px" height="26px" viewBox="0 0 147 26" enable-background="new 0 0 147 26" xml:space="preserve">
<g>
	<path fill="#231F20" d="M83.313,17.782l1.754-2.102c1.214,1.001,2.486,1.639,4.029,1.639c1.214,0,1.947-0.48,1.947-1.273V16.01
		c0-0.754-0.464-1.14-2.719-1.719c-2.717-0.691-4.472-1.445-4.472-4.124V10.13c0-2.449,1.965-4.068,4.721-4.068
		c1.969,0,3.646,0.617,5.015,1.716l-1.544,2.236c-1.193-0.83-2.369-1.331-3.508-1.331c-1.136,0-1.735,0.521-1.735,1.175v0.041
		c0,0.886,0.58,1.175,2.911,1.772c2.738,0.714,4.281,1.698,4.281,4.046v0.04c0,2.682-2.044,4.183-4.956,4.183
		C86.995,19.939,84.933,19.227,83.313,17.782"/>
	<polyline fill="#231F20" points="98.951,8.99 94.845,8.99 94.845,6.254 106.026,6.254 106.026,8.99 101.92,8.99 101.92,19.749 
		98.951,19.749 98.951,8.99 	"/>
	<polyline fill="#231F20" points="107.917,6.254 118.097,6.254 118.097,8.895 110.869,8.895 110.869,11.632 117.229,11.632 
		117.229,14.273 110.869,14.273 110.869,17.107 118.192,17.107 118.192,19.749 107.917,19.749 107.917,6.254 	"/>
	<path fill="#231F20" d="M120.454,6.254h6.167c1.716,0,3.045,0.48,3.933,1.367c0.753,0.753,1.156,1.814,1.156,3.084v0.041
		c0,2.179-1.177,3.545-2.89,4.183l3.295,4.82h-3.47l-2.894-4.318h-2.331v4.318h-2.967V6.254 M126.428,12.809
		c1.445,0,2.277-0.771,2.277-1.91v-0.036c0-1.274-0.889-1.93-2.333-1.93h-2.951v3.876H126.428z"/>
	<polyline fill="#231F20" points="134.008,6.254 136.744,6.254 143.068,14.562 143.068,6.254 146,6.254 146,19.749 143.474,19.749 
		136.938,11.171 136.938,19.749 134.008,19.749 134.008,6.254 	"/>
	<rect x="77.298" y="1.063" fill="#231F20" width="0.521" height="23.876"/>
	<polyline fill="#582E86" points="31.066,6.111 33.817,6.111 40.172,14.463 40.172,6.111 43.115,6.111 43.115,19.673 40.576,19.673 
		34.011,11.051 34.011,19.673 31.066,19.673 31.066,6.111 	"/>
	<polyline fill="#582E86" points="49.816,14.328 44.607,6.111 48.094,6.111 51.328,11.556 54.623,6.111 58.015,6.111 52.8,14.27 
		52.8,19.673 49.816,19.673 49.816,14.328 	"/>
	<path fill="#582E86" d="M59.29,13.862V6.111h2.983v7.674c0,2.207,1.104,3.351,2.926,3.351c1.819,0,2.923-1.104,2.923-3.255v-7.77
		h2.985v7.653c0,4.106-2.307,6.122-5.949,6.122C61.518,19.887,59.29,17.854,59.29,13.862"/>
</g>
<g>
	<g>
		<rect x="3.6" y="3.785" fill="#FFFFFF" width="16.51" height="20.34"/>
		<path fill="#582E86" d="M0.999,1.061h23.875v23.877H0.999V1.061z M12.111,22.145c0.028,0.17,0.391,0.25,0.474,0l0.833-6.615H11.39
			L12.111,22.145z M10.68,15.051h3.445v-1H10.68V15.051z M13.133,13.561c4.367,0.159,4.677-3.822,4.694-5.313
			c0.002-0.083-0.039-0.093-0.062-0.034c-0.128,0.313-0.697,1.421-2.271,2.099c-1.407,0.604-2.254,1.972-2.4,3.199
			C13.086,13.544,13.113,13.561,13.133,13.561z M12.652,13.273c0.69-3.313,3.389-3.396,3.63-4.023
			c0.378-0.983-0.311-2.723-0.487-2.929c-0.019-0.022-0.041-0.009-0.049,0.009c-0.368,0.803-0.961,1.569-1.394,1.919
			c-0.613,0.493-2.956,2.229-1.757,5.024C12.611,13.311,12.644,13.3,12.652,13.273z M12.176,13.406
			c-1.463-3.125,1.46-5.144,1.939-5.582c0.067-0.062,0.051-0.117,0.051-0.188c0.002-0.986-0.562-2.576-0.748-2.804
			c-0.025-0.036-0.048-0.021-0.058,0.015c-0.251,0.972-1.583,2.416-1.85,2.731c-2.26,2.687-1.744,4.324,0.616,5.864
			C12.156,13.461,12.193,13.441,12.176,13.406z M11.521,13.511c-2.448-1.457-2.203-3.542-1.188-5.076
			c0.021-0.03,0.029-0.083,0.021-0.147c-0.043-0.364-0.44-1.286-0.604-1.535C9.707,6.688,9.67,6.691,9.666,6.737
			C9.651,7.154,9.177,8.2,8.451,9.403c-0.771,1.279-0.774,4.058,3.06,4.171C11.547,13.574,11.558,13.537,11.521,13.511z"/>
	</g>
</g>
</svg>
