<?xml version="1.0" encoding="utf-8"?>
<!-- Generator: Adobe Illustrator 16.0.0, SVG Export Plug-In . SVG Version: 6.00 Build 0)  -->
<!DOCTYPE svg PUBLIC "-//W3C//DTD SVG 1.1//EN" "http://www.w3.org/Graphics/SVG/1.1/DTD/svg11.dtd">
<svg version="1.1" id="Layer_1" xmlns="http://www.w3.org/2000/svg" xmlns:xlink="http://www.w3.org/1999/xlink" x="0px" y="0px"
	 width="162px" height="46px" viewBox="0 0 162 46" enable-background="new 0 0 162 46" xml:space="preserve">
<g>
	<g>
		<path fill="#231F20" d="M146.641,1.734c-0.821,0.23-1.316,0.831-1.316,1.553c0,0.821,0.452,1.333,1.115,1.333
			c0.396,0,0.685-0.141,0.881-0.432c0.283-0.415,0.423-0.935,0.635-1.482c0.388-0.989,0.82-1.466,1.65-1.466
			c1.023,0,1.702,0.734,1.702,1.873c0,0.988-0.546,1.694-1.562,1.995l-0.185-0.637c0.759-0.212,1.155-0.714,1.155-1.428
			c0-0.689-0.405-1.122-1.039-1.122c-0.308,0-0.558,0.141-0.777,0.415c-0.213,0.273-0.353,0.749-0.583,1.358
			c-0.412,1.095-0.846,1.605-1.836,1.605c-1.048,0-1.762-0.769-1.762-1.977c0-1.138,0.571-1.906,1.701-2.259L146.641,1.734z"/>
		<path fill="#231F20" d="M144.719,8.574c0-1.553,1.171-2.453,3.3-2.453c2.1,0,3.289,0.954,3.289,2.399
			c0,1.183-0.644,1.924-1.904,2.198l-0.168-0.662c0.962-0.194,1.474-0.723,1.474-1.474c0-1.093-0.944-1.746-2.718-1.746
			c-1.73,0-2.665,0.662-2.665,1.764c0,0.83,0.549,1.403,1.553,1.58l-0.141,0.643C145.389,10.515,144.719,9.765,144.719,8.574z"/>
		<path fill="#231F20" d="M151.202,11.893v0.697h-2.726v3.203h2.726v0.697h-6.377v-0.697h3.034V12.59h-3.034v-0.697H151.202z"/>
		<path fill="#231F20" d="M151.308,20.096c0,1.508-1.243,2.522-3.289,2.522c-2.047,0-3.3-1.014-3.3-2.522
			c0-1.51,1.26-2.524,3.3-2.524C150.057,17.572,151.308,18.586,151.308,20.096z M145.335,20.096c0,1.111,0.963,1.808,2.684,1.808
			c1.72,0,2.682-0.697,2.682-1.808c0-1.112-0.962-1.809-2.682-1.809C146.298,18.288,145.335,18.984,145.335,20.096z"/>
		<path fill="#231F20" d="M151.308,26.099c0,1.51-1.243,2.523-3.289,2.523c-2.047,0-3.3-1.014-3.3-2.523
			c0-1.508,1.26-2.522,3.3-2.522C150.057,23.574,151.308,24.591,151.308,26.099z M145.335,26.099c0,1.112,0.963,1.81,2.684,1.81
			c1.72,0,2.682-0.697,2.682-1.81c0-1.111-0.962-1.809-2.682-1.809C146.298,24.29,145.335,24.987,145.335,26.099z"/>
		<path fill="#231F20" d="M151.202,29.751v0.723h-5.77v2.849h-0.607v-3.571H151.202L151.202,29.751z"/>
		<path fill="#231F20" d="M151.308,37.59c0,1.51-1.243,2.524-3.289,2.524c-2.047,0-3.3-1.015-3.3-2.524s1.26-2.524,3.3-2.524
			C150.057,35.065,151.308,36.08,151.308,37.59z M145.335,37.59c0,1.111,0.963,1.809,2.684,1.809c1.72,0,2.682-0.697,2.682-1.809
			s-0.962-1.809-2.682-1.809C146.298,35.781,145.335,36.479,145.335,37.59z"/>
		<path fill="#231F20" d="M151.202,41.24v3.741h-0.6v-3.035h-2.127v2.252h-0.598v-2.252h-3.053V41.24H151.202z"/>
	</g>
	<g>
		<path fill="#231F20" d="M155.213,5.198c-0.548-0.397-0.803-0.944-0.803-1.686c0-1.518,1.216-2.497,3.263-2.497
			C159.8,1.016,161,1.96,161,3.539c0,1.121-0.625,1.862-1.87,2.214l-0.142-0.723c0.927-0.247,1.402-0.751,1.402-1.518
			c0-1.121-0.933-1.774-2.664-1.774c-1.738,0-2.707,0.697-2.707,1.817c0,0.927,0.563,1.544,1.536,1.544h0.447V3.628h0.609v2.204
			h-3.098V5.225L155.213,5.198z"/>
		<path fill="#231F20" d="M160.895,7.514v1.792c0,1.719-0.47,2.55-1.685,2.55c-0.83,0-1.376-0.443-1.633-1.325l-3.062,1.501v-0.778
			l2.895-1.404v-1.64h-2.895V7.514H160.895z M160.303,8.211h-2.302v1.067c0,1.279,0.318,1.862,1.146,1.862
			c0.934,0,1.155-0.557,1.155-1.836V8.211z"/>
		<path fill="#231F20" d="M160.895,14.908v1.078l-6.38,1.958v-0.74l1.986-0.574v-2.373l-1.986-0.565v-0.75L160.895,14.908z
			 M157.091,16.436l3.326-0.953v-0.097l-3.326-0.962V16.436z"/>
		<path fill="#231F20" d="M160.895,19.109v1.518c0,0.854-0.106,1.482-0.504,2.013c-0.529,0.696-1.463,1.104-2.681,1.104
			c-2.118,0-3.195-1.096-3.195-3.275v-1.359H160.895L160.895,19.109z M160.303,19.806h-5.16v0.565c0,0.811,0.079,1.403,0.44,1.853
			c0.415,0.529,1.146,0.83,2.117,0.83c1.024,0,1.766-0.291,2.188-0.837c0.371-0.478,0.416-1.025,0.416-1.748v-0.663H160.303z"/>
		<path fill="#231F20" d="M160.895,25.72h-4.111c-0.396,0-0.732,0.009-1.04,0.168c-0.45,0.229-0.724,0.741-0.724,1.43
			c0,0.697,0.273,1.208,0.724,1.438c0.335,0.168,0.705,0.168,1.156,0.168h3.995v0.697h-4.226c-1.482,0-2.258-0.804-2.258-2.303
			c0-1.51,0.768-2.295,2.258-2.295h4.226V25.72L160.895,25.72z"/>
		<path fill="#231F20" d="M160.895,32.514v1.076l-6.38,1.96v-0.744l1.986-0.572V31.86l-1.986-0.565v-0.75L160.895,32.514z
			 M157.091,34.039l3.326-0.954v-0.097l-3.326-0.962V34.039z"/>
		<path fill="#231F20" d="M160.285,37.468v-1.861h0.609v4.447h-0.609v-1.861h-5.771v-0.725H160.285z"/>
		<path fill="#231F20" d="M160.895,41.212v3.769h-0.6v-3.062h-2.127v2.17h-0.601v-2.17h-2.443v3.062h-0.609v-3.769H160.895z"/>
	</g>
</g>
<path fill="#231F20" d="M33.571,24.904c3.111,0.218,3.111,1.572,3.111,4.034v6.931c0,2.587,0,4.003-0.862,5.329
	c-1.323,2.063-3.91,2.771-5.942,2.771c-2.682,0-4.312-1.202-5.021-2.402c-0.771-1.294-0.771-2.927-0.771-5.853v-6.406
	c0-4.403,0.091-4.403,3.141-4.403v-0.678h-9.301v0.678h0.462c2.71,0,2.741,0.339,2.741,4.466v6.251c0,3.452,0,4.866,1.016,6.376
	c0.8,1.171,2.803,2.987,7.022,2.987c3.881,0,6.375-1.538,7.453-3.51c0.801-1.479,0.801-2.804,0.801-5.482v-6.777
	c0-2.523,0-4.095,2.988-4.311v-0.678h-6.839V24.904z M56.497,24.904h0.434c2.68,0,2.738,0.277,2.738,4.403v10.011
	c0,3.943,0,4.62-2.585,4.62h-0.587v0.678H65.8v-0.678h-0.585c-2.587,0-2.587-0.677-2.587-4.62V29.308
	c0-4.157,0.062-4.403,2.74-4.403H65.8v-0.678h-9.301v0.678H56.497z M48.109,32.294c-2.371-1.045-4.896-2.155-4.896-4.588
	c0-1.355,0.925-3.111,3.512-3.111c2.286,0,4.86,1.735,5.394,4.531h0.674v-4.9h-0.647c-0.062,0.369-0.271,1.344-0.801,1.786
	c-0.74-0.801-2.032-2.155-4.712-2.155c-3.388,0-5.391,2.4-5.391,5.051c0,3.881,3.357,5.326,5.637,6.312
	c0.185,0.062,1.201,0.494,1.386,0.586c2.064,0.893,4.158,2.063,4.158,4.466c0,1.878-1.509,3.972-4.527,3.972
	c-4.367,0-5.703-4.177-6.061-5.971h-0.746v6.344h0.674c0.228-1.328,0.618-1.911,0.804-2.189c0.492,0.555,2.248,2.557,5.604,2.557
	c3.912,0,6.406-2.433,6.406-5.882C54.578,35.22,52.084,34.049,48.109,32.294z M117.783,32.294c-2.371-1.045-4.897-2.155-4.897-4.588
	c0-1.355,0.925-3.111,3.512-3.111c2.287,0,4.858,1.735,5.395,4.531h0.672v-4.9h-0.646c-0.062,0.369-0.27,1.344-0.802,1.786
	c-0.737-0.801-2.031-2.155-4.71-2.155c-3.39,0-5.393,2.4-5.393,5.051c0,3.881,3.358,5.326,5.64,6.312
	c0.184,0.062,1.198,0.494,1.385,0.586c2.062,0.893,4.156,2.063,4.156,4.466c0,1.878-1.508,3.972-4.527,3.972
	c-4.367,0-5.704-4.177-6.059-5.971h-0.748v6.344h0.674c0.226-1.328,0.619-1.911,0.805-2.189c0.493,0.555,2.249,2.557,5.604,2.557
	c3.912,0,6.407-2.433,6.407-5.882C124.251,35.22,121.757,34.049,117.783,32.294z M133.771,32.294
	c-2.373-1.045-4.896-2.155-4.896-4.588c0-1.355,0.923-3.111,3.51-3.111c2.286,0,4.86,1.735,5.395,4.531h0.674v-4.9h-0.646
	c-0.062,0.369-0.27,1.344-0.803,1.786c-0.738-0.801-2.031-2.155-4.712-2.155c-3.388,0-5.389,2.4-5.389,5.051
	c0,3.881,3.356,5.326,5.635,6.312c0.187,0.062,1.202,0.494,1.388,0.586c2.062,0.893,4.156,2.063,4.156,4.466
	c0,1.878-1.509,3.972-4.526,3.972c-4.368,0-5.704-4.177-6.06-5.971h-0.747v6.344h0.673c0.227-1.328,0.62-1.911,0.805-2.189
	c0.493,0.555,2.249,2.557,5.605,2.557c3.912,0,6.406-2.433,6.406-5.882C140.239,35.22,137.744,34.049,133.771,32.294z
	 M82.326,24.904c3.479,0.031,3.479,1.602,3.479,3.079v11.929h-0.062L73.732,24.227h-6.006v0.678c2.586,0,3.018,0,3.018,4.403v10.811
	c0,1.911,0,2.403-0.462,2.866c-0.833,0.8-2.218,0.892-2.834,0.954v0.678h7.608v-0.678c-1.94-0.03-2.681-0.585-2.864-0.771
	c-0.617-0.523-0.708-0.923-0.708-3.05V25.983h0.061l14.264,18.631h0.734V28.199c0-1.631,0-3.018,3.175-3.295v-0.678h-7.392V24.904
	L82.326,24.904z M101.271,43.938h-1.509c-2.804,0-2.987-0.248-2.987-4.929v-4.835h2.218c2.339,0,3.017,0.154,3.017,3.235h0.71
	v-6.992h-0.71c0,2.372-0.184,3.079-3.048,3.079h-2.188v-8.593h2.979c3.57,0,5.055,0.127,5.905,4.22h0.699v-4.897H91.17v0.678
	c2.617,0,2.647,0.37,2.647,4.403v10.011c0,3.943,0,4.62-2.647,4.62h-0.402v0.678h16.88l0.003-6.342h-0.709
	C105.936,43.966,103.323,43.938,101.271,43.938z M10.771,33.682V33.62c1.23-0.154,5.758-0.83,5.758-4.744
	c0-4.864-6.437-4.66-8.346-4.66c-0.863,0-7.176,0.011-7.176,0.011v0.678c3.05,0,3.141,0,3.141,4.466v9.948
	c0,3.943,0,4.62-2.585,4.62H1v0.678h7.801c1.754,0,4.65,0,6.375-1.078c1.539-0.956,2.463-2.649,2.463-4.465
	C17.639,35.468,14.621,33.929,10.771,33.682z M7.107,24.904c0,0,1.311-0.016,1.881-0.003c2.961,0.061,4.369,1.004,4.369,4.131
	c0,3.879-2.432,4.403-6.25,4.311V24.904z M9.571,43.907c-2.464,0-2.464-0.586-2.464-5.268v-4.557
	c3.078-0.186,4.803,0.338,5.665,0.954c1.141,0.832,1.572,2.126,1.572,3.943C14.345,40.059,14.374,43.907,9.571,43.907z"/>
<path fill="#A4001D" d="M24.266,14.901V1.956h2.822c2.24,0,3.429,0.002,4.064,3.792h0.556l-0.002-4.4H14.167l0.002,4.4h0.608
	c0.222-1.3,0.552-2.437,0.994-2.991c0.636-0.801,1.306-0.801,3.215-0.801h2.622V14.9c0,3.54,0.028,4.149-2.324,4.149h-0.94v0.607
	h9.157V19.05h-0.913C24.266,19.05,24.266,18.441,24.266,14.901z M93.001,1.016c-4.979,0-9.874,3.127-9.874,9.35
	c0,6.084,4.397,9.625,9.957,9.625c6.085,0,9.985-3.928,9.985-9.515C103.069,3.92,97.979,1.016,93.001,1.016z M93.194,19.326
	c-4.811,0-6.97-3.153-6.97-8.851c0-3.845,1.161-8.796,6.86-8.796c6.334,0,6.886,6.169,6.886,8.825
	C99.971,13.601,99.197,19.326,93.194,19.326z M136.541,3.45c-1.688-1.438-3.838-2.102-7.848-2.102c-1.55,0-8.139,0-8.139,0v0.608
	h0.524c2.434,0,2.49,0.388,2.49,4.095v8.851c0,2.522-0.068,3.671-0.984,4.063c-0.506,0.177-0.913,0.143-1.177,0.091
	c-1.129-0.223-2.11-1.039-4.3-3.988c-0.139-0.166-0.802-1.052-0.939-1.244c-0.332-0.443-2.049-2.739-3.236-3.347V10.42
	c2.904-0.304,5.228-1.825,5.228-4.59c0-1.189-0.443-2.24-1.551-3.154c-1.051-0.857-2.654-1.326-6.39-1.326
	c-0.773,0-6.774-0.001-6.774-0.001v0.608c2.709,0,2.792,0,2.792,3.956v8.988c0,3.541,0,4.149-2.351,4.149h-0.581v0.608h8.767v-0.608
	h-0.883c-2.324,0-2.296-0.608-2.296-4.149v-4.065h0.718c0.304,0,0.858-0.027,1.301,0.416c0.553,0.553,1.771,1.963,2.877,3.595
	c0.748,1.106,2.626,3.817,4.012,4.812h10.8c2.711,0,5.697,0.028,8.105-2.019c2.488-2.103,2.819-5.422,2.819-6.97
	C139.526,8.623,139.059,5.581,136.541,3.45z M110.415,10.171h-1.521V2.077c0.363-0.001,0.633-0.001,1.13-0.001
	c2.464,0,5.176-0.035,5.176,3.947C115.2,8.733,113.983,10.171,110.415,10.171z M133.941,17.778
	c-1.522,1.189-3.541,1.245-4.842,1.245c-2.904,0-2.875-0.111-2.875-4.924V1.955c0,0,1.3-0.009,2.239-0.009
	c1.438,0,4.481-0.156,6.389,2.555c1.44,2.046,1.716,4.619,1.716,6.362C136.568,13.048,136.152,16.062,133.941,17.778z M7.307,8.595
	C5.176,7.655,2.909,6.659,2.909,4.474c0-1.217,0.83-2.794,3.151-2.794c2.055,0,4.365,1.56,4.845,4.069h0.607V1.348h-0.582
	c-0.057,0.332-0.242,1.207-0.72,1.604C9.547,2.233,8.385,1.016,5.98,1.016c-3.044,0-4.842,2.158-4.842,4.537
	c0,3.485,3.016,4.785,5.063,5.669c0.165,0.055,1.076,0.442,1.243,0.526c1.853,0.802,3.733,1.852,3.733,4.011
	c0,1.686-1.356,3.567-4.065,3.567c-3.921,0-5.122-3.754-5.443-5.363H1v5.694h0.634c0.169-1.127,0.527-1.714,0.694-1.963
	c0.441,0.499,2.019,2.295,5.033,2.295c3.513,0,5.754-2.186,5.754-5.283C13.115,11.222,10.874,10.171,7.307,8.595z M61.198,1.956
	c3.123,0.028,3.123,1.077,3.123,2.766v10.769h-0.055L53.48,1.348h-5.393v0.608c2.321,0,2.71,0,2.71,3.957v9.707
	c0,1.715-0.016,2.273-0.415,2.704c-0.614,0.661-1.56,0.875-2.351,0.72c-1.098-0.285-1.434-0.948-1.91-2.096
	c-0.028-0.11-0.14-0.358-0.277-0.635l-6.418-15.24H38.9l-5.31,12.723c-0.137,0.304-0.579,1.383-0.663,1.576
	c-0.886,2.323-1.3,3.375-3.236,3.679v0.607h5.449V19.05c-1.577,0-1.991-0.969-1.991-1.716c0-0.773,0.47-1.825,0.939-2.987
	c0.057-0.138,0.083-0.249,0.111-0.276l0.47-1.162h6.971l1.382,3.374c0.057,0.111,0.305,0.663,0.331,0.774
	c0.195,0.415,0.307,0.719,0.307,0.996c0,0.997-0.968,0.997-2.27,0.997v0.607H54.67V19.05c-1.743-0.028-2.406-0.526-2.572-0.693
	c-0.555-0.469-0.637-0.83-0.637-2.738V2.925h0.056l12.811,16.732h0.658V4.916c0-1.464,0.051-3.005,2.846-3.005
	c2.796,0,2.848,1.539,2.848,3.003v9.988c0,3.54,0,4.148-2.323,4.148h-0.553v0.607h8.49V19.05h-0.608
	c-2.351,0-2.351-0.608-2.351-4.148v-4.563h1.716c1.66,0,2.766,0,2.766,3.042h0.664V6.936h-0.664c0,2.572-0.886,2.793-2.766,2.793
	h-1.716V1.956h3.57c1.77,0,2.898,0,3.782,1.273c0.742,1.048,0.778,1.838,0.847,2.519h0.651l0.001-4.4H61.198V1.956z M34.948,12.302
	l3.209-7.8l3.233,7.8H34.948z"/>
</svg>
