<?xml version="1.0" encoding="utf-8"?>
<!-- Generator: Adobe Illustrator 16.0.0, SVG Export Plug-In . SVG Version: 6.00 Build 0)  -->
<!DOCTYPE svg PUBLIC "-//W3C//DTD SVG 1.1//EN" "http://www.w3.org/Graphics/SVG/1.1/DTD/svg11.dtd">
<svg version="1.1" id="Layer_1" xmlns="http://www.w3.org/2000/svg" xmlns:xlink="http://www.w3.org/1999/xlink" x="0px" y="0px"
	 width="156px" height="34px" viewBox="0 0 156 34" enable-background="new 0 0 156 34" xml:space="preserve">
<g id="g168" transform="matrix(1.2161103,0,0,1.2161103,21.716414,26.525165)">
	<path id="path170" fill="#997F3D" d="M-2.882-16.559c-0.002,0.297-0.002,1.032,0,1.174c0.085,0.001,0.326,0,0.461-0.001
		c0.458-0.002,1.104-0.001,1.359,0.249c0.496,0.527-0.15,1.009-0.744,1.812c-0.936,1.245-0.356,2.059,0.262,1.623
		c0.357-0.263,1.129-0.837,1.506-1.029c0.785-0.373,1.29,0.623,0.471,1.703C0.11-10.585-0.51-10.026-0.91-9.435
		c-0.493,0.711-0.263,1.667,0.688,0.958c1.095-0.825,1.483,0.453,0.325,1.653c-1.062,1.139-1.707,1.96-1.396,2.952
		c0.116,0.362,0.254,0.759,0.374,1.107c0.016,0.037,0.042,0.061,0.042,0.061l-0.027,0.047c0,0-0.024-0.013-0.1-0.014h-0.665
		c-0.036-0.1-0.385-1.042-0.757-2.054c-0.117-0.3-0.267-0.514-0.996-0.732c-0.156-0.047-0.287-0.086-0.361-0.108
		c-0.124-0.033-0.188-0.014-0.277,0.046c-0.17,0.126-0.389,0.287-0.468,0.346C-4.964-4.851-5.179-4.75-5.367-4.797
		c-0.145-0.04-0.221-0.149-0.216-0.337c0-0.016-0.001-0.042-0.001-0.05c0.208-0.34,0.373-0.706,0.489-1.094
		c0.116-0.388,0.18-0.782,0.191-1.18c0.006-0.008,0.018-0.027,0.027-0.04c0.1-0.158,0.222-0.209,0.365-0.162
		c0.185,0.064,0.308,0.266,0.497,0.775c0.033,0.09,0.124,0.335,0.197,0.532C-3.773-6.238-3.727-6.185-3.58-6.14
		c0.128,0.037,0.363,0.108,0.618,0.184c0.026,0.008,0.049,0.033,0.057,0.041c0.009-0.009,0.046-0.046,0.046-0.046
		S-2.89-5.988-2.903-6.022c-0.259-0.704-0.46-1.253-0.478-1.298c-0.308-0.815-0.513-1.147-1.086-1.57
		c-0.556-0.396-1.413-0.706-1.898-0.985c-1.477-0.84-1.226-2.053-0.387-2.008c0.323,0.004,1.054,0.279,1.577,0.48
		c0.904,0.334,0.932-0.782-0.239-1.64c-1.489-1.092-1.772-1.661-1.425-2.106c0.186-0.237,0.696-0.239,1.203-0.235
		c0.091-0.001,0.345-0.001,0.408,0c0-0.293,0.002-0.854,0.002-1.178l-9.811-0.004v1.18c0.243-0.004,0.437,0.006,0.725,0.029
		c0.822,0.072,1.443,0.471,2.096,2.15C-11.642-11.7-6.927,0.243-6.444,1.515c0.132-0.002,4.779,0.002,4.779,0.002
		c0.413-1.052,5.017-12.88,5.766-14.772c0.667-1.688,1.38-2.018,2.173-2.083c0.188-0.016,0.422-0.024,0.618-0.022l0.001-1.194
		L-2.882-16.559z M-6.396-5.5C-7.02-5.722-7.258-5.916-7.331-6.563c-0.02-0.162-0.025-0.388-0.025-0.388s0.128-0.185,0.233-0.312
		c0.416-0.5,0.722-0.532,1.367-0.375c0.074,0.016,0.344,0.075,0.561,0.122c-0.006,0.388-0.067,0.775-0.18,1.154
		C-5.49-5.982-5.652-5.625-5.861-5.294C-6.068-5.373-6.326-5.472-6.396-5.5z"/>
</g>
<g id="g4" transform="matrix(1.2161103,0,0,1.2161103,101.63614,66.003091)">
	<path id="path6" d="M-52.051-33.167c0-0.856,0.609-1.539,1.47-1.539c0.86,0,1.47,0.683,1.47,1.539c0,0.854-0.609,1.539-1.47,1.539
		C-51.441-31.629-52.051-32.313-52.051-33.167z M-52.542-33.167c0,1.208,0.865,1.924,1.962,1.924c1.095,0,1.961-0.792,1.961-1.924
		c0-1.209-0.866-1.924-1.961-1.924C-51.677-35.091-52.542-34.301-52.542-33.167z"/>
</g>
<g id="g8" transform="matrix(1.2161103,0,0,1.2161103,114.37087,68.937569)">
	<path id="path10" d="M-58.519-36.34l0.434-0.128l0.577,2.224h0.01l0.712-2.15h0.433l0.582,2.15h0.011l0.711-2.224l0.412,0.128
		l-0.948,2.61H-56l-0.583-2.118h-0.01l-0.723,2.118h-0.422L-58.519-36.34z"/>
</g>
<g id="g12" transform="matrix(1.2161103,0,0,1.2161103,126.83481,68.937569)">
	<path id="path14" d="M-63.871-35.41c0.07-0.363,0.326-0.737,0.728-0.737c0.432,0,0.593,0.357,0.593,0.737H-63.871z M-62.122-35.121
		v-0.085c0-0.716-0.31-1.262-1.026-1.262s-1.218,0.675-1.218,1.407c0,0.87,0.427,1.405,1.164,1.405c0.397,0,0.744-0.203,1.016-0.476
		l-0.209-0.23c-0.23,0.208-0.454,0.385-0.759,0.385c-0.544,0-0.753-0.496-0.753-1.052v-0.092H-62.122z"/>
</g>
<g id="g16" transform="matrix(1.2161103,0,0,1.2161103,135.4058,68.937569)">
	<path id="path18" d="M-68.368-36.394h0.427l-0.016,0.428h0.01c0.224-0.321,0.589-0.503,0.904-0.503
		c0.614,0,0.812,0.316,0.812,0.808c0,0.203-0.005,0.406-0.005,0.609l-0.011,1.322h-0.427l0.01-1.198
		c0-0.236,0.006-0.471,0.006-0.732c0-0.289-0.193-0.422-0.487-0.422c-0.278,0-0.524,0.161-0.797,0.491l-0.021,1.861h-0.428
		L-68.368-36.394z"/>
</g>
<g id="g20" transform="matrix(1.2161103,0,0,1.2161103,147.31399,66.003091)">
	<path id="path22" d="M-70.792-33.216l-0.022,1.7c-0.422,0.199-0.866,0.273-1.202,0.273c-1.096,0-1.962-0.716-1.962-1.924
		c0-1.134,0.866-1.924,1.962-1.924c0.39,0,0.797,0.09,1.144,0.262l-0.177,0.363c-0.241-0.14-0.593-0.24-0.968-0.24
		c-0.861,0-1.47,0.683-1.47,1.539c0,0.854,0.609,1.539,1.47,1.539c0.256,0,0.54-0.064,0.743-0.154l0.021-1.433H-70.792z"/>
</g>
<g id="g24" transform="matrix(1.2161103,0,0,1.2161103,159.11048,68.937569)">
	<path id="path26" d="M-79.493-36.394h0.438l-0.005,0.518l0.01,0.011c0.092-0.241,0.353-0.604,0.737-0.604
		c0.092,0,0.172,0.016,0.23,0.039l-0.128,0.406c-0.042-0.011-0.106-0.027-0.165-0.027c-0.177,0-0.459,0.144-0.69,0.572l-0.021,1.749
		h-0.428L-79.493-36.394z"/>
</g>
<g id="g28" transform="matrix(1.2161103,0,0,1.2161103,164.06271,68.937569)">
	<path id="path30" d="M-80.305-34.368c-0.165,0.202-0.369,0.39-0.63,0.39c-0.294,0-0.476-0.155-0.476-0.453
		c0-0.455,0.385-0.594,1.128-0.691L-80.305-34.368z M-79.491-34.069c-0.07,0.049-0.133,0.092-0.225,0.092
		c-0.165,0-0.193-0.188-0.193-0.379c0-0.471,0.043-0.936,0.043-1.437c0-0.413-0.226-0.675-0.669-0.675
		c-0.385,0-0.556,0.096-1.09,0.445l0.177,0.276c0.39-0.294,0.561-0.368,0.769-0.368c0.283,0,0.406,0.17,0.406,0.4
		c0,0.113-0.005,0.225-0.01,0.337c-0.582,0.021-1.555,0.198-1.555,0.951c0,0.45,0.299,0.771,0.769,0.771
		c0.343,0,0.599-0.193,0.801-0.444c0.022,0.226,0.156,0.444,0.398,0.444c0.186,0,0.347-0.074,0.497-0.193L-79.491-34.069z"/>
</g>
<g id="g32" transform="matrix(1.2161103,0,0,1.2161103,172.11786,65.335454)">
	<path id="path34" d="M-83.731-31.539c-0.101,0.225-0.38,0.491-0.722,0.491c-0.363,0-0.705-0.331-0.705-1.052
		c0-0.53,0.32-1.054,0.796-1.054c0.257,0,0.465,0.112,0.647,0.427L-83.731-31.539z M-83.72-33.159h-0.01
		c-0.101-0.187-0.369-0.348-0.684-0.348c-0.604,0-1.203,0.615-1.203,1.421c0,1.047,0.615,1.391,1.069,1.391
		c0.375,0,0.69-0.203,0.813-0.434h0.011l-0.011,0.36h0.434l0.043-4.01h-0.439L-83.72-33.159z"/>
</g>
<g id="g36" transform="matrix(1.2161103,0,0,1.2161103,181.56702,69.150387)">
	<path id="path38" d="M-90.036-36.569h0.428l-0.011,1.199c0,0.234-0.005,0.469-0.005,0.731c0,0.289,0.192,0.422,0.487,0.422
		c0.277,0,0.523-0.161,0.796-0.491l0.022-1.861h0.427l-0.021,2.664h-0.428l0.015-0.43h-0.01c-0.225,0.322-0.589,0.503-0.904,0.503
		c-0.614,0-0.813-0.316-0.813-0.808c0-0.202,0.006-0.406,0.006-0.609L-90.036-36.569z"/>
</g>
<g id="g40" transform="matrix(1.2161103,0,0,1.2161103,189.91196,68.937569)">
	<path id="path42" d="M-92.435-34.368c-0.166,0.202-0.369,0.39-0.63,0.39c-0.294,0-0.476-0.155-0.476-0.453
		c0-0.455,0.385-0.594,1.128-0.691L-92.435-34.368z M-91.621-34.069c-0.07,0.049-0.135,0.092-0.225,0.092
		c-0.166,0-0.193-0.188-0.193-0.379c0-0.471,0.042-0.936,0.042-1.437c0-0.413-0.223-0.675-0.667-0.675
		c-0.385,0-0.556,0.096-1.09,0.445l0.177,0.276c0.39-0.294,0.561-0.368,0.769-0.368c0.283,0,0.406,0.17,0.406,0.4
		c0,0.113-0.005,0.225-0.01,0.337c-0.583,0.021-1.555,0.198-1.555,0.951c0,0.45,0.299,0.771,0.769,0.771
		c0.342,0,0.598-0.193,0.802-0.444c0.021,0.226,0.156,0.444,0.395,0.444c0.187,0,0.348-0.074,0.498-0.193L-91.621-34.069z"/>
</g>
<g id="g44" transform="matrix(1.2161103,0,0,1.2161103,197.63547,66.365498)">
	<path id="path46" d="M-97.134-34.279l0.01-0.983h0.428l-0.01,0.983h0.727v0.321h-0.732l-0.01,1.09
		c-0.006,0.3-0.006,0.498-0.006,0.633c0,0.218,0.064,0.34,0.246,0.34c0.145,0,0.326-0.091,0.428-0.156l0.14,0.279
		c-0.177,0.118-0.434,0.23-0.669,0.23c-0.412,0-0.572-0.256-0.572-0.679c0-0.177,0-0.397,0.005-0.764l0.011-0.972h-0.455v-0.321
		H-97.134z"/>
</g>
<g id="g48" transform="matrix(1.2161103,0,0,1.2161103,203.44972,68.937569)">
	<path id="path50" d="M-99.825-35.41c0.069-0.363,0.326-0.737,0.728-0.737c0.433,0,0.593,0.357,0.593,0.737H-99.825z
		 M-98.077-35.121v-0.085c0-0.716-0.311-1.262-1.027-1.262c-0.715,0-1.218,0.675-1.218,1.407c0,0.87,0.427,1.405,1.166,1.405
		c0.395,0,0.742-0.203,1.015-0.476l-0.209-0.23c-0.23,0.208-0.455,0.385-0.759,0.385c-0.545,0-0.754-0.496-0.754-1.052v-0.092
		H-98.077z"/>
</g>
<g id="g52" transform="matrix(1.2161103,0,0,1.2161103,214.94924,66.003091)">
	<path id="path54" d="M-105.515-31.87c0.198,0.14,0.492,0.273,0.781,0.273c0.433,0,0.732-0.262,0.732-0.673
		c0-0.941-1.625-0.556-1.625-1.849c0-0.573,0.459-0.973,1.117-0.973c0.363,0,0.689,0.112,0.985,0.287l-0.177,0.338
		c-0.22-0.144-0.438-0.273-0.786-0.273c-0.321,0-0.683,0.202-0.683,0.647c0,0.811,1.662,0.625,1.662,1.784
		c0,0.551-0.386,1.065-1.198,1.065c-0.401,0-0.701-0.101-1.011-0.294L-105.515-31.87z"/>
</g>
<g id="g56" transform="matrix(1.2161103,0,0,1.2161103,222.90021,68.937569)">
	<path id="path58" d="M-107.61-35.805c-0.165-0.203-0.357-0.31-0.577-0.31c-0.395,0-0.801,0.384-0.801,1.132
		c0,0.599,0.385,0.973,0.797,0.973c0.23,0,0.475-0.171,0.604-0.34l0.219,0.25c-0.256,0.306-0.535,0.444-0.898,0.444
		c-0.663,0-1.182-0.524-1.182-1.405c0-0.732,0.519-1.407,1.246-1.407c0.347,0,0.662,0.177,0.87,0.445L-107.61-35.805z"/>
</g>
<g id="g60" transform="matrix(1.2161103,0,0,1.2161103,230.63834,65.335454)">
	<path id="path62" d="M-113.059-34.778h0.443l-0.021,1.763h0.01c0.214-0.31,0.578-0.491,0.893-0.491
		c0.616,0,0.813,0.316,0.813,0.808c0,0.203-0.006,0.406-0.006,0.609l-0.01,1.322h-0.428l0.01-1.198c0-0.236,0.005-0.471,0.005-0.732
		c0-0.289-0.192-0.422-0.485-0.422c-0.279,0-0.524,0.161-0.798,0.491l-0.02,1.861h-0.428L-113.059-34.778z"/>
</g>
<g id="g64" transform="matrix(1.2161103,0,0,1.2161103,238.99909,68.937569)">
	<path id="path66" d="M-116.545-35.061c0-0.739,0.433-1.086,0.834-1.086c0.433,0,0.791,0.347,0.791,1.086
		c0,0.737-0.433,1.084-0.834,1.084C-116.187-33.977-116.545-34.324-116.545-35.061z M-117.005-35.061
		c0,0.875,0.465,1.405,1.245,1.405c0.846,0,1.3-0.716,1.3-1.405c0-0.872-0.466-1.407-1.246-1.407
		C-116.55-36.468-117.005-35.752-117.005-35.061z"/>
</g>
<g id="g68" transform="matrix(1.2161103,0,0,1.2161103,247.88887,68.937569)">
	<path id="path70" d="M-120.717-35.061c0-0.739,0.433-1.086,0.834-1.086c0.434,0,0.792,0.347,0.792,1.086
		c0,0.737-0.432,1.084-0.834,1.084C-120.359-33.977-120.717-34.324-120.717-35.061z M-121.177-35.061
		c0,0.875,0.465,1.405,1.245,1.405c0.844,0,1.299-0.716,1.299-1.405c0-0.872-0.466-1.407-1.247-1.407
		C-120.723-36.468-121.177-35.752-121.177-35.061z"/>
</g>
<g id="g72" transform="matrix(1.2161103,0,0,1.2161103,257.19943,65.335454)">
	<path id="path74" d="M-125.513-34.778h0.427l-0.032,4.01h-0.428L-125.513-34.778z"/>
</g>
<g id="g76" transform="matrix(1.2161103,0,0,1.2161103,264.38541,68.941218)">
	<path id="path78" d="M-128.459-35.064c0-0.738,0.434-1.086,0.834-1.086c0.434,0,0.792,0.348,0.792,1.086
		c0,0.737-0.434,1.084-0.834,1.084C-128.101-33.98-128.459-34.327-128.459-35.064z M-128.918-35.064
		c0,0.875,0.465,1.405,1.245,1.405c0.845,0,1.3-0.716,1.3-1.405c0-0.872-0.467-1.406-1.246-1.406
		C-128.464-36.471-128.918-35.755-128.918-35.064z"/>
</g>
<g id="g80" transform="matrix(1.2161103,0,0,1.2161103,273.00153,65.213836)">
	<path id="path82" d="M-132.96-33.332h0.517c0-0.155,0.006-0.336,0.022-0.513c0.059-0.652,0.508-0.876,1.117-0.876v0.353h-0.187
		c-0.358,0-0.513,0.289-0.524,0.61l-0.016,0.426h0.727v0.321h-0.711l-0.022,2.341h-0.427l0.02-2.341h-0.517V-33.332z"/>
</g>
<g id="g84" transform="matrix(1.2161103,0,0,1.2161103,282.32177,66.212261)">
	<path id="path86" d="M-136.661-35.189h0.475l1.119,3.122l1.202-3.122h0.496l0.589,3.699l-0.45,0.075l-0.471-3.164h-0.01
		l-1.149,3.088h-0.438l-1.074-3.088h-0.011l-0.507,3.164l-0.443-0.075L-136.661-35.189z"/>
</g>
<g id="g88" transform="matrix(1.2161103,0,0,1.2161103,296.97833,68.941218)">
	<path id="path90" d="M-142.679-34.371c-0.166,0.204-0.369,0.39-0.631,0.39c-0.294,0-0.475-0.155-0.475-0.453
		c0-0.455,0.385-0.594,1.128-0.691L-142.679-34.371z M-141.867-34.07c-0.069,0.047-0.133,0.09-0.224,0.09
		c-0.165,0-0.193-0.186-0.193-0.379c0-0.471,0.043-0.936,0.043-1.437c0-0.413-0.225-0.674-0.668-0.674
		c-0.385,0-0.556,0.096-1.091,0.444l0.177,0.276c0.389-0.294,0.561-0.368,0.769-0.368c0.283,0,0.406,0.17,0.406,0.402
		c0,0.112-0.005,0.223-0.01,0.336c-0.583,0.021-1.556,0.198-1.556,0.952c0,0.448,0.299,0.769,0.77,0.769
		c0.342,0,0.598-0.193,0.801-0.443c0.021,0.225,0.155,0.443,0.396,0.443c0.187,0,0.348-0.075,0.497-0.193L-141.867-34.07z"/>
</g>
<g id="g92" transform="matrix(1.2161103,0,0,1.2161103,305.5653,68.941218)">
	<path id="path94" d="M-148.222-36.397h0.428l-0.015,0.429h0.01c0.225-0.322,0.588-0.503,0.903-0.503
		c0.615,0,0.812,0.316,0.812,0.807c0,0.203-0.005,0.406-0.005,0.609l-0.01,1.32h-0.428l0.011-1.197c0-0.236,0.005-0.471,0.005-0.732
		c0-0.289-0.192-0.422-0.486-0.422c-0.278,0-0.524,0.161-0.797,0.491l-0.021,1.86h-0.428L-148.222-36.397z"/>
</g>
<g id="g96" transform="matrix(1.2161103,0,0,1.2161103,313.90904,68.941218)">
	<path id="path98" d="M-150.625-34.371c-0.165,0.204-0.369,0.39-0.631,0.39c-0.294,0-0.475-0.155-0.475-0.453
		c0-0.455,0.385-0.594,1.127-0.691L-150.625-34.371z M-149.812-34.07c-0.069,0.047-0.133,0.09-0.225,0.09
		c-0.165,0-0.193-0.186-0.193-0.379c0-0.471,0.043-0.936,0.043-1.437c0-0.413-0.225-0.674-0.668-0.674
		c-0.385,0-0.556,0.096-1.09,0.444l0.177,0.276c0.389-0.294,0.561-0.368,0.769-0.368c0.283,0,0.406,0.17,0.406,0.402
		c0,0.112-0.005,0.223-0.011,0.336c-0.582,0.021-1.555,0.198-1.555,0.952c0,0.448,0.299,0.769,0.769,0.769
		c0.342,0,0.599-0.193,0.802-0.443c0.022,0.225,0.155,0.443,0.395,0.443c0.187,0,0.348-0.075,0.497-0.193L-149.812-34.07z"/>
</g>
<g id="g100" transform="matrix(1.2161103,0,0,1.2161103,321.94999,68.941218)">
	<path id="path102" d="M-155.504-33.232c0-0.245,0.117-0.416,0.581-0.668c0.862,0.155,1.086,0.252,1.086,0.556
		c0,0.438-0.556,0.615-0.888,0.615C-155.035-32.729-155.504-32.837-155.504-33.232z M-153.237-36.364l-0.888,0.016
		c-0.149-0.092-0.326-0.123-0.497-0.123c-0.503,0-0.952,0.353-0.952,0.876c0,0.31,0.092,0.53,0.337,0.723
		c-0.459,0.262-0.62,0.4-0.62,0.561c0,0.161,0.17,0.299,0.641,0.342v0.01c-0.283,0.15-0.716,0.365-0.716,0.739
		c0,0.615,0.753,0.748,1.231,0.748c0.55,0,1.325-0.31,1.325-0.962c0-0.477-0.449-0.647-1.143-0.748
		c-0.759-0.113-0.846-0.188-0.846-0.284c0-0.063,0.048-0.128,0.294-0.31c0.149,0.071,0.295,0.103,0.465,0.103
		c0.519,0,0.93-0.376,0.93-0.888c0-0.171-0.047-0.348-0.191-0.513l0.631,0.017V-36.364z M-154.104-35.567
		c0,0.326-0.149,0.604-0.544,0.604c-0.322,0-0.497-0.278-0.497-0.588c0-0.374,0.223-0.631,0.513-0.631
		C-154.253-36.182-154.104-35.925-154.104-35.567z"/>
</g>
<g id="g104" transform="matrix(1.2161103,0,0,1.2161103,330.83854,68.941218)">
	<path id="path106" d="M-159.605-35.413c0.069-0.363,0.326-0.737,0.727-0.737c0.434,0,0.593,0.358,0.593,0.737H-159.605z
		 M-157.857-35.124v-0.085c0-0.716-0.311-1.262-1.027-1.262c-0.715,0-1.219,0.674-1.219,1.406c0,0.871,0.428,1.405,1.166,1.405
		c0.395,0,0.743-0.203,1.016-0.476l-0.209-0.229c-0.23,0.209-0.455,0.384-0.759,0.384c-0.545,0-0.753-0.496-0.753-1.052v-0.092
		H-157.857z"/>
</g>
<g id="g108" transform="matrix(1.2161103,0,0,1.2161103,339.39511,68.941218)">
	<path id="path110" d="M-164.086-36.397h0.433l-0.006,0.391h0.01c0.219-0.268,0.519-0.465,0.877-0.465
		c0.332,0,0.599,0.165,0.668,0.491c0.23-0.251,0.588-0.491,0.925-0.491c0.551,0,0.748,0.316,0.748,0.807
		c0,0.203-0.006,0.406-0.006,0.609l-0.01,1.32h-0.428l0.011-1.197c0-0.236,0.006-0.471,0.006-0.732c0-0.289-0.194-0.422-0.423-0.422
		c-0.315,0-0.545,0.191-0.759,0.443l-0.032,1.908h-0.422l0.012-1.197c0-0.236,0.004-0.471,0.004-0.732
		c0-0.289-0.193-0.422-0.422-0.422c-0.315,0-0.545,0.191-0.759,0.443l-0.032,1.908h-0.428L-164.086-36.397z"/>
</g>
<g id="g112" transform="matrix(1.2161103,0,0,1.2161103,351.99403,68.941218)">
	<path id="path114_1_" d="M-169.534-35.413c0.07-0.363,0.326-0.737,0.728-0.737c0.432,0,0.593,0.358,0.593,0.737H-169.534z
		 M-167.786-35.124v-0.085c0-0.716-0.311-1.262-1.027-1.262c-0.716,0-1.218,0.674-1.218,1.406c0,0.871,0.428,1.405,1.165,1.405
		c0.396,0,0.743-0.203,1.016-0.476l-0.209-0.229c-0.23,0.209-0.454,0.384-0.759,0.384c-0.545,0-0.754-0.496-0.754-1.052v-0.092
		H-167.786z"/>
</g>
<g id="g116" transform="matrix(1.2161103,0,0,1.2161103,360.57971,68.941218)">
	<path id="path118" d="M-174.039-36.397h0.427l-0.016,0.429h0.01c0.226-0.322,0.589-0.503,0.904-0.503
		c0.614,0,0.812,0.316,0.812,0.807c0,0.203-0.005,0.406-0.005,0.609l-0.011,1.32h-0.427l0.011-1.197
		c0-0.236,0.005-0.471,0.005-0.732c0-0.289-0.193-0.422-0.487-0.422c-0.277,0-0.523,0.161-0.797,0.491l-0.021,1.86h-0.428
		L-174.039-36.397z"/>
</g>
<g id="g120" transform="matrix(1.2161103,0,0,1.2161103,368.63643,66.365498)">
	<path id="path122" d="M-177.381-34.279l0.01-0.983h0.428l-0.011,0.983h0.728v0.321h-0.732l-0.012,1.09
		c-0.005,0.3-0.005,0.498-0.005,0.633c0,0.218,0.064,0.34,0.247,0.34c0.144,0,0.326-0.09,0.427-0.154l0.139,0.278
		c-0.176,0.117-0.434,0.23-0.668,0.23c-0.412,0-0.573-0.256-0.573-0.679c0-0.177,0-0.395,0.006-0.764l0.011-0.973h-0.455v-0.321
		H-177.381z"/>
</g>
<g id="g124" transform="matrix(1.2161103,0,0,1.2161103,100.2443,28.284215)">
	<path id="path126" d="M-42.722-17.39l-0.449,0.016l-0.134,0.008c-0.001,0-0.043,0.002-0.043,0.002
		c-0.192,0.013-0.389,0.026-0.572,0.026c-0.266,0-0.516-0.014-0.756-0.026l-0.043-0.002c-0.278-0.017-0.475-0.022-0.661-0.022
		h-0.106v0.589h0.321c0.581,0,0.697,0.118,0.697,0.311c0,0.12-0.027,0.333-0.156,0.665c-0.073,0.187-1.604,4.07-1.977,5.015
		c-0.385-0.984-2.033-5.179-2.112-5.38c-0.068-0.176-0.106-0.327-0.106-0.364c0-0.096,0.149-0.247,0.548-0.247h0.396v-0.59h-0.107
		l-0.553,0.016l-0.153,0.006c0.001,0-0.164,0.006-0.164,0.006c-0.341,0.012-0.694,0.024-0.993,0.024
		c-0.32,0-0.647-0.014-0.964-0.027c-0.298-0.011-0.642-0.024-0.975-0.024h-0.106v0.589h0.232c0.489,0,0.73,0.09,0.959,0.651
		c0,0.001,3.27,7.947,3.27,7.947h0.602l0.031-0.057c0.089-0.204,0.502-1.202,1.299-3.148c0.651-1.584,2.005-4.881,2.074-5.006
		c0.179-0.359,0.373-0.387,0.574-0.387h0.233v-0.59h-0.088H-42.722z"/>
</g>
<g id="g128" transform="matrix(1.2161103,0,0,1.2161103,126.53915,28.032485)">
	<path id="path130" d="M-56.147-9.213c-0.13-0.301-0.255-0.668-0.375-1.023l-0.087-0.253c0,0,0.002,0.013,0.003,0.022
		c-0.012-0.049-0.173-0.501-2.266-6.397c-0.001-0.002-0.118-0.31-0.118-0.31c-0.036-0.098-0.102-0.091-0.179-0.084l-0.026,0.002
		c0.001,0-0.041,0.004-0.041,0.004c0.002,0-0.139,0.011-0.139,0.011l-0.303,0.024c-0.002,0-0.02,0.001-0.02,0.001
		c-0.189,0.006-0.313,0.01-0.593-0.004h-0.088l-0.02,0.081c-0.076,0.297-0.252,0.777-0.409,1.203l-0.067,0.186l-0.163,0.45
		c-0.001,0.001-2.014,5.78-2.014,5.78c-0.166,0.467-0.537,0.747-0.993,0.747h-0.182v0.598l0.123-0.009
		c-0.002,0,0.152-0.009,0.152-0.009c0.39-0.019,0.795-0.04,1.19-0.04c0.441,0,0.907,0.021,1.319,0.04c0,0,0.196,0.009,0.198,0.009
		c0.001,0,0.113,0.01,0.113,0.01v-0.585h-0.244c-0.252,0-0.838-0.034-0.838-0.348c0-0.135,0.066-0.326,0.141-0.548l0.132-0.403
		c0,0,0.3-0.976,0.379-1.233c0.12,0,2.583,0,2.701,0c0.035,0.108,0.467,1.386,0.467,1.386c0.121,0.355,0.246,0.721,0.246,0.872
		c0,0.254-0.467,0.273-0.61,0.273h-0.246v0.579l0.308-0.012c0.524-0.02,1.066-0.042,1.624-0.042c0.531,0,1.041,0.021,1.534,0.04
		l0.186,0.009l0.124,0.008v-0.597h-0.183C-55.795-8.773-56.013-8.905-56.147-9.213z M-59.197-12.212c-0.204,0-1.853,0-2.057,0
		c0.161-0.491,0.801-2.441,1.033-3.147C-60.145-15.124-59.267-12.423-59.197-12.212z"/>
</g>
<g id="g132" transform="matrix(1.2161103,0,0,1.2161103,156.04638,28.284215)">
	<path id="path134" d="M-68.565-17.365l-0.102,0.004c-0.27,0.012-0.512,0.022-0.76,0.022c-0.296,0-0.604-0.014-0.875-0.027
		c-0.268-0.011-0.579-0.024-0.887-0.024h-0.105v0.589h0.382c0.357,0,0.956,0.14,0.956,1.078c0.002,0.041,0.024,3.556,0.031,4.49
		c-0.883-0.994-5.391-6.074-5.442-6.13l-0.026-0.029h-0.048c-0.196,0-0.393,0.011-0.566,0.022c0.001,0-0.067,0.004-0.067,0.004
		l-0.487,0.017l-0.601-0.017l-0.083-0.004c-0.198-0.01-0.436-0.02-0.692-0.02h-0.109l0.011,0.545l0.264,0.014
		c0.24-0.002,0.478,0.1,0.657,0.279c0.198,0.199,0.308,0.475,0.308,0.778l-0.039,5.299c0,0.956-0.154,1.508-0.948,1.508
		l-0.283,0.013v0.561h0.108c0.277,0,0.552-0.012,0.818-0.022l0.022-0.002c0.326-0.018,0.59-0.026,0.832-0.026
		c0.233,0,0.49,0.008,0.805,0.026c0.002,0,0.022,0.002,0.022,0.002l0.797,0.022h0.107V-8.98h-0.321
		c-0.809-0.005-1.044-0.312-1.044-1.366c0,0-0.025-3.908-0.031-4.904c0.293,0.327,6.325,7.049,6.325,7.049h0.646l-0.014-0.121
		c-0.066-0.406-0.075-0.862-0.075-1.256l0.035-5.727c0-1.494,0.551-1.494,0.955-1.494c0.002,0,0.295-0.01,0.295-0.01v-0.571h-0.108
		L-68.565-17.365z"/>
</g>
<g id="g136" transform="matrix(1.2161103,0,0,1.2161103,191.25582,28.284215)">
	<path id="path138" d="M-86.722-16.167c-0.906-0.801-2.195-1.224-3.729-1.224l-0.762,0.02l-0.055,0.002
		c-0.373,0.015-0.777,0.03-1.21,0.03c-0.463,0-0.943-0.018-1.355-0.034c-0.002-0.001-0.247-0.008-0.247-0.008l-0.41-0.009h-0.107
		v0.589h0.283c0.522,0,0.824,0.1,0.824,0.614v6.594c0,0.572-0.345,0.619-0.76,0.619l-0.283,0.011v0.571h0.106l0.573-0.015
		l0.147-0.005c0.371-0.013,0.831-0.029,1.294-0.029c1.032,0,2.01,0.036,2.285,0.049c1.247,0.075,2.438-0.357,3.351-1.219
		c0.908-0.855,1.428-2.06,1.428-3.306C-85.351-14.246-85.825-15.37-86.722-16.167z M-87.325-12.678c0,0.967-0.284,1.841-0.797,2.461
		c-0.561,0.676-1.372,1.034-2.343,1.034c-0.854,0-1.201-0.08-1.201-0.888c0,0,0-6.349,0-6.504c0.048-0.004,0.099-0.01,0.099-0.01
		c0.212-0.022,0.431-0.044,0.65-0.044c1.133,0,1.962,0.247,2.534,0.757C-87.672-15.237-87.325-14.192-87.325-12.678z"/>
</g>
<g id="g140" transform="matrix(1.2161103,0,0,1.2161103,223.58369,28.284215)">
	<path id="path142" d="M-103.13-10.571c-0.178,0.68-0.376,1.011-0.704,1.178c-0.332,0.167-0.815,0.167-1.546,0.167h-0.029
		c-0.886,0-1.428-0.035-1.428-0.713c0,0,0-2.591,0-2.755c0.154,0,1.442,0,1.442,0c0.76,0,0.821,0.311,0.898,1.077
		c0.001,0.002,0.015,0.12,0.015,0.12l0.561-0.119l-0.008-0.093c-0.026-0.502-0.037-0.909-0.037-1.357
		c0-0.489,0.013-0.843,0.037-1.327l0.008-0.113l-0.533,0.013l-0.012,0.092c-0.075,0.671-0.285,0.864-0.942,0.864
		c0,0-1.276,0-1.429,0c0-0.16,0-2.853,0-3.013c0.157,0,1.642,0,1.642,0c1.254,0,1.344,0.414,1.405,1.207
		c0,0.004,0.015,0.128,0.015,0.128l0.553-0.146l-0.008-0.09c-0.034-0.497-0.003-1.142,0.021-1.66l0.014-0.278h-0.092h-0.02
		c-0.406,0-0.915,0.01-1.447,0.024l-0.112,0.002c-0.562,0.012-1.143,0.026-1.665,0.026c-0.588,0-1.29-0.017-1.804-0.028
		c-0.581-0.016-1.016-0.022-1.329-0.022h-0.107v0.589h0.283c0.524,0,0.825,0.1,0.825,0.614v6.594c0,0.538-0.27,0.643-0.737,0.643
		h-0.283v0.558h0.106l1.282-0.018c0.624-0.014,1.347-0.031,1.98-0.031c0.614,0,1.319,0.016,1.926,0.031
		c0.001,0,0.112,0.002,0.112,0.002L-103-8.391h0.093l0.013-0.091c0,0.002,0.103-0.691,0.103-0.691
		c0.059-0.426,0.116-0.829,0.222-1.258c0-0.004,0.022-0.106,0.022-0.106l-0.559-0.139L-103.13-10.571z"/>
</g>
<g id="g144" transform="matrix(1.2161103,0,0,1.2161103,280.98041,28.284215)">
	<path id="path146" d="M-131.386-13.309c0.875-0.264,1.738-0.821,1.738-1.998c0-0.627-0.229-1.125-0.68-1.483
		c-0.504-0.398-1.276-0.6-2.294-0.6c-0.27,0-0.568,0.01-0.903,0.024l-0.062,0.002c-0.34,0.012-0.694,0.026-1.048,0.026
		c-0.351,0-0.699-0.014-1.034-0.026l-0.06-0.002c-0.371-0.016-0.639-0.022-0.868-0.022h-0.107v0.589h0.282
		c0.523,0,0.826,0.1,0.826,0.614v6.594c0,0.512-0.303,0.612-0.826,0.612h-0.282v0.589h0.107l0.843-0.016l0.077-0.002
		c0.408-0.014,0.881-0.031,1.307-0.031c0.42,0,0.831,0.014,1.214,0.028c0.001,0,0.987,0.021,0.987,0.021
		c0.817,0,1.588-0.271,2.168-0.76c0.586-0.493,0.909-1.145,0.909-1.835c0-0.613-0.223-1.155-0.648-1.567
		C-130.146-12.947-130.741-13.214-131.386-13.309z M-133.257-13.569c0,0-0.352-0.01-0.517-0.015c0-0.156,0-2.907,0-3.068
		c0.137,0,0.648,0,0.648,0c0.781,0,1.578,0.188,1.578,1.585C-131.548-14.059-132.108-13.569-133.257-13.569z M-130.991-10.939
		c0,1.045-0.74,1.803-1.757,1.803c-0.891,0-1.025-0.126-1.025-0.962c0,0,0-2.581,0-2.748c0.138,0.003,0.697,0.013,0.697,0.013
		c0.626,0,1.143,0.157,1.499,0.45C-131.189-12.058-130.991-11.573-130.991-10.939z"/>
</g>
<g id="g148" transform="matrix(1.2161103,0,0,1.2161103,309.72684,28.284215)">
	<path id="path150" d="M-146.275-17.39l-0.72,0.016l-0.227,0.008c-0.001,0-0.066,0.002-0.066,0.002
		c-0.314,0.012-0.641,0.026-0.939,0.026c-0.303,0-0.638-0.014-0.964-0.026l-0.067-0.002c-0.362-0.016-0.626-0.022-0.832-0.022
		h-0.108v0.589h0.283c0.523,0,0.825,0.1,0.825,0.614v6.594c0,0.512-0.302,0.612-0.825,0.612h-0.283v0.589h0.108l0.826-0.021
		c0.316-0.014,0.686-0.028,1.023-0.028c0.316,0,0.667,0.013,0.999,0.026l0.035,0.002l0.93,0.021h0.108V-8.98h-0.283
		c-0.523,0-0.824-0.101-0.824-0.612v-6.594c0-0.514,0.301-0.614,0.824-0.614h0.283v-0.59h-0.087H-146.275z"/>
</g>
<g id="g152" transform="matrix(1.2161103,0,0,1.2161103,329.53607,28.284215)">
	<path id="path154" d="M-152.953-10.621c-0.077,0.285-0.158,0.497-0.343,0.75c-0.231,0.32-0.644,0.542-1.103,0.596
		c-0.531,0.058-0.935,0.066-1.491,0.024c-0.459-0.058-0.656-0.236-0.656-0.597v-6.377c0-0.575,0.282-0.575,0.749-0.575h0.421v-0.59
		h-0.087h-0.02c-0.308,0-0.619,0.012-0.919,0.024l-0.04,0.002c-0.31,0.013-0.631,0.027-0.952,0.027
		c-0.333,0-0.668-0.014-0.991-0.027c-0.302-0.011-0.653-0.024-0.998-0.024h-0.108v0.589h0.284c0.531,0,0.836,0.1,0.836,0.614v6.468
		c0,0.681-0.396,0.739-0.836,0.739h-0.284v0.589h0.108l1.623-0.022l0.041-0.002c0.651-0.018,1.179-0.026,1.659-0.026
		c0.478,0,0.967,0.008,1.582,0.026c0.002,0,0.046,0.002,0.046,0.002c0.495,0.01,1.005,0.022,1.545,0.022h0.088l0.017-0.086
		c0.1-0.473,0.18-0.907,0.266-1.366l0.161-0.852h-0.573L-152.953-10.621z"/>
</g>
<g id="g156" transform="matrix(1.2161103,0,0,1.2161103,250.66643,28.284215)">
	<path id="path158" d="M-114.767-9.679c-0.005-0.005-1.617-2.2-1.617-2.2c-0.271-0.359-0.508-0.595-0.706-0.703
		c0.866-0.391,1.796-1.231,1.796-2.446c0-0.863-0.32-1.498-0.952-1.887c-0.511-0.315-1.234-0.474-2.15-0.474l-0.753,0.017
		l-0.198,0.007l-0.056,0.002c-0.32,0.013-0.65,0.027-1.018,0.027c-0.425,0-0.861-0.016-1.267-0.032
		c-0.001,0-0.127-0.004-0.127-0.004l-0.557-0.014h-0.107v0.589h0.335c0.43,0,0.785,0.064,0.785,0.852v6.393
		c0,0.546-0.559,0.589-0.731,0.589l-0.335,0.012v0.562h0.108c0.3,0,0.581-0.01,0.907-0.025c0.271-0.012,0.565-0.024,0.863-0.024
		c0.311,0,0.654,0.008,1.077,0.026c0.002,0,0.031,0.002,0.031,0.002l1.056,0.022h0.107V-8.98h-0.333c-0.573,0-0.925-0.044-0.925-0.9
		c0,0,0-2.239,0-2.405c0.134,0.004,0.573,0.016,0.573,0.016c0.178,0.011,0.316,0.055,0.442,0.242
		c0.299,0.455,1.003,1.523,2.081,2.937c0.504,0.689,1.149,0.689,1.62,0.689c0.002,0,1.424,0.005,1.424,0.005v-0.565l-0.097-0.01
		C-114.159-9.007-114.37-9.081-114.767-9.679z M-117.194-14.953c0,0.67-0.163,1.17-0.483,1.486
		c-0.297,0.298-0.744,0.445-1.327,0.441c-0.005-0.001-0.406-0.03-0.529-0.039c0-0.152,0-3.393,0-3.54
		c0.033-0.003,0.067-0.006,0.067-0.006c0.128-0.015,0.285-0.033,0.543-0.033C-117.857-16.644-117.194-15.996-117.194-14.953z"/>
</g>
<g id="g160" transform="matrix(1.2161103,0,0,1.2161103,350.84353,28.075048)">
	<path id="path162" d="M-161.161-17.252l-0.279,0.022c-0.002,0-0.039,0.002-0.039,0.002l-0.561,0.01h-6.047
		c-0.299,0-0.487-0.013-0.67-0.026c0,0-0.039-0.002-0.041-0.002c0,0-0.02-0.003-0.02-0.003c-0.004,0-0.473-0.043-0.473-0.043v0.096
		v0.021c0,0.284-0.008,0.418-0.047,0.756c0,0-0.009,0.077-0.009,0.077c0-0.001-0.016,0.135-0.016,0.135l-0.116,0.92l-0.012,0.097
		h0.585l0.022-0.077c0.191-0.926,0.215-1.046,1.076-1.052c0,0,1.534,0,1.692,0c0,0.169,0,6.56,0,6.56
		c0,0.913-0.287,0.951-0.938,0.951h-0.345v0.589h0.105l0.849-0.018c0.4-0.014,0.864-0.031,1.279-0.031
		c0.357,0,0.781,0.014,1.156,0.027l0.025,0.001l0.87,0.021h0.108v-0.589h-0.346c-0.549,0-0.937-0.07-0.937-0.976
		c0,0,0-6.366,0-6.535c0.157,0,1.747,0,1.747,0c0.781,0.006,0.818,0.698,0.84,1.068c0,0.005,0.007,0.133,0.007,0.133l0.576-0.144
		v-0.084l0.021-1.003c0.01-0.334,0.034-0.636,0.048-0.787c0-0.001,0.011-0.129,0.011-0.129l-0.127,0.012H-161.161z"/>
</g>
<g id="g164" transform="matrix(1.2161103,0,0,1.2161103,16.056636,14.553855)">
	<path id="path166" fill="#997F3D" d="M-12.38-10.947v25.918h25.915v-25.918H-12.38z M12.81-10.222c0,0.695,0,23.773,0,24.468
		c-0.693,0-23.771,0-24.465,0c0-0.695,0-23.774,0-24.468C-10.961-10.222,12.117-10.222,12.81-10.222z"/>
</g>
</svg>
