<?xml version="1.0" encoding="utf-8"?>
<!-- Generator: Adobe Illustrator 16.0.0, SVG Export Plug-In . SVG Version: 6.00 Build 0)  -->
<!DOCTYPE svg PUBLIC "-//W3C//DTD SVG 1.1//EN" "http://www.w3.org/Graphics/SVG/1.1/DTD/svg11.dtd">
<svg version="1.1" id="Layer_1" xmlns="http://www.w3.org/2000/svg" xmlns:xlink="http://www.w3.org/1999/xlink" x="0px" y="0px"
	 width="176px" height="45px" viewBox="0 0 176 45" enable-background="new 0 0 176 45" xml:space="preserve">
<path fill="#004785" d="M107.167,26.511v-5.566c-1.803,0.778-6.439,1.907-6.439,4.323c0,1.601,1.2,2.929,2.878,2.929
	C105.127,28.197,106.005,27.373,107.167,26.511L107.167,26.511z M107.219,19.978v-4.25c0-1.56-1-1.973-2.478-1.973
	c-1.44,0-3.51,0.971-3.522,1.817c0,0.234,0.095,0.519,0.095,0.912c0,1.48-0.372,2.481-2.089,2.481c-0.722,0-1.198-0.705-1.198-1.328
	c0-0.857,0.599-1.676,1.439-2.379c1.797-1.479,4.674-2.689,7.032-2.689c2.44,0,3.757,1.443,3.757,3.783v10.451
	c0,0.665,0,1.836,0.922,1.836c0.639,0,1.001-0.819,1.118-1.328h0.642c-0.2,1.874-0.999,2.966-2.917,2.966
	c-1.481,0-2.72-1.328-2.762-2.688c-1.878,1.36-3.155,2.688-5.637,2.688c-1.839,0-3.556-1.441-3.556-3.317
	C98.065,22.67,103.981,21.345,107.219,19.978L107.219,19.978z"/>
<path fill="#004785" d="M141.939,21.406c0,3.007,1.122,7.968,5.036,7.968c3.8,0,5.121-3.947,5.121-7.027
	c0-3.319-0.482-8.981-5.078-8.981C143.1,13.365,141.939,18.483,141.939,21.406L141.939,21.406z M138.542,21.256
	c0-4.725,3.397-8.741,8.355-8.741c5.236,0,8.596,3.938,8.596,8.891c0,5.073-3.279,8.817-8.553,8.817
	C141.581,30.223,138.542,26.208,138.542,21.256L138.542,21.256z"/>
<path fill="#004785" d="M41.402,3.717V2.812h9.083v0.906c-1.678,0.041-2.315,0.035-2.315,1.047c0,0.04,0.027,0.309,0.188,0.699
	l5.478,18.605l7.705-22.145h0.634l6.728,21.869c0,0,5.317-15.984,5.317-18.25c0-1.79-1.133-1.672-2.57-1.825V2.812l5.567-0.005
	c2.455,0,4.952-0.833,6.372-1.688v14.146c1.726-1.539,3.197-2.772,5.675-2.772c1.838,0,3.56,0.821,4.479,2.382
	c0.841,1.364,1.001,2.652,1.001,4.172v7.84c0,2.029,0.519,2.029,2.277,2.143v0.745h-7.597v-0.745c1.642-0.113,2.16-0.113,2.16-2.143
	v-7.84c0-1.251,0-1.793-0.56-2.964c-0.641-1.131-1.78-2.227-3.238-1.99c-2.202,0.358-3.051,1.385-4.198,2.477v10.317
	c0,2.029,0.521,2.029,2.199,2.143v0.745h-7.675v-0.745c1.8-0.113,2.318-0.113,2.318-2.143V3.959
	c0.046-0.036-0.623-0.009-1.438,0.008c-3.068,0.194-3.147,2.523-4.123,5.321l-6.89,20.98h-0.718L60.467,9.239l-7.871,21.029h-0.682
	L44.65,7.182c-0.434-1.205-0.641-2.222-1.279-2.885C43.012,3.946,42.997,3.715,41.402,3.717L41.402,3.717z"/>
<path fill="#004785" d="M163.528,29.793v-0.738c-1.721-0.12-2.238-0.12-2.238-2.148v-9.24c0-1.797,2.399-3.435,4.118-3.435
	c2.597,0,3.994,1.638,3.994,4.095v8.58c0,2.028-0.516,2.028-2.315,2.148v0.738H175v-0.738c-1.356-0.12-2.436-0.12-2.436-2.148v-9.24
	c0-2.929-2.96-5.151-5.837-5.151c-2.52,0-3.799,1.166-5.438,2.806v-2.806c-1.717,0.625-3.539,1.531-5.416,1.783v0.617
	c1.667,0.175,2.26,0.711,2.26,2.188v9.803c0,2.028-0.522,2.028-2.319,2.148v0.738H163.528L163.528,29.793z"/>
<path fill="#004785" d="M121.764,29.793v-0.738c-2.035-0.12-2.555-0.12-2.555-2.148V16.571c0-0.623,1.034-1.592,2.156-1.61
	c1.04-0.013,1.221,1.205,2.524,1.205c1.604,0,1.994-0.854,1.994-2.021c0-1.21-1.304-1.901-2.76-1.901
	c-1.72,0-3.047,1.492-3.998,2.801v-2.643c-1.812,0.831-3.772,1.605-5.563,1.889v0.625c1.785,0.183,2.486,0.606,2.486,2.125v9.867
	c0,2.028-0.521,2.028-2.239,2.148v0.738H121.764L121.764,29.793z"/>
<path fill="#004785" d="M138.448,13.472l0.581-2.148h-6.877V7.848h-0.406c-1.607,1.912-3.154,3.529-5.009,5.171v0.454h2.185v11.752
	c0,2.79,1.256,5.104,4.278,5.104c2.595,0,4.575-1.887,5.643-3.146l-0.473-0.66c-0.944,1.054-2.189,1.66-3.323,1.66
	c-2.31,0-2.895-1.242-2.895-3.387V13.472H138.448L138.448,13.472z"/>
<path fill="#004785" d="M45.985,34.79v0.333l0.041,0.003c0.496,0.055,0.741,0.207,0.78,0.484l0.02,0.131l0.038,0.379v2.652
	c0,1.521-0.692,2.355-1.948,2.355c-1.201,0-1.737-0.714-1.737-2.309v-2.9c-0.002-0.699-0.002-0.699,0.665-0.777l0.155-0.019V34.79
	h-2.656v0.333l0.154,0.019c0.667,0.078,0.667,0.078,0.667,0.775v2.947c0,1.939,0.836,2.804,2.704,2.804
	c1.191,0,2.583-0.75,2.583-2.858V36.12l0.039-0.381l0.016-0.129c0.04-0.279,0.279-0.43,0.779-0.484l0.041-0.003V34.79H45.985z"/>
<path fill="#004785" d="M52.759,36.313v0.276l0.041,0.005c0.495,0.039,0.7,0.141,0.733,0.365l0.012,0.096l0.028,0.296
	c0,0,0,2.71,0,2.913c-0.12-0.146-3.265-3.934-3.265-3.934l-1.419-0.018v0.281h0.045c0.409,0,0.627,0.238,0.819,0.482l-0.013,3.438
	l-0.023,0.278L49.7,40.904c-0.031,0.216-0.216,0.328-0.594,0.365l-0.04,0.003v0.279h1.892v-0.279l-0.041-0.003
	c-0.488-0.037-0.701-0.14-0.731-0.365l-0.016-0.116l-0.03-0.273c0,0,0-2.897,0-3.128c0.15,0.178,2.091,2.474,2.091,2.474
	l1.427,1.691h0.318v-4.2l0.029-0.292l0.014-0.1c0.027-0.213,0.21-0.323,0.593-0.365l0.041-0.005v-0.276H52.759z"/>
<path fill="#004785" d="M55.917,36.313v0.276l0.129,0.016c0.506,0.061,0.506,0.061,0.505,0.593v3.471
	c0.001,0.529,0.001,0.529-0.505,0.59l-0.129,0.017v0.276h2.069v-0.276l-0.124-0.017c-0.509-0.061-0.509-0.061-0.509-0.582v-3.49
	c0-0.521,0-0.521,0.509-0.581l0.124-0.016v-0.276H55.917z"/>
<path fill="#004785" d="M62.61,36.313v0.281h0.046c0.246,0,0.408,0.055,0.483,0.166c0.031,0.049,0.048,0.107,0.048,0.176
	c0,0.08-0.023,0.18-0.066,0.289l-0.334,0.83c0,0-0.912,2.234-0.996,2.438c-0.073-0.215-1.057-3.135-1.057-3.135
	c-0.058-0.167-0.084-0.304-0.084-0.413c0-0.089,0.019-0.158,0.055-0.211c0.07-0.099,0.207-0.141,0.442-0.141h0.046v-0.281h-2.09
	v0.281h0.045c0.299,0,0.525,0.161,0.807,0.988l1.409,3.969h0.441l1.872-4.543c0.152-0.372,0.396-0.414,0.568-0.414h0.044v-0.281
	H62.61z"/>
<path fill="#004785" d="M65.334,36.313v0.276l0.125,0.016c0.508,0.061,0.508,0.061,0.508,0.587v3.479c0,0.526,0,0.526-0.508,0.587
	l-0.126,0.017l0.001,0.276h3.702l0.233-1.412h-0.272l-0.136,0.328c-0.219,0.553-0.298,0.758-1.188,0.758
	c-0.672,0-0.902-0.051-0.902-0.63c0,0,0-1.528,0-1.616c0.077,0,0.572,0,0.572,0c0.429,0,0.616,0.193,0.632,0.648v0.043h0.28v-1.658
	h-0.28v0.045c-0.016,0.426-0.192,0.592-0.632,0.592c0,0-0.495,0-0.572,0c0-0.084,0-1.925,0-2.013c0.083,0,0.955,0,0.955,0
	c0.484,0,0.628,0.349,0.703,0.915l0.007,0.039h0.272v-1.277H65.334z"/>
<path fill="#004785" d="M73.837,40.181c0,0-0.572-0.869-0.693-1.058c0.621-0.266,1.011-0.836,1.011-1.512
	c0-0.896-0.77-1.299-1.534-1.299h-2.183v0.276l0.126,0.016c0.507,0.061,0.507,0.061,0.504,0.597v3.467
	c0.003,0.529,0.003,0.529-0.504,0.59l-0.126,0.017v0.276h2.068v-0.276l-0.124-0.017c-0.486-0.058-0.508-0.061-0.508-0.519
	c0-0.019,0-1.384,0-1.468h0.646v0.004c0,0.041,0.627,1.154,0.627,1.154c0.404,0.747,0.606,1.121,0.934,1.121h0.803V41.41
	C74.638,41.241,74.267,40.806,73.837,40.181z M72.439,38.948c0,0-0.486,0-0.565,0v-2.312c0.076,0,0.521,0,0.521,0
	c0.427,0,0.932,0.183,0.932,1.038C73.326,38.517,73.028,38.948,72.439,38.948z"/>
<path fill="#004785" d="M76.038,37.452c0,0.789,0.472,1.102,0.853,1.354l0.057,0.039c1.129,0.745,1.343,1.124,1.343,1.558
	c0,0.498-0.396,0.891-0.903,0.891c-0.647,0-1.071-0.413-1.14-1.1l-0.004-0.041h-0.279v1.104c0,0.096,0.052,0.133,0.08,0.143
	c0.423,0.165,0.829,0.24,1.276,0.24c0.883,0,1.823-0.493,1.823-1.406c0-0.621-0.254-1.008-1.046-1.602l-0.263-0.196
	c-0.584-0.429-0.97-0.715-0.97-1.144c0-0.451,0.285-0.715,0.764-0.715c0.678,0,0.844,0.553,0.881,0.883l0.004,0.039h0.277v-1.012
	c0-0.025,0-0.094-0.082-0.12c-0.371-0.13-0.892-0.141-1.044-0.141C76.768,36.226,76.038,36.776,76.038,37.452z"/>
<path fill="#004785" d="M80.58,36.313v0.276l0.129,0.016c0.509,0.061,0.509,0.061,0.507,0.597v3.467
	c0.002,0.529,0.002,0.529-0.507,0.59l-0.129,0.017v0.276h2.075v-0.276l-0.128-0.017c-0.508-0.061-0.508-0.061-0.507-0.584V37.19
	c-0.001-0.524-0.001-0.524,0.507-0.585l0.128-0.016v-0.276H80.58z"/>
<path fill="#004785" d="M83.94,36.313l-0.216,1.213h0.265l0.066-0.131c0.217-0.441,0.373-0.759,0.937-0.759c0,0,0.541,0,0.619,0
	c0,0.091,0,4.072,0,4.093c0,0.469-0.019,0.472-0.507,0.529l-0.129,0.017v0.276h2.069v-0.276l-0.125-0.017
	c-0.482-0.058-0.505-0.061-0.505-0.516c0-0.02,0-4.016,0-4.106c0.079,0,0.616,0,0.616,0c0.565,0,0.724,0.32,0.938,0.764l0.062,0.126
	h0.268l-0.216-1.213H83.94z"/>
<path fill="#004785" d="M92.081,36.313v0.281h0.046c0.225,0,0.383,0.061,0.445,0.166c0.021,0.037,0.033,0.077,0.033,0.129
	c0,0.08-0.033,0.186-0.099,0.301c0,0-0.779,1.423-0.969,1.771c-0.071-0.146-0.854-1.771-0.854-1.771
	c-0.064-0.129-0.123-0.27-0.123-0.379c0-0.037,0.01-0.074,0.027-0.1c0.048-0.078,0.175-0.117,0.379-0.117h0.046v-0.281h-1.971v0.281
	h0.046c0.314,0,0.513,0.166,0.749,0.639l1.133,2.244l-0.005,1.197c0,0.523,0,0.523-0.509,0.584l-0.123,0.017v0.276h2.07v-0.276
	l-0.127-0.017c-0.505-0.061-0.505-0.061-0.503-0.582v-0.914c0-0.164,0.008-0.372,0.08-0.514l1.227-2.232
	c0.212-0.375,0.41-0.422,0.564-0.422h0.046v-0.281H92.081z"/>
<path fill="#004785" d="M97.403,39.747c0-1.253,1.08-3.121,2.669-3.121c1.268,0,1.546,0.857,1.546,1.717
	c0,1.048-0.839,3.278-2.661,3.278C97.737,41.621,97.403,40.64,97.403,39.747L97.403,39.747z M100.742,37.884
	c0-0.993-0.603-1.027-0.754-1.027c-1.031,0-1.707,1.849-1.707,3.089c0,0.496,0.086,1.389,0.789,1.389
	C100.158,41.334,100.742,39.544,100.742,37.884L100.742,37.884z"/>
<path fill="#004785" d="M106.055,36.941l-0.229,0.202h-1.25c-0.464,2.269-1.227,5.289-1.772,6.738h-0.428l1.363-6.738h-0.906
	l0.085-0.4h0.897c0.504-2.031,2.186-2.241,2.582-2.241c0.224,0,0.678,0.034,0.822,0.169l-0.117,0.63l-0.238,0.118
	c-0.135-0.261-0.436-0.557-0.836-0.557c-0.577,0-1.003,0.389-1.234,1.42l-0.102,0.461h1.4L106.055,36.941L106.055,36.941z"/>
<path fill="#004785" d="M109.993,34.79v0.333l0.152,0.019c0.667,0.078,0.667,0.078,0.666,0.772v4.515
	c0.001,0.691,0.001,0.691-0.664,0.77l-0.154,0.021v0.332h2.653v-0.332l-0.154-0.021c-0.638-0.072-0.663-0.078-0.663-0.688
	c0-0.026,0-5.235,0-5.323c0.076,0,0.534,0,0.534,0c1.048,0,1.535,0.481,1.535,1.514c0,0.551-0.153,0.993-0.45,1.285
	c-0.292,0.287-0.709,0.426-1.246,0.419h-0.044v0.274l0.04,0.002c0.867,0.053,1.652-0.188,2.157-0.658
	c0.384-0.369,0.592-0.856,0.592-1.412c0-1.191-0.835-1.82-2.413-1.82H109.993z"/>
<path fill="#004785" d="M116.169,36.313v0.276l0.13,0.016c0.506,0.061,0.506,0.061,0.502,0.593v3.471
	c0.004,0.529,0.004,0.529-0.502,0.59l-0.13,0.017v0.276h3.701l0.238-1.412h-0.273l-0.136,0.326c-0.222,0.553-0.304,0.76-1.189,0.76
	c-0.67,0-0.904-0.051-0.904-0.63c0,0,0-1.528,0-1.616c0.08,0,0.574,0,0.574,0c0.427,0,0.615,0.193,0.627,0.646v0.046h0.286v-1.658
	h-0.286v0.045c-0.012,0.426-0.187,0.592-0.627,0.592c0,0-0.494,0-0.574,0c0-0.084,0-1.925,0-2.013c0.084,0,0.955,0,0.955,0
	c0.485,0,0.631,0.349,0.705,0.915l0.007,0.039h0.274v-1.277H116.169z"/>
<path fill="#004785" d="M124.852,36.313v0.276l0.041,0.005c0.496,0.039,0.7,0.141,0.731,0.365l0.014,0.088l0.031,0.304
	c0,0,0,2.71,0,2.913c-0.121-0.146-3.267-3.934-3.267-3.934l-1.416-0.018v0.281h0.043c0.407,0,0.625,0.238,0.815,0.482l-0.008,3.438
	l-0.032,0.297l-0.016,0.093c-0.027,0.219-0.21,0.328-0.589,0.365l-0.041,0.003v0.279h1.893v-0.279l-0.043-0.003
	c-0.492-0.037-0.699-0.136-0.729-0.365l-0.014-0.103l-0.031-0.287c0,0,0-2.897,0-3.128c0.148,0.178,2.068,2.448,2.068,2.448
	l1.446,1.717h0.317v-4.2l0.028-0.285l0.016-0.106c0.028-0.213,0.213-0.323,0.595-0.365l0.039-0.005v-0.276H124.852z"/>
<path fill="#004785" d="M131.564,36.313v0.276l0.043,0.005c0.493,0.039,0.699,0.141,0.733,0.365l0.014,0.104l0.026,0.287
	c0,0,0,2.708,0,2.913c-0.125-0.152-3.267-3.934-3.267-3.934l-1.416-0.018v0.281h0.044c0.409,0,0.628,0.238,0.82,0.482l-0.01,3.438
	l-0.03,0.292l-0.015,0.098c-0.031,0.216-0.215,0.328-0.593,0.365l-0.041,0.003v0.279h1.894v-0.279l-0.043-0.003
	c-0.487-0.037-0.7-0.14-0.733-0.365l-0.015-0.105l-0.028-0.284c0,0,0-2.897,0-3.128c0.15,0.178,1.958,2.317,1.958,2.317l1.56,1.848
	h0.314v-4.2l0.031-0.296l0.014-0.096c0.029-0.213,0.212-0.323,0.593-0.365l0.04-0.005v-0.276H131.564z"/>
<path fill="#004785" d="M134.758,37.452c0,0.786,0.472,1.1,0.847,1.352l0.063,0.042c1.128,0.742,1.34,1.122,1.34,1.558
	c0,0.498-0.395,0.891-0.903,0.891c-0.644,0-1.068-0.413-1.138-1.1l-0.004-0.041h-0.277v1.104c0,0.07,0.028,0.119,0.075,0.143
	c0.422,0.165,0.834,0.24,1.279,0.24c0.885,0,1.824-0.493,1.824-1.406c0-0.621-0.253-1.012-1.049-1.602l-0.265-0.199
	c-0.583-0.432-0.966-0.712-0.966-1.141c0-0.666,0.585-0.715,0.761-0.715c0.683,0,0.847,0.553,0.886,0.881l0.002,0.041h0.277v-1.012
	c0-0.062-0.026-0.099-0.083-0.12c-0.368-0.13-0.89-0.141-1.038-0.141C135.486,36.226,134.758,36.776,134.758,37.452z"/>
<path fill="#004785" d="M141.946,36.313v0.281h0.046c0.223,0,0.38,0.055,0.443,0.164c0.02,0.036,0.032,0.079,0.032,0.131
	c0,0.08-0.034,0.186-0.099,0.301c0,0-0.781,1.423-0.971,1.771c-0.07-0.146-0.854-1.771-0.854-1.771
	c-0.059-0.129-0.119-0.273-0.119-0.381c0-0.038,0.01-0.072,0.025-0.104c0.048-0.072,0.175-0.111,0.376-0.111h0.048v-0.281h-1.966
	v0.281h0.048c0.311,0,0.507,0.166,0.743,0.639l1.132,2.244l-0.005,1.199c0,0.521,0,0.521-0.504,0.582l-0.127,0.017v0.276h2.068
	v-0.276l-0.125-0.017c-0.509-0.061-0.509-0.061-0.506-0.587v-0.909c0-0.23,0.026-0.403,0.083-0.514l1.225-2.232
	c0.212-0.375,0.414-0.422,0.565-0.422h0.045v-0.281H141.946z"/>
<path fill="#004785" d="M144.729,36.313v0.276l0.13,0.016c0.506,0.061,0.506,0.061,0.506,0.597v3.467c0,0.529,0,0.529-0.506,0.59
	l-0.13,0.017v0.276h3.697l0.236-1.412h-0.271l-0.128,0.318c-0.223,0.558-0.306,0.768-1.201,0.768c-0.693,0-0.897-0.066-0.897-0.52
	V37.19c0-0.524,0-0.524,0.509-0.585l0.126-0.016v-0.276H144.729z"/>
<path fill="#004785" d="M152.216,36.313v0.281h0.045c0.248,0,0.41,0.055,0.483,0.164c0.031,0.048,0.049,0.106,0.049,0.178
	c0,0.078-0.021,0.178-0.066,0.289l-0.402,0.998c0,0-0.84,2.066-0.927,2.271c-0.068-0.215-1.056-3.135-1.056-3.135
	c-0.059-0.167-0.088-0.304-0.088-0.415c0-0.087,0.02-0.16,0.059-0.209c0.068-0.099,0.204-0.141,0.439-0.141h0.049v-0.281h-2.091
	v0.281h0.046c0.294,0,0.522,0.161,0.806,0.988l1.41,3.969h0.439l1.872-4.543c0.152-0.372,0.395-0.414,0.567-0.414h0.045v-0.281
	H152.216z"/>
<path fill="#004785" d="M158.71,41.269c-0.277,0-0.389-0.198-0.551-0.616l-1.115-3.25l-0.396-1.177h-0.477l-0.532,1.43
	c-0.506,1.378-1.03,2.799-1.265,3.272c-0.104,0.21-0.289,0.341-0.489,0.341h-0.046v0.282h1.431v-0.282h-0.045
	c-0.134,0-0.235-0.044-0.296-0.128c-0.038-0.052-0.058-0.115-0.058-0.186c0-0.049,0.009-0.102,0.027-0.154
	c0,0,0.3-0.865,0.331-0.955h1.807c0.02,0.059,0.309,0.916,0.309,0.916c0.035,0.1,0.053,0.182,0.053,0.247
	c0,0.06-0.014,0.105-0.037,0.14c-0.056,0.078-0.176,0.12-0.362,0.12h-0.043v0.282h1.801v-0.282H158.71z M155.37,39.477
	c0.041-0.113,0.749-2.049,0.814-2.232c0.062,0.187,0.692,2.122,0.731,2.232H155.37z"/>
<path fill="#004785" d="M174.324,41.269c-0.28,0-0.389-0.198-0.555-0.616l-1.114-3.25l-0.396-1.177h-0.476l-0.53,1.43
	c-0.509,1.378-1.032,2.799-1.266,3.272c-0.103,0.21-0.29,0.341-0.49,0.341h-0.046v0.282h1.434v-0.282h-0.05
	c-0.133,0-0.234-0.044-0.294-0.128c-0.038-0.052-0.057-0.115-0.057-0.186c0-0.049,0.01-0.102,0.025-0.154c0,0,0.3-0.865,0.332-0.955
	h1.808c0.019,0.059,0.308,0.916,0.308,0.916c0.035,0.1,0.053,0.182,0.053,0.247c0,0.06-0.012,0.105-0.038,0.14
	c-0.054,0.078-0.176,0.12-0.359,0.12h-0.046v0.282h1.8v-0.282H174.324z M170.982,39.477c0.04-0.113,0.75-2.049,0.816-2.232
	c0.061,0.187,0.693,2.122,0.73,2.232H170.982z"/>
<path fill="#004785" d="M163.331,36.313v0.276l0.043,0.005c0.492,0.039,0.7,0.141,0.731,0.365l0.012,0.081l0.031,0.311
	c0,0,0,2.71,0,2.913c-0.122-0.146-1.468-1.771-1.468-1.771l-1.797-2.163l-1.42-0.018v0.281h0.043c0.412,0,0.632,0.238,0.816,0.482
	l-0.01,3.438l-0.029,0.303l-0.012,0.087c-0.031,0.216-0.212,0.328-0.595,0.365l-0.04,0.003v0.279h1.896v-0.279l-0.042-0.003
	c-0.489-0.037-0.701-0.14-0.732-0.365l-0.014-0.087l-0.027-0.303c0,0,0-2.897,0-3.128c0.146,0.175,3.516,4.165,3.516,4.165h0.312
	v-4.2l0.028-0.279l0.018-0.112c0.03-0.213,0.215-0.323,0.592-0.365l0.043-0.005v-0.276H163.331z"/>
<path fill="#004785" d="M166.341,36.313v0.276l0.127,0.016c0.507,0.061,0.507,0.061,0.507,0.585v3.484c0,0.523,0,0.523-0.507,0.584
	l-0.127,0.017v0.276h2.068v-0.276l-0.125-0.017c-0.512-0.061-0.512-0.061-0.509-0.59v-3.471c-0.003-0.532-0.003-0.532,0.509-0.593
	l0.125-0.016v-0.276H166.341z"/>
<g>
	<path fill="#004785" d="M1,2.785v18.387c0,14.997,16.298,22.58,18.389,22.645c2.093-0.064,18.4-7.647,18.4-22.645V2.785H1z"/>
	<path fill="#A90533" d="M1.967,3.722c0,0.782,0.002,9.856,0.002,10.638H36.8c0,0,0-9.863,0-10.64
		C35.956,3.72,2.813,3.722,1.967,3.722z M10.544,11.023c-0.007,0.009-0.001,0.801-0.001,0.801l-7.3-0.002
		c0,0,0.008-0.792-0.001-0.804c0-0.277-0.479-0.324-0.479-0.739c0-0.5,0.465-0.516,0.465-0.699V8.127
		c0-0.23-0.461-0.199-0.461-0.741c0-0.532,0.465-0.482,0.465-0.712c0-0.233,0.01-0.503,0.002-0.602h0.542V5.707c0,0,0.32,0,0.438,0
		c0.477-0.079,0.927-0.491,1.282-0.53c0.361-0.04,0.756,0.039,1.154,0.278h0.464c0.397-0.239,0.793-0.318,1.151-0.278
		c0.357,0.039,0.809,0.451,1.283,0.53c0.121,0,0.438,0,0.438,0v0.368h0.564c0,0,0.002,0.369,0.002,0.602
		c0,0.23,0.466,0.181,0.466,0.713c0,0.545-0.462,0.511-0.462,0.743v1.45c0,0.183,0.467,0.198,0.467,0.699
		C11.024,10.696,10.544,10.743,10.544,11.023z M27.065,9.479c0.301,0.962,0.085,1.81-0.369,2.461
		c-0.733,1.052-2.059,1.251-2.107,1.256c-1.726,0.302-2.937-0.34-3.451-0.612c-0.081-0.048-0.148-0.085-0.195-0.101
		c-0.171-0.074-0.575-0.285-1.039-0.533c-0.646-0.336-1.452-0.763-1.699-0.839c-0.438-0.144-0.796-0.191-1.08-0.191
		c-0.476,0-0.751,0.139-0.866,0.22c-0.101,0.529-0.458,0.738-0.792,0.975l-0.072,0.055c-0.52,0.379-1.312,0.951-2.168,0.951
		c-0.517,0-0.892-0.179-1.015-0.664l-0.316-0.064c-0.53-0.533-0.099-1.145,0.04-1.303c0.104-0.112,0.211-0.236,0.211-0.326
		c0-0.183-0.043-0.214-0.146-0.289c-0.133-0.089-0.325-0.225-0.325-0.608c0-0.59,1.236-3.511,1.896-3.833l0.179,0.285
		c0.106-0.048,0.163-0.138,0.255-0.295c0,0,0.242-0.422,0.544-0.574c0.503-0.254,0.896-0.013,1.13,0.128
		c0.053,0.037,0.056,0.068,0.083,0.049C15.79,5.61,15.824,5.555,15.869,5.5c0.152-0.207,0.364-0.48,0.704-0.511
		c0.606-0.055,0.836,0.225,0.983,0.413c0.113,0.135,0.136,0.15,0.21,0.143c0.146-0.013,0.247-0.065,0.366-0.132
		c0.204-0.106,0.458-0.238,0.876-0.093c0.665,0.229,0.758,0.621,0.819,0.877c0.038,0.157,0.056,0.212,0.128,0.247
		c0.183,0.1,0.337,0.092,0.515,0.084c0.267-0.013,0.601-0.037,0.952,0.361c0.272,0.302,0.219,0.652,0.179,0.931
		c-0.033,0.222-0.047,0.369,0.035,0.457c0.075,0.077,0.144,0.093,0.247,0.122c0.189,0.054,0.444,0.123,0.682,0.536
		c0.177,0.31,0.08,0.627,0,0.884c-0.043,0.143-0.146,0.43,0.006,0.537c0.224,0.159,0.188,0.354,0.365,0.502
		c0.336,0.283,0.71,0.402,0.974,0.442c0.527,0.088,0.985,0.008,1.225-0.209c0.136-0.128,0.17-0.311,0.21-0.509
		c0.041-0.214,0.046-0.615-0.289-0.795c-0.267-0.15-0.896,0.021-1.11,0.342l-0.229,0.341l-0.159-0.38
		c-0.284-0.676-0.293-1.249-0.029-1.694c0.285-0.487,0.789-0.638,1.112-0.702c0.01-0.912,0.272-1.512,0.789-1.85
		c0.883-0.573,1.796-0.212,1.796-0.215C27.225,5.628,26.218,6.765,27.065,9.479z M35.409,11.023
		c-0.006,0.009-0.003,0.801-0.003,0.801l-7.297-0.002c0,0,0.006-0.792,0-0.804c0-0.277-0.479-0.324-0.479-0.739
		c0-0.5,0.461-0.516,0.461-0.699V8.127c0-0.23-0.459-0.199-0.459-0.741c0-0.532,0.464-0.482,0.464-0.712
		c0-0.233,0.011-0.503,0.003-0.602h0.542V5.707c0,0,0.32,0,0.436,0c0.479-0.079,0.929-0.491,1.286-0.53
		c0.358-0.04,0.753,0.039,1.151,0.278h0.463c0.398-0.239,0.795-0.318,1.152-0.278c0.356,0.039,0.809,0.451,1.284,0.53
		c0.119,0,0.436,0,0.436,0v0.368h0.568c0,0,0.003,0.369,0.003,0.602c0,0.23,0.465,0.181,0.465,0.713
		c0,0.545-0.459,0.511-0.459,0.743v1.45c0,0.183,0.462,0.198,0.462,0.699C35.889,10.696,35.409,10.743,35.409,11.023z"/>
	<path fill="#FFFFFF" d="M9.606,36.983c4.22,3.863,8.8,5.882,9.782,5.913c0.98-0.031,5.565-2.05,9.785-5.916l-9.782-10.114
		L9.606,36.983z M22.963,21.851c0-1.881-1.616-3.412-3.606-3.412s-3.604,1.53-3.604,3.412c0,1.88,1.614,3.41,3.604,3.41
		S22.963,23.731,22.963,21.851z M14.734,29.014c0-1.84-1.583-3.33-3.531-3.33c-1.953,0-3.532,1.49-3.532,3.33
		c0,1.844,1.579,3.334,3.532,3.334C13.151,32.348,14.734,30.858,14.734,29.014z M27.463,25.684c-1.948,0-3.531,1.49-3.531,3.33
		c0,1.844,1.583,3.334,3.531,3.334c1.954,0,3.531-1.49,3.531-3.334C30.994,27.174,29.417,25.684,27.463,25.684z M1.97,15.24v5.964
		c0,3.221,0.818,6.096,2.09,8.623l15.332-14.585l15.327,14.582c1.272-2.527,2.091-5.404,2.091-8.626V15.24H1.97z"/>
	<path fill="#FFFFFF" d="M15.438,10.931c-0.102-0.013-0.236-0.101-0.248-0.23c-0.025-0.172,0.179-0.281,0.299-0.346
		c0.492-0.192,0.811-0.409,0.877-0.505c-0.196-0.19-0.344-0.392-0.458-0.552c-0.069-0.089-0.125-0.167-0.177-0.225
		c-0.201-0.215-0.421-0.308-0.734-0.308c-0.185,0-0.429,0.339-0.678,0.425c-0.314,0.102-0.385-0.215-0.306-0.388
		c0.085-0.186,0.269-0.212,0.269-0.442c0-0.424-0.218-0.838-0.429-1.24c-0.078-0.222-0.304-0.262-0.304-0.262
		c-0.429,0.207-1.433,2.455-1.433,3.008c0,0.153,0.032,0.176,0.136,0.246c0.134,0.095,0.336,0.239,0.336,0.651
		c0,0.261-0.169,0.453-0.322,0.623c-0.081,0.086-0.187,0.207-0.187,0.267c0,0.231-0.008,0.394,0.567,0.394
		c0.331,0,0.618-0.077,0.801-0.17c0.315-0.163,0.687-0.465,0.793-0.715c0.167-0.207,0.461-0.028,0.414,0.176
		c-0.163,0.386-0.709,0.625-1.041,0.867c-0.394,0.293-0.939,0.213-0.928,0.2c-0.095,0.098,0.183,0.327,0.521,0.327
		c0.038,0,0.077-0.005,0.116-0.012c0.707-0.106,1.335-0.564,1.811-0.911l0.073-0.052c0.218-0.154,0.434-0.295,0.56-0.499
		c0.041-0.067,0.027-0.24-0.018-0.25C15.672,10.986,15.574,10.944,15.438,10.931z"/>
	<path fill="#004785" d="M13.99,10.444c0,0.013-0.109,0.289-0.286,0.349c-0.039,0.009-0.087,0.02-0.131,0.02
		c-0.079,0-0.16-0.033-0.212-0.141c-0.052-0.052-0.024-0.238-0.013-0.316c0.031-0.188,0.157-0.349,0.265-0.438
		c0,0,0.466-0.337,0.569-0.288c0.034,0.013-0.123,0.338-0.119,0.381C14.123,10.305,13.99,10.444,13.99,10.444z"/>
	<path fill="#FFFFFF" d="M14.326,7.053c0.653-0.585,2.516-0.641,2.754-0.628c2.366,0.133,3.312,1.354,3.626,1.754l0.048,0.067
		c0.018,0.018,0.037,0.052,0.104,0.15c0.195,0.295,0.68,0.995,1.201,1.62c0.014-0.106,0.056-0.227,0.085-0.326
		c0.064-0.2,0.119-0.393,0.037-0.536c-0.146-0.255-0.259-0.286-0.412-0.328c-0.134-0.035-0.295-0.08-0.45-0.245
		c-0.237-0.251-0.191-0.571-0.154-0.826c0.036-0.265,0.055-0.431-0.069-0.569c-0.214-0.239-0.359-0.23-0.602-0.217
		c-0.2,0.01-0.455,0.026-0.747-0.132C19.492,6.7,19.44,6.478,19.397,6.3c-0.053-0.22-0.097-0.413-0.534-0.565
		c-0.235-0.079-0.342-0.023-0.52,0.072c-0.136,0.072-0.306,0.162-0.541,0.18c-0.319,0.026-0.475-0.167-0.59-0.308
		c-0.127-0.159-0.228-0.283-0.601-0.248c-0.145,0.013-0.278,0.186-0.392,0.336c-0.136,0.175-0.307,0.397-0.557,0.307
		c-0.072-0.027-0.145-0.071-0.219-0.116c-0.244-0.151-0.437-0.245-0.699-0.114c-0.185,0.093-0.265,0.235-0.359,0.398
		c-0.068,0.115-0.137,0.239-0.246,0.338l0.111,0.328C14.275,6.955,14.301,7.004,14.326,7.053z"/>
	<path fill="#FFFFFF" d="M16.388,9.875l-0.009-0.047c-0.004,0.005-0.008,0.018-0.014,0.022c0.005,0.007,0.008,0.012,0.014,0.014
		L16.388,9.875z"/>
	<polygon fill="#FFFFFF" points="24.563,12.757 24.538,12.757 24.521,12.759 24.518,12.759 	"/>
	<path fill="#FFFFFF" d="M26.632,9.574c-0.585-1.96-0.231-3.06-0.068-3.656c-0.303-0.026-0.701,0.145-0.964,0.344
		c-0.367,0.276-0.544,0.814-0.528,1.601l0.002,0.202l-0.202,0.021c-0.162,0.019-0.712,0.109-0.964,0.536
		c-0.157,0.265-0.188,0.665-0.06,1.087c0.266-0.281,0.741-0.419,1.17-0.377c0.751,0.07,0.791,0.786,0.744,1.234
		c-0.035,0.343-0.094,0.638-0.33,0.854c-0.345,0.311-0.926,0.426-1.593,0.32c-0.388-0.064-0.811-0.212-1.193-0.537
		c-0.181-0.15-0.531-0.512-0.704-0.704c-0.638-0.704-1.229-1.503-1.461-1.854c-0.039-0.057-0.074-0.109-0.082-0.117l-0.05-0.067
		c-0.311-0.4-1.134-1.46-3.294-1.584C16.29,6.836,14.562,7.13,14.519,7.46c0.12,0.282,0.216,0.583,0.216,0.9
		c0,0,0.875-0.013,1.044,0.154c0.173-0.18,0.383-0.289,0.661-0.38c0.207-0.068,0.47-0.023,0.705,0.118
		c0.206,0.122,0.357,0.294,0.455,0.506c0.198-0.09,0.479-0.178,0.766-0.079c0.239,0.079,0.414,0.262,0.544,0.545
		c0.2-0.104,0.368-0.136,0.536-0.097c0.321,0.079,0.477,0.396,0.59,0.626c0.031,0.068,0.063,0.13,0.091,0.174
		c0.01,0.017,0.03,0.021,0.145,0.024c0.204,0.007,0.55,0.031,0.713,0.649c0.07,0.275-0.406,0.268-0.445,0.086
		c-0.061-0.272-0.112-0.275-0.287-0.283c-0.146-0.008-0.366-0.016-0.508-0.239c-0.04-0.062-0.077-0.135-0.114-0.214
		c-0.078-0.16-0.172-0.356-0.288-0.382c-0.091-0.023-0.229,0.034-0.4,0.165l-0.262,0.198L18.584,9.62
		c-0.079-0.286-0.201-0.455-0.36-0.515c-0.229-0.076-0.522,0.081-0.618,0.149L17.319,9.46l-0.067-0.348
		c-0.039-0.197-0.159-0.367-0.337-0.474c-0.138-0.081-0.269-0.094-0.334-0.071c-0.211,0.068-0.354,0.144-0.475,0.271
		c0.051,0.062,0.108,0.119,0.163,0.194c0.117,0.159,0.249,0.335,0.424,0.505c0.11,0.108,0.157,0.243,0.128,0.379
		c-0.054,0.281-0.206,0.504-0.897,0.773l0.154,0.043c0.305-0.188,0.998-0.455,2.259-0.043c0.265,0.08,0.899,0.412,1.773,0.873
		c0.438,0.23,0.848,0.447,1.005,0.513c0.061,0.024,0.135,0.063,0.231,0.113c0.514,0.274,1.593,0.846,3.165,0.571h0.009
		c0.04-0.008,1.198-0.19,1.813-1.077C26.716,11.14,26.883,10.415,26.632,9.574z"/>
	<path fill="#FFFFFF" d="M5.595,10.232C5.835,10.126,6.344,9.87,6.65,9.87V5.812C6.256,5.576,5.864,5.498,5.51,5.537
		C5.453,5.544,5.398,5.555,5.347,5.571C5.017,5.68,4.625,5.998,4.214,6.063v4.25C4.214,10.312,5.359,10.334,5.595,10.232z
		 M9.535,10.312v-4.25C9.059,5.985,8.611,5.574,8.253,5.537C8.009,5.508,7.745,5.542,7.475,5.642
		c-0.126,0.057-0.237,0.12-0.357,0.163C7.111,5.808,7.105,5.81,7.101,5.812V9.87c0.306,0,0.815,0.257,1.052,0.362
		C8.391,10.334,9.535,10.312,9.535,10.312z M10.558,9.583v-1.45c0-0.232,0.462-0.198,0.462-0.743c0-0.532-0.466-0.482-0.466-0.713
		c0-0.233-0.002-0.602-0.002-0.602H9.987v4.676H7.353c0,0.324-0.408,0.366-0.473,0.366c-0.066,0-0.467-0.055-0.467-0.366H3.775
		V6.072H3.233C3.241,6.17,3.231,6.441,3.231,6.674c0,0.23-0.465,0.18-0.465,0.712c0,0.542,0.461,0.511,0.461,0.741v1.452
		c0,0.183-0.465,0.199-0.465,0.699c0,0.415,0.479,0.461,0.479,0.739c0.009,0.012,0.001,0.804,0.001,0.804l7.3,0.002
		c0,0-0.006-0.792,0.001-0.801c0-0.28,0.48-0.327,0.48-0.742C11.024,9.78,10.558,9.765,10.558,9.583z M30.463,10.232
		c0.237-0.105,0.746-0.362,1.052-0.362V5.812c-0.395-0.237-0.787-0.315-1.142-0.276c-0.056,0.008-0.112,0.019-0.161,0.034
		c-0.331,0.109-0.721,0.427-1.135,0.492v4.25C29.077,10.312,30.226,10.334,30.463,10.232z M34.4,10.312v-4.25
		c-0.476-0.078-0.926-0.489-1.284-0.526c-0.24-0.029-0.506,0.005-0.777,0.105c-0.125,0.057-0.238,0.12-0.357,0.163
		c-0.006,0.003-0.014,0.005-0.018,0.008V9.87c0.306,0,0.814,0.257,1.055,0.362C33.256,10.334,34.4,10.312,34.4,10.312z
		 M35.427,9.583v-1.45c0-0.232,0.459-0.198,0.459-0.743c0-0.532-0.465-0.482-0.465-0.713c0-0.233-0.003-0.602-0.003-0.602H34.85
		v4.676h-2.63c0,0.324-0.41,0.366-0.476,0.366c-0.064,0-0.469-0.055-0.469-0.366h-2.634V6.072H28.1
		c0.008,0.098-0.003,0.369-0.003,0.602c0,0.23-0.464,0.18-0.464,0.712c0,0.542,0.459,0.511,0.459,0.741v1.452
		c0,0.183-0.461,0.199-0.461,0.699c0,0.415,0.479,0.461,0.479,0.739c0.006,0.012,0,0.804,0,0.804l7.297,0.002
		c0,0-0.003-0.792,0.003-0.801c0-0.28,0.479-0.327,0.479-0.742C35.889,9.78,35.427,9.765,35.427,9.583z"/>
</g>
</svg>
